<?xml version="1.0" encoding="UTF-8"?>
<svg xmlns="http://www.w3.org/2000/svg" version="1.1" width="460px" height="464px" style="shape-rendering:geometricPrecision; text-rendering:geometricPrecision; image-rendering:optimizeQuality; fill-rule:evenodd; clip-rule:evenodd" xmlns:xlink="http://www.w3.org/1999/xlink">
<g><path style="opacity:0.988" fill="#000000" d="M 237.5,73.5 C 235.738,74.2623 234.738,75.5956 234.5,77.5C 234.5,78.1667 234.167,78.5 233.5,78.5C 191.528,120.625 155.028,166.959 124,217.5C 107.494,245.352 95.4942,275.019 88,306.5C 81.0529,340.268 85.7196,372.268 102,402.5C 104.277,406.08 106.777,409.414 109.5,412.5C 110.479,413.765 111.479,415.099 112.5,416.5C 68.9182,389.018 38.0849,350.685 20,301.5C -0.473879,236.62 6.19279,174.62 40,115.5C 75.1175,61.4229 124.284,27.2562 187.5,13C 223.134,6.64654 258.468,7.97987 293.5,17C 274.659,35.6745 255.992,54.5078 237.5,73.5 Z"/></g>
<g><path style="opacity:0.99" fill="#000000" d="M 252.5,170.5 C 217.351,203.13 186.851,239.464 161,279.5C 151.763,294.974 144.43,311.307 139,328.5C 136.699,336.014 136.032,343.681 137,351.5C 138.022,358.929 142.189,361.762 149.5,360C 156.053,357.791 158.886,353.291 158,346.5C 154.629,344.237 150.962,342.57 147,341.5C 146.333,338.833 146.333,336.167 147,333.5C 154.064,314.035 163.731,296.035 176,279.5C 193.077,257.754 211.577,237.254 231.5,218C 234.742,219.159 238.075,220.492 241.5,222C 261.969,224.198 271.135,215.031 269,194.5C 267.877,191.751 266.377,189.251 264.5,187C 266.324,186.34 267.657,185.173 268.5,183.5C 308.332,150.228 351.332,121.395 397.5,97C 399.228,95.027 401.061,93.1937 403,91.5C 412.947,100.736 420.947,111.402 427,123.5C 459.076,188.119 461.409,253.785 434,320.5C 398.906,391.886 342.073,435.053 263.5,450C 232.024,454.774 201.024,452.774 170.5,444C 148.754,433.754 132.42,417.92 121.5,396.5C 111.675,369.86 110.841,342.86 119,315.5C 127.537,288.762 139.537,263.762 155,240.5C 176.093,209.733 199.093,180.399 224,152.5C 235.063,141.605 245.896,130.605 256.5,119.5C 258.833,117.833 260.833,115.833 262.5,113.5C 289.046,88.4552 316.379,64.2885 344.5,41C 348.113,40.792 351.446,41.792 354.5,44C 366.658,53.4656 368.491,64.6323 360,77.5C 351.923,86.2942 342.757,93.7942 332.5,100C 304.427,121.906 277.761,145.406 252.5,170.5 Z"/></g>
<g><path style="opacity:0.004" fill="#000000" d="M 237.5,73.5 C 237.262,75.4044 236.262,76.7377 234.5,77.5C 234.738,75.5956 235.738,74.2623 237.5,73.5 Z"/></g>
<g><path style="opacity:0.682" fill="#000000" d="M 262.5,113.5 C 260.833,115.833 258.833,117.833 256.5,119.5C 256.5,119.167 256.5,118.833 256.5,118.5C 257.911,116.086 259.911,114.419 262.5,113.5 Z"/></g>
<g><path style="opacity:1" fill="#ffffff" d="M 77.5,133.5 C 92.9937,132.828 99.4937,140.162 97,155.5C 92.7274,165.04 85.5608,168.207 75.5,165C 67.2829,160.053 64.4495,152.886 67,143.5C 68.5,141.333 70,139.167 71.5,137C 73.7274,136.059 75.7274,134.892 77.5,133.5 Z"/></g>
<g><path style="opacity:1" fill="#ffffff" d="M 383.5,234.5 C 404.718,233.55 414.551,243.55 413,264.5C 408.277,278.62 398.443,284.787 383.5,283C 374.333,280.5 368.5,274.667 366,265.5C 364.069,250.687 369.903,240.354 383.5,234.5 Z"/></g>

</svg>
