<?xml version="1.0" encoding="UTF-8"?>
<svg version="1.1" xmlns="http://www.w3.org/2000/svg" width="448" height="454">
<path d="M0 0 C147.84 0 295.68 0 448 0 C448 149.82 448 299.64 448 454 C300.16 454 152.32 454 0 454 C0 304.18 0 154.36 0 0 Z " fill="#FBFCFB" transform="translate(0,0)"/>
<path d="M0 0 C1.25514404 -0.00064453 2.51028809 -0.00128906 3.8034668 -0.00195312 C15.72491701 0.06418946 27.52430635 0.93918488 39.375 2.1875 C39.93077422 26.08066106 40.0577538 48.82767956 34.375 72.1875 C33.99637817 73.75721558 33.99637817 73.75721558 33.61010742 75.35864258 C32.30898071 80.6579335 30.93572051 85.91360783 29.3125 91.125 C28.99152344 92.16527344 28.67054688 93.20554687 28.33984375 94.27734375 C27.44846983 96.9659007 26.4502663 99.5681513 25.375 102.1875 C24.84937115 103.56067394 24.32817816 104.93555832 23.8125 106.3125 C23.56371094 106.97507812 23.31492187 107.63765625 23.05859375 108.3203125 C22.46839937 109.9323863 21.91787304 111.55888089 21.375 113.1875 C20.91609375 113.64125 20.4571875 114.095 19.984375 114.5625 C17.98873406 116.5775161 16.92767542 118.66996997 15.625 121.1875 C2.56857921 145.48959709 -17.46964307 169.63533407 -42.625 182.1875 C-43.285 182.1875 -43.945 182.1875 -44.625 182.1875 C-44.625 182.8475 -44.625 183.5075 -44.625 184.1875 C-45.32625 184.435 -46.0275 184.6825 -46.75 184.9375 C-49.70447798 186.10642788 -49.70447798 186.10642788 -52.33203125 188.09765625 C-55.82587846 190.31498514 -59.27054896 191.65316271 -63.1875 192.875 C-63.83396484 193.08705078 -64.48042969 193.29910156 -65.14648438 193.51757812 C-68.61039822 194.63462867 -72.03945798 195.5612345 -75.625 196.1875 C-75.625 196.8475 -75.625 197.5075 -75.625 198.1875 C-76.44742188 198.30867187 -77.26984375 198.42984375 -78.1171875 198.5546875 C-84.15397876 199.46090328 -90.14712218 200.42659656 -96.11328125 201.72265625 C-103.5064119 203.09090282 -110.62432324 203.31347936 -118.125 203.25 C-119.94290941 203.23862351 -121.76082146 203.22766239 -123.57873535 203.21702576 C-124.52385231 203.21147391 -125.46896927 203.20592207 -126.44272614 203.20020199 C-127.16287651 203.19601033 -127.88302689 203.19181868 -128.625 203.1875 C-129.78486581 224.41936429 -129.98862089 245.62544825 -130.08496094 266.88500977 C-130.10745943 271.40556551 -130.14961858 275.92532451 -130.20800781 280.44555664 C-130.27895594 285.95524516 -130.3157598 291.46416919 -130.32807922 296.97429085 C-130.33846561 299.05995163 -130.36085594 301.14558967 -130.39567566 303.23098564 C-130.44175933 306.13335122 -130.44390125 309.03265395 -130.43554688 311.93530273 C-130.45914276 312.78776077 -130.48273865 313.64021881 -130.50704956 314.51850891 C-130.45832029 318.01464543 -130.40426623 320.27452026 -128.08033752 322.99720955 C-126.23780325 324.60737818 -126.23780325 324.60737818 -124.3169632 325.93782139 C-121.5405502 327.98847116 -120.67093492 329.92664409 -119.625 333.1875 C-119.12128467 337.99762669 -118.96412589 342.43812737 -120.6875 347 C-124.68158365 351.50944928 -128.61618197 355.68906792 -134.82421875 356.4609375 C-140.73394339 356.70215075 -144.31940364 355.79325881 -149.2265625 352.4765625 C-149.68804687 352.05117188 -150.14953125 351.62578125 -150.625 351.1875 C-150.625 350.5275 -150.625 349.8675 -150.625 349.1875 C-151.285 349.1875 -151.945 349.1875 -152.625 349.1875 C-156.2570163 343.1341395 -156.10276821 338.26645069 -155.0625 331.5625 C-153.18258456 327.1487855 -150.43759046 324.97048715 -146.625 322.1875 C-147.15992593 318.12613578 -149.17826549 316.27620753 -152.03369141 313.45410156 C-152.49076477 312.99819641 -152.94783813 312.54229126 -153.41876221 312.0725708 C-154.93117767 310.56733968 -156.45383363 309.07291582 -157.9765625 307.578125 C-159.03526348 306.52756801 -160.09322577 305.47626613 -161.15048218 304.42425537 C-163.93947407 301.65238829 -166.73689432 298.88919286 -169.53662109 296.12817383 C-173.99799237 291.72592303 -178.44698967 287.31118142 -182.89506149 282.89550018 C-184.44033132 281.36403257 -185.98944822 279.83654633 -187.53921509 278.30963135 C-192.29840104 273.6064867 -196.93776231 268.86225369 -201.26519775 263.75450134 C-202.94918994 261.8139118 -204.77492297 260.14038825 -206.75 258.5 C-209.86049236 255.85698048 -212.77505614 253.11446937 -215.625 250.1875 C-216.48598801 249.46722122 -217.34697601 248.74694244 -218.23405457 248.00483704 C-221.1745597 244.53993403 -221.30681833 242.07581924 -221.19262695 237.73510742 C-221.19335709 237.0028595 -221.19408722 236.27061157 -221.19483948 235.51617432 C-221.19136958 233.10767254 -221.15254128 230.70113051 -221.11328125 228.29296875 C-221.10395089 226.61860714 -221.09683583 224.94423184 -221.09184265 223.26985168 C-221.07279016 218.87185704 -221.02370522 214.47469356 -220.96832275 210.07702637 C-220.91709205 205.58597049 -220.8943205 201.09477975 -220.86914062 196.60351562 C-220.8155838 187.79775393 -220.727663 178.99282625 -220.625 170.1875 C-215.675 170.1875 -210.725 170.1875 -205.625 170.1875 C-205.96446655 172.93791626 -205.96446655 172.93791626 -206.31079102 175.74389648 C-211.17219281 214.08637714 -211.17219281 214.08637714 -198.47201443 249.00705242 C-187.78491622 262.31002674 -174.31729047 273.43782212 -160.90185547 283.8762207 C-156.78340072 287.11381023 -153.32961009 290.48021612 -150.04959106 294.561203 C-148.52885643 296.43964624 -148.52885643 296.43964624 -145.625 298.1875 C-144.32119493 282.91198743 -144.32119493 282.91198743 -148.91796875 269.18359375 C-149.83191406 268.54550781 -150.74585938 267.90742188 -151.6875 267.25 C-154.82027191 264.93058684 -156.40980767 263.35439979 -157.12646484 259.46826172 C-158.1232854 245.44263515 -156.65829792 231.07565094 -154.625 217.1875 C-153.965 217.1875 -153.305 217.1875 -152.625 217.1875 C-152.55152344 215.59808594 -152.55152344 215.59808594 -152.4765625 213.9765625 C-152.40153291 212.58851503 -152.32598515 211.20049549 -152.25 209.8125 C-152.2190625 209.11382812 -152.188125 208.41515625 -152.15625 207.6953125 C-151.8515625 202.4140625 -151.8515625 202.4140625 -149.625 200.1875 C-149.10309757 198.03201515 -149.10309757 198.03201515 -148.84375 195.5390625 C-148.72386719 194.61609375 -148.60398437 193.693125 -148.48046875 192.7421875 C-148.36316406 191.77539062 -148.24585938 190.80859375 -148.125 189.8125 C-147.89206076 187.90802975 -147.6527088 186.0043304 -147.40625 184.1015625 C-147.2525293 182.8323999 -147.2525293 182.8323999 -147.09570312 181.53759766 C-146.61339305 179.12954953 -145.82313241 177.31990506 -144.625 175.1875 C-143.965 175.1875 -143.305 175.1875 -142.625 175.1875 C-142.44324219 174.17429687 -142.44324219 174.17429687 -142.2578125 173.140625 C-142.09023437 172.24859375 -141.92265625 171.3565625 -141.75 170.4375 C-141.58757812 169.55578125 -141.42515625 168.6740625 -141.2578125 167.765625 C-140.65703736 165.31802256 -139.84502883 163.38150143 -138.625 161.1875 C-137.965 161.1875 -137.305 161.1875 -136.625 161.1875 C-136.54765625 160.36572266 -136.54765625 160.36572266 -136.46875 159.52734375 C-132.03844887 128.56558015 -98.06360304 95.79019399 -74.45922852 77.7409668 C-69.59788311 74.10328803 -64.65211398 70.59146832 -59.625 67.1875 C-59.02945313 66.76597656 -58.43390625 66.34445313 -57.8203125 65.91015625 C-55.73443553 64.45211787 -53.99692768 63.2750124 -51.5 62.6875 C-49.44594613 62.316387 -49.44594613 62.316387 -47.921875 60.375 C-45.16619938 57.75054703 -42.4175543 56.35459966 -39 54.6875 C-38.38624512 54.38706787 -37.77249023 54.08663574 -37.14013672 53.77709961 C-32.068431 51.3257972 -26.90708922 49.14698471 -21.625 47.1875 C-22.429375 47.331875 -23.23375 47.47625 -24.0625 47.625 C-27.53052918 48.17258356 -30.98380463 48.56310186 -34.4765625 48.90625 C-36.58614139 49.18241306 -38.57345996 49.6305208 -40.625 50.1875 C-40.625 50.8475 -40.625 51.5075 -40.625 52.1875 C-44.255 52.8475 -47.885 53.5075 -51.625 54.1875 C-51.625 54.8475 -51.625 55.5075 -51.625 56.1875 C-54.39325188 57.36064026 -57.16428486 58.52620215 -59.9375 59.6875 C-60.72318359 60.02136719 -61.50886719 60.35523438 -62.31835938 60.69921875 C-63.07568359 61.01503906 -63.83300781 61.33085937 -64.61328125 61.65625 C-65.30977783 61.94951172 -66.00627441 62.24277344 -66.72387695 62.54492188 C-68.625 63.1875 -68.625 63.1875 -71.625 63.1875 C-71.625 63.8475 -71.625 64.5075 -71.625 65.1875 C-72.91413487 65.85904933 -74.20640204 66.52458859 -75.5 67.1875 C-76.21929687 67.55875 -76.93859375 67.93 -77.6796875 68.3125 C-79.625 69.1875 -79.625 69.1875 -81.625 69.1875 C-81.810625 69.785625 -81.99625 70.38375 -82.1875 71 C-83.97073697 73.71362148 -85.79839641 74.08537603 -88.7199707 75.27075195 C-91.8833391 76.79304444 -94.33820513 79.04791736 -96.9375 81.375 C-102.37917246 86.1875 -102.37917246 86.1875 -104.625 86.1875 C-104.625 86.8475 -104.625 87.5075 -104.625 88.1875 C-105.91796875 89.421875 -105.91796875 89.421875 -107.8125 90.9375 C-129.61698922 109.58303495 -148.14291747 136.81900583 -156.65625 164.23046875 C-158.02908686 168.42094257 -159.74515125 172.44326805 -161.4765625 176.49609375 C-163.36707134 180.92657194 -164.973892 185.18923973 -166.125 189.875 C-166.3621875 190.82761719 -166.599375 191.78023437 -166.84375 192.76171875 C-168.60978591 200.50578622 -170.00811412 208.27135164 -171.1328125 216.1328125 C-171.32833206 217.47664505 -171.32833206 217.47664505 -171.52780151 218.84762573 C-171.93770104 221.6688948 -172.34391665 224.4906794 -172.75 227.3125 C-173.02970288 229.24222303 -173.30964866 231.17191088 -173.58984375 233.1015625 C-174.27103342 237.79647351 -174.94892309 242.49185014 -175.625 247.1875 C-180.94182542 239.21226187 -182.35945637 229.24308172 -183.96875 219.9453125 C-184.49693067 216.92084938 -185.0944556 213.93565159 -185.75 210.9375 C-187.81926258 200.56228681 -187.84992458 189.91723476 -187.875 179.375 C-187.87667175 178.70573486 -187.87834351 178.03646973 -187.88006592 177.34692383 C-187.88226826 162.51018555 -187.07326332 147.43157786 -182.625 133.1875 C-182.40295898 132.46449707 -182.18091797 131.74149414 -181.95214844 130.99658203 C-181.20694788 128.57792238 -180.44861011 126.1636968 -179.6875 123.75 C-179.43548828 122.94240234 -179.18347656 122.13480469 -178.92382812 121.30273438 C-176.6604616 114.11900585 -174.25540006 107.15257781 -170.8125 100.4375 C-169.24982978 97.38857374 -167.69988267 94.34835906 -166.25390625 91.2421875 C-156.38936582 70.28353219 -138.27728241 48.40193941 -118.625 36.1875 C-117.965 36.1875 -117.305 36.1875 -116.625 36.1875 C-116.295 35.1975 -115.965 34.2075 -115.625 33.1875 C-110.67782754 29.41822574 -105.49561005 27.14437002 -99.625 25.1875 C-99.625 24.5275 -99.625 23.8675 -99.625 23.1875 C-99.11453125 22.96835938 -98.6040625 22.74921875 -98.078125 22.5234375 C-93.62642979 20.58174065 -89.30166328 18.50575026 -85 16.25 C-78.11351496 12.78932334 -70.99545538 10.3641604 -63.625 8.1875 C-62.41457031 7.8265625 -61.20414063 7.465625 -59.95703125 7.09375 C-48.0354193 3.83229347 -35.8900315 2.51236606 -23.625 1.1875 C-22.80950684 1.08961182 -21.99401367 0.99172363 -21.15380859 0.89086914 C-14.10327092 0.08814187 -7.09154696 -0.00379557 0 0 Z " fill="#60AC6B" transform="translate(373.625,85.8125)"/>
<path d="M0 0 C3.68207034 2.24365408 7.07354188 4.68082274 9.83984375 8.0234375 C9.83984375 8.6834375 9.83984375 9.3434375 9.83984375 10.0234375 C10.97679687 10.12140625 12.11375 10.219375 13.28515625 10.3203125 C27.15441169 11.61998914 39.51168449 15.02811045 52.5859375 19.875 C55.97186126 21.07003192 59.38197559 22.05902612 62.83984375 23.0234375 C63.82984375 23.3534375 64.81984375 23.6834375 65.83984375 24.0234375 C65.83984375 24.6834375 65.83984375 25.3434375 65.83984375 26.0234375 C66.70609375 26.2915625 67.57234375 26.5596875 68.46484375 26.8359375 C71.75776339 27.99455737 74.7511225 29.40553589 77.83984375 31.0234375 C77.83984375 31.6834375 77.83984375 32.3434375 77.83984375 33.0234375 C78.95359375 33.1059375 80.06734375 33.1884375 81.21484375 33.2734375 C82.41109375 33.5209375 83.60734375 33.7684375 84.83984375 34.0234375 C85.52354825 35.34811496 86.18948561 36.68207383 86.83984375 38.0234375 C90.38572876 39.32264496 90.38572876 39.32264496 93.83984375 40.0234375 C94.16984375 41.3434375 94.49984375 42.6634375 94.83984375 44.0234375 C92.80024898 44.53182314 90.75805237 45.02977636 88.71484375 45.5234375 C87.57789063 45.801875 86.4409375 46.0803125 85.26953125 46.3671875 C74.47757474 48.43216323 66.00330488 43.39003023 56.8359375 38.14453125 C49.93191409 34.26692906 42.39384876 32.26124049 34.83984375 30.0234375 C34.83984375 29.3634375 34.83984375 28.7034375 34.83984375 28.0234375 C33.51533203 27.84167969 33.51533203 27.84167969 32.1640625 27.65625 C24.68638803 26.61210641 17.25500784 25.44593837 9.83984375 24.0234375 C8.73378108 26.21689511 7.66514358 28.40961683 6.65234375 30.6484375 C4.10039354 33.99237226 1.92214186 34.27501618 -2.16015625 35.0234375 C-8.11750629 35.67333023 -12.23146591 34.22708622 -17.16015625 31.0234375 C-18.89453125 29.51171875 -18.89453125 29.51171875 -20.16015625 28.0234375 C-20.16015625 27.3634375 -20.16015625 26.7034375 -20.16015625 26.0234375 C-24.97628897 26.09356219 -29.7916531 26.18207925 -34.60717773 26.28588867 C-36.23697188 26.31864113 -37.86686601 26.34681774 -39.49682617 26.36987305 C-49.69641927 26.51787579 -59.43293279 27.29655815 -69.44628906 29.28759766 C-73.86092345 30.16228264 -78.29144188 30.83695653 -82.7421875 31.49609375 C-85.17861085 32.02746233 -86.95342642 32.89166913 -89.16015625 34.0234375 C-90.73174503 34.44495635 -92.31644707 34.8203209 -93.91015625 35.1484375 C-94.709375 35.31601563 -95.50859375 35.48359375 -96.33203125 35.65625 C-96.9353125 35.77742188 -97.53859375 35.89859375 -98.16015625 36.0234375 C-95.21893334 42.65071244 -90.64813861 48.61957236 -84.16015625 52.0234375 C-77.00895943 53.87366779 -69.55073254 53.5430059 -62.22216797 53.31323242 C-58.76991935 53.21048401 -55.32855499 53.21064225 -51.875 53.22460938 C-49.67049403 53.19872709 -47.46604698 53.16703107 -45.26171875 53.12890625 C-44.23664215 53.12739059 -43.21156555 53.12587494 -42.15542603 53.12431335 C-36.80193684 52.97318846 -36.80193684 52.97318846 -32.24530029 50.46206665 C-30.64228036 48.63028328 -30.64228036 48.63028328 -29.37533569 46.71113586 C-28.16015625 45.0234375 -28.16015625 45.0234375 -25.16015625 43.0234375 C-10.52044102 41.20465414 -10.52044102 41.20465414 -5.9296875 44.7421875 C-4.22490312 47.50183846 -3.16015625 49.75616556 -3.16015625 53.0234375 C-2.50015625 53.0234375 -1.84015625 53.0234375 -1.16015625 53.0234375 C1.15220865 57.64816731 0.2347618 63.57080292 -1.34765625 68.3359375 C-3.26116813 72.85470029 -6.15593118 74.87816603 -10.34765625 77.2734375 C-15.81075168 78.73026295 -21.0909673 78.68713962 -26.47265625 76.9609375 C-29.11218804 75.05801923 -29.68579412 74.20835603 -31.18920898 71.5065918 C-32.77474395 69.24958002 -33.70653352 68.19471751 -36.306427 67.21304321 C-39.01007718 66.74483899 -41.64281333 66.506749 -44.3828125 66.35546875 C-45.38619659 66.28881516 -46.38958069 66.22216156 -47.42337036 66.15348816 C-50.69121323 65.98112296 -53.95086231 65.89429593 -57.22265625 65.8359375 C-58.34580231 65.80830322 -59.46894836 65.78066895 -60.62612915 65.75219727 C-74.72582394 65.29403757 -74.72582394 65.29403757 -87.20800781 70.80224609 C-91.23177733 74.81224169 -94.47876249 79.42265926 -97.78433228 84.0227356 C-102.36168476 90.12038302 -106.91084011 95.01772389 -114.54669189 96.82495117 C-124.30161828 98.16851797 -134.08626599 98.10063529 -143.91015625 97.7734375 C-144.63084164 97.74946899 -145.35152702 97.72550049 -146.09405136 97.70080566 C-155.1334718 97.3773214 -164.14846206 96.80758216 -173.16015625 96.0234375 C-173.35351562 96.62454346 -173.546875 97.22564941 -173.74609375 97.8449707 C-174.00648438 98.64249756 -174.266875 99.44002441 -174.53515625 100.26171875 C-174.79039062 101.04844971 -175.045625 101.83518066 -175.30859375 102.64575195 C-176.1250332 104.92536888 -177.08228643 107.04480744 -178.16015625 109.2109375 C-180.50641031 114.27060751 -181.43817514 119.52473953 -182.44921875 124.984375 C-183.16015625 128.0234375 -183.16015625 128.0234375 -185.16015625 131.0234375 C-186.81346012 136.66412128 -187.64580175 142.17603898 -188.16015625 148.0234375 C-187.5465625 148.3121875 -186.93296875 148.6009375 -186.30078125 148.8984375 C-183.73150419 150.24871449 -182.06549234 151.84591054 -180.16015625 154.0234375 C-180.16015625 154.6834375 -180.16015625 155.3434375 -180.16015625 156.0234375 C-179.50015625 156.0234375 -178.84015625 156.0234375 -178.16015625 156.0234375 C-177.71544019 163.54655088 -177.45700086 168.92204672 -182.16015625 175.0234375 C-186.68029441 179.21283384 -189.9579989 180.17304999 -196.03515625 180.2109375 C-197.06382812 180.22511719 -198.0925 180.23929688 -199.15234375 180.25390625 C-203.568593 179.91551832 -206.25301641 178.95649562 -209.34765625 175.7734375 C-212.82412004 170.49880279 -213.93906968 165.30342701 -213.16015625 159.0234375 C-211.49259163 153.84521053 -209.36857642 150.49538414 -205.16015625 147.0234375 C-204.17015625 147.0234375 -203.18015625 147.0234375 -202.16015625 147.0234375 C-202.12277344 146.14042969 -202.08539063 145.25742188 -202.046875 144.34765625 C-201.68222243 137.69095931 -201.0560871 131.53703391 -199.11328125 125.15625 C-198.34067709 122.61678878 -197.63371803 120.08130733 -196.95703125 117.515625 C-196.74336914 116.71415039 -196.52970703 115.91267578 -196.30957031 115.08691406 C-195.88525965 113.49367537 -195.46515215 111.89930974 -195.04980469 110.30371094 C-193.90514105 106.08701261 -192.57602862 102.71435362 -190.16015625 99.0234375 C-189.66515625 97.5384375 -189.66515625 97.5384375 -189.16015625 96.0234375 C-188.50015625 96.0234375 -187.84015625 96.0234375 -187.16015625 96.0234375 C-186.83015625 94.7859375 -186.50015625 93.5484375 -186.16015625 92.2734375 C-183.99044087 85.78466428 -180.14819244 80.52242365 -176.16015625 75.0234375 C-175.29970703 73.82267578 -175.29970703 73.82267578 -174.421875 72.59765625 C-165.90084373 61.35594094 -155.45291471 51.06701864 -144.09765625 42.7109375 C-143.50331787 42.27338135 -142.90897949 41.8358252 -142.29663086 41.38500977 C-138.42107652 38.64762329 -134.5739111 36.76347547 -130.16015625 35.0234375 C-128.70609375 34.435625 -128.70609375 34.435625 -127.22265625 33.8359375 C-126.54203125 33.5678125 -125.86140625 33.2996875 -125.16015625 33.0234375 C-125.16015625 32.3634375 -125.16015625 31.7034375 -125.16015625 31.0234375 C-121.86015625 30.3634375 -118.56015625 29.7034375 -115.16015625 29.0234375 C-114.66515625 27.5384375 -114.66515625 27.5384375 -114.16015625 26.0234375 C-112.515625 25.1796875 -112.515625 25.1796875 -110.34765625 24.5234375 C-109.54070312 24.27722656 -108.73375 24.03101562 -107.90234375 23.77734375 C-103.91256909 22.68043989 -99.90123271 21.6848745 -95.87890625 20.71484375 C-93.05506117 20.04019641 -93.05506117 20.04019641 -89.97265625 18.8984375 C-86.08899236 17.69018651 -82.20099092 17.36466354 -78.16015625 17.0234375 C-78.16015625 16.3634375 -78.16015625 15.7034375 -78.16015625 15.0234375 C-59.40789575 12.31827947 -41.09889164 11.8902393 -22.16015625 12.0234375 C-22.03108887 11.23936523 -21.90202148 10.45529297 -21.76904297 9.64746094 C-21.00985738 6.37571807 -19.84388263 5.39165054 -17.28515625 3.2734375 C-16.23714844 2.38398437 -16.23714844 2.38398437 -15.16796875 1.4765625 C-10.69243445 -1.76254015 -5.00032171 -2.26054327 0 0 Z " fill="#74B362" transform="translate(255.16015625,31.9765625)"/>
<path d="M0 0 C2.31 0.33 4.62 0.66 7 1 C7 1.66 7 2.32 7 3 C7.65484375 3.12375 8.3096875 3.2475 8.984375 3.375 C12.76396386 4.15833448 16.50415022 5.07027469 20.25 6 C21.34828125 6.26683594 21.34828125 6.26683594 22.46875 6.5390625 C27.88246613 7.88246613 27.88246613 7.88246613 29 9 C30.34747084 9.23075082 31.70377565 9.41153063 33.0625 9.5625 C34.361875 9.706875 35.66125 9.85125 37 10 C37 10.66 37 11.32 37 12 C39.97 12.33 42.94 12.66 46 13 C46.33 11.68 46.66 10.36 47 9 C50.48976137 5.51023863 55.19457587 4.88383056 60 4.6875 C66.20055099 4.91449512 70.57750087 7.22876592 74.9375 11.5625 C78.08858281 15.45501407 78.98422215 18.47614919 78.63671875 23.45703125 C77.51691875 27.9293613 75.13151407 31.64132947 72 35 C71.34 35 70.68 35 70 35 C70 35.66 70 36.32 70 37 C66.61975332 39.042739 63.98164934 39.26976872 60.0625 39.25 C59.04285156 39.25515625 58.02320313 39.2603125 56.97265625 39.265625 C51.52291578 38.77865739 48.67597013 36.92948531 45 33 C44.01 32.505 44.01 32.505 43 32 C43 30.68 43 29.36 43 28 C41.7625 27.5978125 41.7625 27.5978125 40.5 27.1875 C38.00712422 26.34170286 35.57467711 25.45372804 33.125 24.5 C29.14430355 22.98610579 25.14660828 21.96260549 21 21 C21.71198798 23.38137256 22.44365299 25.75357131 23.1875 28.125 C23.48237305 29.12273437 23.48237305 29.12273437 23.78320312 30.140625 C25.36744022 35.11269218 27.55872589 38.094427 31 42 C32.23046875 44.31640625 32.23046875 44.31640625 33.1875 46.5625 C40.96331938 62.59265072 55.3258083 76.52693573 69.92724609 86.42993164 C76.18328937 90.69816475 81.56464462 95.7471456 87 101 C87.72832031 101.68835938 88.45664063 102.37671875 89.20703125 103.0859375 C95.26664798 108.94237182 100.57317607 115.47400613 105.65625 122.1875 C109.07239806 126.54854008 111.47630254 127.69439878 117 129 C120.81500011 131.51443189 122.96463175 133.92926349 125 138 C125.95047687 143.14409603 126.05884893 147.86865518 125 153 C121.69617866 157.14912338 117.70058705 159.64970648 113 162 C107.47376955 162.5046408 102.60306469 162.78695903 97.5625 160.3125 C96.2940625 159.1678125 96.2940625 159.1678125 95 158 C93.576875 157.071875 93.576875 157.071875 92.125 156.125 C88.61167024 150.95833859 89.33370747 145.05975522 90 139 C91.02734375 136.0625 91.02734375 136.0625 92 134 C92.66 134 93.32 134 94 134 C92.49277185 128.58863226 88.79886992 125.23942171 85 121.3125 C84.32227539 120.60351562 83.64455078 119.89453125 82.94628906 119.1640625 C81.58953662 117.7486571 80.22924932 116.33663057 78.86523438 114.92822266 C77.28962412 113.29940462 75.72793784 111.65914569 74.171875 110.01171875 C69.39144609 105.05395134 64.41106725 100.94471828 58.78515625 96.98046875 C49.34520302 90.26790733 41.59366299 82.65819518 34 74 C32.97519531 72.86304688 32.97519531 72.86304688 31.9296875 71.703125 C22 60.61282468 22 60.61282468 22 57 C20.515 56.505 20.515 56.505 19 56 C17.9375 54.109375 17.9375 54.109375 17 51.75 C15.99124932 49.2449358 14.9935432 46.98960227 13.56640625 44.69140625 C11.60120169 41.31478296 10.2832693 37.84620272 8.9375 34.1875 C8.68162109 33.51396484 8.42574219 32.84042969 8.16210938 32.14648438 C6.66052206 28.11265726 5.46999425 24.099201 4.47583008 19.9128418 C3.47638 15.89504224 2.09488511 11.98258783 0.8046875 8.05078125 C0.05302136 5.20101786 -0.1628486 2.9258465 0 0 Z " fill="#45A2A0" transform="translate(57,239)"/>
<path d="M0 0 C2.375 1.0625 2.375 1.0625 4 3 C4.47904581 6.28944791 4.77080109 8.81126789 2.90087891 11.69506836 C1.38331804 13.37731589 -0.20109418 14.91106643 -1.875 16.4375 C-2.43058594 16.97826172 -2.98617187 17.51902344 -3.55859375 18.07617188 C-7.67588496 22 -7.67588496 22 -10 22 C-10 24.97 -10 27.94 -10 31 C7.49 31 24.98 31 43 31 C43.99 28.525 43.99 28.525 45 26 C48.25941911 22.08869707 50.5925297 21.22489386 55.55078125 20.76171875 C62.02062535 20.58784741 65.79271112 21.06796554 71 25 C75.34857626 29.80632113 76.26301621 33.02138321 76.4375 39.375 C76.48326172 40.04789063 76.52902344 40.72078125 76.57617188 41.4140625 C76.62109375 43.3984375 76.62109375 43.3984375 76 47 C73.03515625 49.2890625 73.03515625 49.2890625 70 51 C69.67 51.99 69.34 52.98 69 54 C64.21101658 56.27476712 59.20603238 56.86180941 54 56 C49.89776899 54.27649322 46.74613268 52.4879423 44.717453 48.44233704 C43.24489883 45.79441147 43.24489883 45.79441147 40.62715149 45.36076355 C39.69227402 45.35410172 38.75739655 45.34743988 37.79418945 45.34057617 C36.73331619 45.32093307 35.67244293 45.30128998 34.579422 45.28105164 C33.43559555 45.28498428 32.2917691 45.28891693 31.11328125 45.29296875 C29.94113571 45.27784744 28.76899017 45.26272614 27.56132507 45.24714661 C23.81152357 45.20410287 20.06252446 45.19541499 16.3125 45.1875 C13.77276487 45.16436885 11.23304902 45.13900643 8.69335938 45.11132812 C2.46179721 45.04410303 -3.76749861 45.02331095 -10 45 C-10 55.56 -10 66.12 -10 77 C0.23 77 10.46 77 21 77 C21.495 75.02 21.495 75.02 22 73 C25.86881156 68.35742613 29.15171431 66.52931811 35.1015625 65.7109375 C41.29904854 65.30629065 45.21232097 67.15469219 50 71 C52.34268506 73.08421981 52.97266021 73.91798064 54 77 C54.09398229 78.81054127 54.12991987 80.62452781 54.125 82.4375 C54.12886719 83.85869141 54.12886719 83.85869141 54.1328125 85.30859375 C54.01473475 87.70140459 53.68112635 89.71336153 53 92 C52.34 92 51.68 92 51 92 C50.7525 92.598125 50.505 93.19625 50.25 93.8125 C48.22423998 97.35758004 45.82005844 98.72664719 42 100 C30.69373336 100.9952125 30.69373336 100.9952125 26.375 98.1875 C24 96 24 96 22 93 C20.13912679 92.54681539 20.13912679 92.54681539 17.98095703 92.61523438 C16.7392424 92.60006775 16.7392424 92.60006775 15.47244263 92.58459473 C14.57661469 92.58761597 13.68078674 92.59063721 12.7578125 92.59375 C11.8378952 92.58291382 10.91797791 92.57207764 9.97018433 92.56091309 C7.02171839 92.52654977 4.07364016 92.51104 1.125 92.5 C-2.74777005 92.48544785 -6.61967149 92.45177168 -10.4921875 92.40625 C-11.82985672 92.41078186 -11.82985672 92.41078186 -13.19454956 92.41540527 C-14.02866364 92.40529419 -14.86277771 92.39518311 -15.72216797 92.38476562 C-16.4533786 92.38271118 -17.18458923 92.38065674 -17.93795776 92.37854004 C-20.77585484 91.85757221 -22.02992936 91.12617405 -24 89 C-24.53485107 85.91497803 -24.53485107 85.91497803 -24.58105469 82.06933594 C-24.60120636 81.01752892 -24.60120636 81.01752892 -24.62176514 79.94447327 C-24.65978734 77.62415271 -24.66757657 75.30498779 -24.671875 72.984375 C-24.68473041 71.36874924 -24.69818709 69.75312817 -24.71221924 68.13751221 C-24.73618254 64.74797788 -24.74357959 61.35885136 -24.74121094 57.96923828 C-24.7408052 53.63625237 -24.79532093 49.30590003 -24.86429977 44.97353745 C-24.90890399 41.63444146 -24.91688411 38.29597497 -24.91477203 34.95661163 C-24.91947757 33.36022137 -24.93708972 31.76381293 -24.9681015 30.16771698 C-25.18782765 17.68655802 -25.18782765 17.68655802 -22.24337769 13.50582886 C-20.24461594 11.74637649 -18.27314641 10.3743329 -16 9 C-14.52303213 7.56054242 -13.05972118 6.10656922 -11.625 4.625 C-7.72608913 0.60182105 -5.74760403 -0.45980832 0 0 Z " fill="#5AA877" transform="translate(118,137)"/>
<path d="M0 0 C4.11516676 2.17961936 8.85981972 4.71963944 11 9 C25.85 9.33 40.7 9.66 56 10 C54.86314577 13.41056269 53.84668031 14.19934165 51.125 16.4375 C48.0822845 18.9132614 48.0822845 18.9132614 45.84399414 22.07543945 C43.5441087 24.47580976 41.8734472 24.50877789 38.6287384 24.60565186 C37.92238754 24.60688049 37.21603668 24.60810913 36.48828125 24.609375 C35.76005661 24.62591125 35.03183197 24.64244751 34.28153992 24.65948486 C31.95844135 24.70802197 29.6359975 24.72934669 27.3125 24.75 C25.73629508 24.77815518 24.16012074 24.80808199 22.58398438 24.83984375 C18.72271017 24.91378144 14.86180061 24.96332032 11 25 C10.740979 25.56009766 10.48195801 26.12019531 10.21508789 26.69726562 C9.86696045 27.42623047 9.51883301 28.15519531 9.16015625 28.90625 C8.81863525 29.63134766 8.47711426 30.35644531 8.12524414 31.10351562 C7 33 7 33 4.4375 34.5 C-8.53437595 36.38681832 -8.53437595 36.38681832 -14 33 C-18.36128495 29.05407552 -20.73854538 26.43840838 -21.37109375 20.5390625 C-21.5725088 8.66742272 -21.5725088 8.66742272 -18.875 5.25 C-12.90746867 0.57975809 -7.58224247 -1.59393126 0 0 Z " fill="#69AD6B" transform="translate(176,117)"/>
<path d="M0 0 C1.94447856 1.77129443 3.79834427 3.60516271 5.64208984 5.48095703 C6.29564453 6.11066406 6.94919922 6.74037109 7.62255859 7.38916016 C8.23486328 8.00339844 8.84716797 8.61763672 9.47802734 9.25048828 C10.03796387 9.80969971 10.59790039 10.36891113 11.17480469 10.94506836 C12.26708984 12.66845703 12.26708984 12.66845703 12.1105957 14.59790039 C8.78371047 22.76441664 2.14291545 30.67569605 -5.63977051 34.85626221 C-19.1372009 40.09363044 -37.62116358 36.8068728 -51.73291016 35.66845703 C-50.88770821 31.43341373 -48.70262134 29.04654723 -45.79541016 25.98095703 C-45.30032959 25.45276367 -44.80524902 24.92457031 -44.29516602 24.38037109 C-25.06873069 4.10845428 -25.06873069 4.10845428 -13.73291016 1.66845703 C-13.23791016 1.17345703 -12.74291016 0.67845703 -12.23291016 0.16845703 C-8.69499762 -3.36945551 -3.84641198 -2.95552704 0 0 Z " fill="#F6F9F6" transform="translate(145.73291015625,78.33154296875)"/>
<path d="M0 0 C0.33 0 0.66 0 1 0 C0.94763184 1.31081543 0.89526367 2.62163086 0.84130859 3.97216797 C0.65920733 8.87299308 0.54512182 13.77352509 0.45068359 18.67675781 C0.4006394 20.79152841 0.33257707 22.90595725 0.24560547 25.01953125 C-0.74920553 37.1846002 -0.74920553 37.1846002 3.24853516 48.16259766 C5.04508989 49.70919695 6.87900234 51.21370523 8.75146484 52.66748047 C11.76166855 55.79011741 11.80038939 57.81580209 11.9765625 62.1015625 C11.91086383 64.61125175 11.79268412 67.12005719 11.625 69.625 C11.57988281 70.91535156 11.53476563 72.20570313 11.48828125 73.53515625 C11.37124855 76.69503908 11.20760827 79.84499303 11 83 C10.01 83.495 10.01 83.495 9 84 C8.01 83.34 7.02 82.68 6 82 C6.495 81.01 6.495 81.01 7 80 C7.66 80.33 8.32 80.66 9 81 C10.30380507 65.72448743 10.30380507 65.72448743 5.70703125 51.99609375 C4.33611328 51.03896484 4.33611328 51.03896484 2.9375 50.0625 C-0.19527191 47.74308684 -1.78480767 46.16689979 -2.50146484 42.28076172 C-3.4982854 28.25513515 -2.03329792 13.88815094 0 0 Z " fill="#6EB6B6" transform="translate(219,303)"/>
<path d="M0 0 C20.46 0 40.92 0 62 0 C61.67 0.66 61.34 1.32 61 2 C59.92005013 2.0154612 59.92005013 2.0154612 58.81828308 2.03123474 C52.03499673 2.12919135 45.25179289 2.23170327 38.46865368 2.33933926 C34.9813316 2.39451576 31.49400105 2.44792726 28.0065918 2.49731445 C23.99779153 2.55416255 19.98914643 2.61867048 15.98046875 2.68359375 C14.72727341 2.70030624 13.47407806 2.71701874 12.1829071 2.73423767 C10.44144157 2.7641555 10.44144157 2.7641555 8.66479492 2.79467773 C7.64109299 2.81022202 6.61739105 2.8257663 5.56266785 2.84178162 C2.87992024 2.89715622 2.87992024 2.89715622 0 4 C0 4.66 0 5.32 0 6 C-0.66 6 -1.32 6 -2 6 C-1.34 4.02 -0.68 2.04 0 0 Z " fill="#D6E9D9" transform="translate(82,128)"/>
<path d="M0 0 C0.99 0.66 1.98 1.32 3 2 C3.375 5.5 3.375 5.5 3 9 C-0.46923881 11.31282587 -1.92205575 11.42478586 -6 11 C-7.875 9.875 -7.875 9.875 -9 8 C-9.1875 4.8125 -9.1875 4.8125 -9 2 C-5.87350101 0.14725986 -3.62683775 -0.37198336 0 0 Z " fill="#F8FAF9" transform="translate(158,215)"/>
<path d="M0 0 C1.8125 1.125 1.8125 1.125 3 3 C3.39769128 6.18153026 3.55198782 8.12844028 1.8125 10.875 C-0.65507108 12.40659584 -2.14519831 12.42822025 -5 12 C-6.8125 10.875 -6.8125 10.875 -8 9 C-8.39769128 5.81846974 -8.55198782 3.87155972 -6.8125 1.125 C-4.34492892 -0.40659584 -2.85480169 -0.42822025 0 0 Z " fill="#E6F3F5" transform="translate(239,418)"/>
<path d="M0 0 C1.8125 1.125 1.8125 1.125 3 3 C3.3125 6.0625 3.3125 6.0625 3 9 C1 11 1 11 -0.91015625 11.23046875 C-6.88888889 11.11111111 -6.88888889 11.11111111 -8 10 C-8.4626087 3.75478261 -8.4626087 3.75478261 -6.8125 1.0625 C-4.33950907 -0.38718434 -2.82115488 -0.42317323 0 0 Z " fill="#E5F1E8" transform="translate(179,169)"/>
<path d="M0 0 C3.0625 0.25 3.0625 0.25 6.0625 2.25 C6.46214378 5.3805429 6.58399743 7.38083761 4.9375 10.125 C2.24532457 11.74030526 0.14096795 11.51199727 -2.9375 11.25 C-3.5975 10.92 -4.2575 10.59 -4.9375 10.25 C-5.1328125 4.1953125 -5.1328125 4.1953125 -4.9375 2.25 C-2.9375 0.25 -2.9375 0.25 0 0 Z " fill="#EBF4E7" transform="translate(236.9375,86.75)"/>
<path d="M0 0 C3.0625 0.3125 3.0625 0.3125 4.9375 1.5 C6.46909584 3.96757108 6.49072025 5.45769831 6.0625 8.3125 C4.9375 10.125 4.9375 10.125 3.0625 11.3125 C0 11.625 0 11.625 -2.9375 11.3125 C-4.9375 9.3125 -4.9375 9.3125 -5.1875 5.8125 C-4.87458101 1.43163414 -4.40975115 0.46912246 0 0 Z " fill="#E6F2E7" transform="translate(170.9375,128.6875)"/>
<path d="M0 0 C3.0625 0.3125 3.0625 0.3125 4.9375 1.5 C6.46909584 3.96757108 6.49072025 5.45769831 6.0625 8.3125 C4.9375 10.125 4.9375 10.125 3.0625 11.3125 C0 11.6875 0 11.6875 -2.9375 11.3125 C-5.23913882 7.86004176 -5.28240322 6.36511287 -4.9375 2.3125 C-2.9375 0.3125 -2.9375 0.3125 0 0 Z " fill="#E9F3EE" transform="translate(58.9375,189.6875)"/>
<path d="M0 0 C0.99 0.66 1.98 1.32 3 2 C3.40373601 5.16259871 3.54458662 7.14012639 1.8125 9.875 C-0.65507108 11.40659584 -2.14519831 11.42822025 -5 11 C-6.875 9.9375 -6.875 9.9375 -8 8 C-7.8125 4.375 -7.8125 4.375 -7 1 C-4.47454232 -0.26272884 -2.80127043 -0.20497101 0 0 Z " fill="#F2F8ED" transform="translate(252,44)"/>
<path d="M0 0 C3 0.25 3 0.25 5 2.25 C5.25 5.75 5.25 5.75 5 9.25 C3 11.25 3 11.25 0 11.5625 C-0.99 11.459375 -1.98 11.35625 -3 11.25 C-5.30163882 7.79754176 -5.34490322 6.30261287 -5 2.25 C-3 0.25 -3 0.25 0 0 Z " fill="#E9F5F6" transform="translate(164,377.75)"/>
<path d="M0 0 C2 2 2 2 2.25 5 C2 8 2 8 0 10 C-3 10.25 -3 10.25 -6 10 C-6.66 9.34 -7.32 8.68 -8 8 C-7.75 4.4375 -7.75 4.4375 -7 1 C-4.48718205 -0.25640898 -2.78302919 -0.20872719 0 0 Z " fill="#F3F8F6" transform="translate(120,256)"/>
<path d="M0 0 C0.99 0.33 1.98 0.66 3 1 C2.41457824 4.62636257 0.97353457 6.45885414 -1.5 9.125 C-5.76742802 13.75970666 -6.21316983 16.20756363 -6.16796875 22.4453125 C-5.96461007 25.53825614 -5.20021201 28.14949648 -4 31 C-4.66 31 -5.32 31 -6 31 C-9.6320163 24.9466395 -9.47776821 20.07895069 -8.4375 13.375 C-6.76142536 9.43986823 -4.88686433 7.88314678 -1.4609375 5.45703125 C-0.97882813 4.97621094 -0.49671875 4.49539063 0 4 C0 2.68 0 1.36 0 0 Z " fill="#6DBACC" transform="translate(227,404)"/>
<path d="M0 0 C0.66 0.33 1.32 0.66 2 1 C-1.64800349 5.01742156 -5.31340442 9.01795844 -9 13 C-9.69738281 13.75410156 -10.39476562 14.50820312 -11.11328125 15.28515625 C-14.17917375 18.4870085 -16.59245159 20.79794134 -21 22 C-16.61557474 16.74825074 -11.99157907 11.86777527 -7.125 7.0625 C-6.43664062 6.37865234 -5.74828125 5.69480469 -5.0390625 4.99023438 C-3.36166489 3.32448536 -1.68196209 1.6611378 0 0 Z " fill="#86BF82" transform="translate(290,171)"/>
<path d="M0 0 C0.66 0.33 1.32 0.66 2 1 C-4.3311237 8.10032564 -10.69658097 14.86873464 -18 21 C-18 18 -18 18 -16.34765625 16.00708008 C-15.21650391 14.89949341 -15.21650391 14.89949341 -14.0625 13.76953125 C-13.25039062 12.96708984 -12.43828125 12.16464844 -11.6015625 11.33789062 C-10.74304688 10.50451172 -9.88453125 9.67113281 -9 8.8125 C-7.71222656 7.5450293 -7.71222656 7.5450293 -6.3984375 6.25195312 C-4.2721635 4.16111702 -2.13921536 2.07758017 0 0 Z " fill="#83BE81" transform="translate(103,81)"/>
<path d="M0 0 C-0.61875 0.28875 -1.2375 0.5775 -1.875 0.875 C-4.13325765 1.93720042 -4.13325765 1.93720042 -6 4 C-6 5.32 -6 6.64 -6 8 C-3.69 8 -1.38 8 1 8 C1.33 6.02 1.66 4.04 2 2 C2.33 2 2.66 2 3 2 C3.1875 5.375 3.1875 5.375 3 9 C-0.46923881 11.31282587 -1.92205575 11.42478586 -6 11 C-7.875 9.875 -7.875 9.875 -9 8 C-9.1875 4.8125 -9.1875 4.8125 -9 2 C-5.86501708 0.14223235 -3.62528568 -0.20140476 0 0 Z " fill="#C4E0D1" transform="translate(158,215)"/>
<path d="M0 0 C0.66 0.33 1.32 0.66 2 1 C-2.76008307 6.5930976 -7.74595676 11.86877855 -13 17 C-13.66 16.34 -14.32 15.68 -15 15 C-10.05 10.05 -5.1 5.1 0 0 Z " fill="#74B684" transform="translate(110,138)"/>
<path d="M0 0 C1.29653752 4.34778749 0.78866917 7.55477379 0 12 C-0.66 12.66 -1.32 13.32 -2 14 C-2.4657363 16.55867474 -2.83484248 19.04687908 -3.125 21.625 C-3.21136719 22.33140625 -3.29773438 23.0378125 -3.38671875 23.765625 C-3.59881183 25.50950141 -3.80040991 27.2546484 -4 29 C-4.33 29 -4.66 29 -5 29 C-4.73414947 18.64512192 -3.6070373 9.79771993 0 0 Z " fill="#A8D2C4" transform="translate(225,274)"/>
<path d="M0 0 C1.73030291 0.28484846 3.45920714 0.57819938 5.1875 0.875 C6.15042969 1.03742188 7.11335938 1.19984375 8.10546875 1.3671875 C10.91032604 1.98039517 13.37224747 2.85666343 16 4 C12.45332822 5.25127906 10.27746562 4.72285053 6.75 3.5625 C5.85796875 3.27503906 4.9659375 2.98757813 4.046875 2.69140625 C3.37140625 2.46324219 2.6959375 2.23507812 2 2 C2.30035156 2.84304688 2.60070312 3.68609375 2.91015625 4.5546875 C3.29042969 5.65039062 3.67070313 6.74609375 4.0625 7.875 C4.44535156 8.96554687 4.82820313 10.05609375 5.22265625 11.1796875 C6 14 6 14 5 16 C2.38592128 10.63809899 0.50771472 5.96564796 0 0 Z " fill="#AFD5CB" transform="translate(78,260)"/>
<path d="M0 0 C0.33 0 0.66 0 1 0 C1 4.95 1 9.9 1 15 C0.01 15.33 -0.98 15.66 -2 16 C-4.42857143 9.71428571 -4.42857143 9.71428571 -3 6 C-2.67 6.99 -2.34 7.98 -2 9 C-1.34 6.03 -0.68 3.06 0 0 Z " fill="#B6D9D1" transform="translate(199,321)"/>
<path d="M0 0 C-1.54705733 3.09411467 -3.88071772 3.71558965 -7 5 C-8.33819343 4.68674733 -9.67130078 4.35135063 -11 4 C-13.37041609 4.09003157 -13.37041609 4.09003157 -15.75 4.4375 C-16.54921875 4.53933594 -17.3484375 4.64117187 -18.171875 4.74609375 C-18.77515625 4.82988281 -19.3784375 4.91367188 -20 5 C-16.67336847 1.67336847 -13.49940913 1.52321459 -9.0234375 1.2109375 C-5.79234031 0.87410497 -3.42030441 -0.09000801 0 0 Z " fill="#BBD9A0" transform="translate(353,132)"/>
<path d="M0 0 C-1.39412109 0.27263672 -1.39412109 0.27263672 -2.81640625 0.55078125 C-10.6632172 2.02548501 -10.6632172 2.02548501 -18.125 4.75 C-21 6 -21 6 -23.4375 5.6875 C-23.953125 5.460625 -24.46875 5.23375 -25 5 C-23.02 4.67 -21.04 4.34 -19 4 C-19 3.34 -19 2.68 -19 2 C-16.58525383 1.46839543 -14.16891893 0.94945234 -11.75 0.4375 C-11.06808594 0.28603516 -10.38617188 0.13457031 -9.68359375 -0.02148438 C-6.18230962 -0.75233495 -3.39701827 -1.32203546 0 0 Z " fill="#BCDBAC" transform="translate(177,49)"/>
<path d="M0 0 C0 0.66 0 1.32 0 2 C-4.85216111 3.9906302 -9.79512468 4.92200649 -15 4 C-16.76953125 2.48046875 -16.76953125 2.48046875 -18 1 C-16.51886719 1.01740234 -16.51886719 1.01740234 -15.0078125 1.03515625 C-13.72648438 1.04417969 -12.44515625 1.05320313 -11.125 1.0625 C-9.21074219 1.07990234 -9.21074219 1.07990234 -7.2578125 1.09765625 C-4.40918752 1.01226581 -2.70028927 0 0 0 Z " fill="#AAD2B4" transform="translate(187,189)"/>
<path d="M0 0 C0.99 0.33 1.98 0.66 3 1 C2.46324097 4.85103301 0.88399077 6.31797587 -2.0625 8.75 C-3.16271484 9.67039062 -3.16271484 9.67039062 -4.28515625 10.609375 C-4.85105469 11.06828125 -5.41695312 11.5271875 -6 12 C-6 11.01 -6 10.02 -6 9 C-5.01 8.195625 -4.02 7.39125 -3 6.5625 C-2.01 5.716875 -1.02 4.87125 0 4 C0 2.68 0 1.36 0 0 Z " fill="#64B5C7" transform="translate(227,404)"/>
<path d="M0 0 C2.57302076 6.86138869 -0.61234617 14.51278959 -3 21 C-5.06688097 13.8669296 -2.27210478 6.81631434 0 0 Z " fill="#90C5A9" transform="translate(192,216)"/>
<path d="M0 0 C0.66 0.33 1.32 0.66 2 1 C0.92173635 2.27513763 -0.16285519 3.54492569 -1.25 4.8125 C-1.85328125 5.52019531 -2.4565625 6.22789062 -3.078125 6.95703125 C-4.92370398 8.91889671 -6.79945332 10.45669625 -9 12 C-9.66 11.67 -10.32 11.34 -11 11 C-9.54782324 9.49403892 -8.08807139 7.99537896 -6.625 6.5 C-5.40683594 5.24703125 -5.40683594 5.24703125 -4.1640625 3.96875 C-2 2 -2 2 0 2 C0 1.34 0 0.68 0 0 Z " fill="#CDE6CD" transform="translate(269,172)"/>
<path d="M0 0 C-1.45537568 0.83848804 -2.91440373 1.67063934 -4.375 2.5 C-5.59316406 3.19609375 -5.59316406 3.19609375 -6.8359375 3.90625 C-9 5 -9 5 -11 5 C-10.375 3.125 -10.375 3.125 -9 1 C-5.36656983 -0.62344752 -3.82788944 -1.27596315 0 0 Z " fill="#EEF4E7" transform="translate(345,136)"/>
<path d="M0 0 C0.66 0.33 1.32 0.66 2 1 C1.07038578 2.15224028 0.1309875 3.29659176 -0.8125 4.4375 C-1.59560547 5.39462891 -1.59560547 5.39462891 -2.39453125 6.37109375 C-4 8 -4 8 -7 9 C-5.44499019 5.18315774 -2.96404505 2.80804268 0 0 Z " fill="#7DBB98" transform="translate(146,204)"/>
<path d="M0 0 C-1 3 -1 3 -3.9375 4.75 C-5.4534375 5.36875 -5.4534375 5.36875 -7 6 C-7.66 5.67 -8.32 5.34 -9 5 C-7.68 4.34 -6.36 3.68 -5 3 C-6.32 2.34 -7.64 1.68 -9 1 C-5.92677456 0.08941469 -3.19902639 -0.08886184 0 0 Z " fill="#8FC164" transform="translate(357,130)"/>
<path d="M0 0 C5.45479185 0.56820748 9.91059256 1.94637945 15 4 C15 4.66 15 5.32 15 6 C11.33827525 5.37321829 8.1181005 4.35548154 4.6875 2.9375 C3.36298828 2.39416016 3.36298828 2.39416016 2.01171875 1.83984375 C1.34785156 1.56269531 0.68398438 1.28554688 0 1 C0 0.67 0 0.34 0 0 Z " fill="#A7CD76" transform="translate(295,62)"/>
<path d="M0 0 C0.66 0.33 1.32 0.66 2 1 C-1.75 5.875 -1.75 5.875 -4 7 C-4.33 7.99 -4.66 8.98 -5 10 C-5.66 10 -6.32 10 -7 10 C-5.6062718 5.56541027 -3.39417765 3.12621626 0 0 Z " fill="#A4CE75" transform="translate(240,33)"/>
<path d="M0 0 C1.60372657 4.00931642 0.38691773 7.05823382 -1 11 C-1.66 11.66 -2.32 12.32 -3 13 C-2.88490339 11.58249437 -2.75746342 10.16598831 -2.625 8.75 C-2.55539063 7.96109375 -2.48578125 7.1721875 -2.4140625 6.359375 C-1.98492887 3.914123 -1.21399362 2.15163097 0 0 Z " fill="#9FCEBA" transform="translate(229,261)"/>
<path d="M0 0 C0.75 1.5625 0.75 1.5625 1 4 C-0.13084437 6.50286409 -1.52139516 8.67007722 -3 11 C-3.66 11 -4.32 11 -5 11 C-3.77472971 6.94718288 -2.30119506 3.55639236 0 0 Z " fill="#CAE3C5" transform="translate(393,199)"/>
<path d="M0 0 C1.18771723 3.42943519 0.80226223 5.37784675 -0.4375 8.75 C-0.86869141 9.94882813 -0.86869141 9.94882813 -1.30859375 11.171875 C-1.65083984 12.07679688 -1.65083984 12.07679688 -2 13 C-3.47717605 8.2771977 -2.18614967 4.37229933 0 0 Z " fill="#ACD3B7" transform="translate(73,149)"/>
<path d="M0 0 C0.33 0.99 0.66 1.98 1 3 C-0.98 4.98 -2.96 6.96 -5 9 C-5.99 8.67 -6.98 8.34 -8 8 C-7.50628906 7.59007812 -7.01257813 7.18015625 -6.50390625 6.7578125 C-5.86324219 6.21898437 -5.22257813 5.68015625 -4.5625 5.125 C-3.92441406 4.59132812 -3.28632813 4.05765625 -2.62890625 3.5078125 C-0.89194996 2.0777243 -0.89194996 2.0777243 0 0 Z " fill="#DBEBDB" transform="translate(232,127)"/>
<path d="M0 0 C2.31 0.33 4.62 0.66 7 1 C7 1.33 7 1.66 7 2 C5.35 2 3.7 2 2 2 C2 4.64 2 7.28 2 10 C1.67 10 1.34 10 1 10 C0.67 6.7 0.34 3.4 0 0 Z " fill="#A5D0C1" transform="translate(57,239)"/>
<path d="M0 0 C0.33 0 0.66 0 1 0 C1 4.95 1 9.9 1 15 C0.01 15.33 -0.98 15.66 -2 16 C-1.34 10.72 -0.68 5.44 0 0 Z " fill="#A7CFAF" transform="translate(193,169)"/>
<path d="M0 0 C1.98 0 3.96 0 6 0 C6.66 2.31 7.32 4.62 8 7 C7.01 6.67 6.02 6.34 5 6 C5 4.68 5 3.36 5 2 C3.35 1.67 1.7 1.34 0 1 C0 0.67 0 0.34 0 0 Z " fill="#92C5B6" transform="translate(95,265)"/>
<path d="M0 0 C0.33 1.32 0.66 2.64 1 4 C0.01 4.33 -0.98 4.66 -2 5 C-2.33 6.65 -2.66 8.3 -3 10 C-3.66 10 -4.32 10 -5 10 C-3.84414715 6.08788267 -2.64465038 3.1254959 0 0 Z " fill="#C3DFBF" transform="translate(387,210)"/>
<path d="M0 0 C0.66 0.33 1.32 0.66 2 1 C-2.625 6.875 -2.625 6.875 -6 8 C-4.55746343 4.63408134 -2.66735273 2.48952921 0 0 Z " fill="#7BBA97" transform="translate(50,179)"/>
<path d="M0 0 C0 0.33 0 0.66 0 1 C-2.64 1.66 -5.28 2.32 -8 3 C-8 3.66 -8 4.32 -8 5 C-8.66 5 -9.32 5 -10 5 C-9.625 3.0625 -9.625 3.0625 -9 1 C-6.04335481 -0.4783226 -3.25770263 -0.06032783 0 0 Z " fill="#DEEDE0" transform="translate(90,129)"/>
<path d="M0 0 C0.99 0.33 1.98 0.66 3 1 C3 1.99 3 2.98 3 4 C0.29120665 5.35439668 -2.00933268 5.06501451 -5 5 C-5 4.67 -5 4.34 -5 4 C-3.35 4 -1.7 4 0 4 C0 2.68 0 1.36 0 0 Z " fill="#A0C970" transform="translate(347,72)"/>
</svg>
