<?xml version="1.0" encoding="UTF-8"?>
<svg version="1.1" xmlns="http://www.w3.org/2000/svg" width="736" height="653">
    <path
        d="M0 0 C242.88 0 485.76 0 736 0 C736 215.49 736 430.98 736 653 C493.12 653 250.24 653 0 653 C0 437.51 0 222.02 0 0 Z "
        fill="#FAFBFA" transform="translate(0,0)" />
    <path
        d="M0 0 C2.55094057 0.01075212 5.10117962 0.00000677 7.65209961 -0.01269531 C18.39928728 -0.02044243 28.84703677 0.74936229 39.48608398 2.26074219 C40.05319173 60.55941894 40.05319173 60.55941894 31.48608398 86.26074219 C30.82608398 86.26074219 30.16608398 86.26074219 29.48608398 86.26074219 C29.33913086 87.29521484 29.33913086 87.29521484 29.18920898 88.35058594 C28.14050993 94.94111704 26.46900318 100.32137941 23.48608398 106.26074219 C22.89908702 107.48028489 22.31324907 108.70038581 21.72827148 109.92089844 C2.28762236 150.09466331 -27.30746835 178.091389 -68.51391602 195.26074219 C-69.12235352 195.5971875 -69.73079102 195.93363281 -70.35766602 196.28027344 C-72.9226905 197.44661609 -75.22508205 197.80465675 -78.01391602 198.19824219 C-83.32324117 199.01506144 -88.44219306 200.1814639 -93.62719727 201.57714844 C-101.25593177 203.38368232 -108.65574266 203.3808566 -116.45141602 203.32324219 C-117.6122168 203.31873047 -118.77301758 203.31421875 -119.96899414 203.30957031 C-122.81735817 203.29784865 -125.66560034 203.28055932 -128.51391602 203.26074219 C-129.81766309 215.7184398 -129.73796652 228.20648434 -129.83032227 240.71777344 C-129.85092823 243.07574294 -129.87192556 245.43370905 -129.89329529 247.79167175 C-129.94814017 253.9580712 -129.99771311 260.12450187 -130.04614258 266.29095459 C-130.09663436 272.59927099 -130.15217505 278.90754278 -130.20727539 285.21582031 C-130.31439633 297.56408938 -130.41594101 309.9123974 -130.51391602 322.26074219 C-129.36149414 322.68226563 -129.36149414 322.68226563 -128.18579102 323.11230469 C-124.78394471 324.57450178 -122.91234751 326.46257211 -120.51391602 329.26074219 C-119.40535115 332.44273392 -119.37979986 335.47305317 -119.38891602 338.82324219 C-119.38504883 340.24830078 -119.38504883 340.24830078 -119.38110352 341.70214844 C-119.51391602 344.26074219 -119.51391602 344.26074219 -120.51391602 347.26074219 C-121.17391602 347.26074219 -121.83391602 347.26074219 -122.51391602 347.26074219 C-122.78204102 347.85886719 -123.05016602 348.45699219 -123.32641602 349.07324219 C-124.99524318 352.14739749 -126.58385512 353.74100228 -129.63891602 355.44824219 C-134.9859461 356.95935938 -139.76492715 356.68291191 -145.13891602 355.38574219 C-150.34098 352.11036857 -154.59905898 347.20166481 -156.02172852 341.07324219 C-156.14373931 336.61113325 -155.25019059 332.33721294 -153.51391602 328.26074219 C-151.35694996 326.00414722 -149.0326439 324.09927885 -146.51391602 322.26074219 C-149.76331771 314.79915312 -156.53065053 308.89002672 -162.7447052 303.82752991 C-164.5309566 302.24565129 -166.00991796 300.59603144 -167.54394531 298.77026367 C-172.24099288 293.33852812 -177.32824169 288.30189692 -182.40844727 283.23339844 C-183.44754867 282.19362196 -184.48650172 281.15369721 -185.52531433 280.1136322 C-187.68615669 277.95132634 -189.84877038 275.79081264 -192.01269531 273.6315918 C-194.78801082 270.86201592 -197.55875434 268.08791603 -200.32822132 265.31249332 C-202.46505091 263.1720581 -204.60424652 261.03400037 -206.74417686 258.89666557 C-207.76759951 257.87390998 -208.79027992 256.85041111 -209.81220436 255.82615852 C-211.23355247 254.40227927 -212.65843794 252.9819337 -214.08349609 251.56176758 C-214.89289139 250.75316788 -215.70228668 249.94456818 -216.53620911 249.11146545 C-218.3822563 247.20798672 -218.3822563 247.20798672 -220.51391602 246.26074219 C-220.51391602 221.18074219 -220.51391602 196.10074219 -220.51391602 170.26074219 C-215.56391602 170.26074219 -210.61391602 170.26074219 -205.51391602 170.26074219 C-205.52551758 172.34459229 -205.53711914 174.42844238 -205.54907227 176.57543945 C-205.58165049 183.47670867 -205.57016838 190.37740496 -205.53726196 197.27865696 C-205.5186616 201.46128997 -205.51469465 205.64285016 -205.54467773 209.82543945 C-205.57309254 213.86553951 -205.56240485 217.90385196 -205.52511597 221.94386101 C-205.51769523 223.48154271 -205.52413448 225.01935851 -205.54495239 226.55691719 C-205.88403957 235.06177198 -205.88403957 235.06177198 -202.77983093 242.69549561 C-200.7755322 244.45727309 -198.76915667 245.84468922 -196.51391602 247.26074219 C-195.41087108 248.27727602 -194.32887218 249.31785216 -193.28344727 250.39355469 C-192.79038086 250.88984375 -192.29731445 251.38613281 -191.78930664 251.89746094 C-191.30655273 252.38859375 -190.82379883 252.87972656 -190.32641602 253.38574219 C-189.83206055 253.88460937 -189.33770508 254.38347656 -188.82836914 254.89746094 C-187.84992568 255.88492825 -186.8723674 256.87327355 -185.89575195 257.86254883 C-182.68893786 261.10732344 -179.45276502 264.32228886 -176.20922852 267.53027344 C-170.72884553 272.96190806 -165.29598845 278.35592598 -160.30297852 284.24511719 C-157.86427921 286.9926474 -155.29360507 289.59602371 -152.70141602 292.19824219 C-152.220354 292.68381592 -151.73929199 293.16938965 -151.24365234 293.66967773 C-148.62742223 296.29541496 -148.62742223 296.29541496 -145.51391602 298.26074219 C-144.21011095 282.98522962 -144.21011095 282.98522962 -148.80688477 269.25683594 C-149.72083008 268.61875 -150.63477539 267.98066406 -151.57641602 267.32324219 C-154.67513245 265.01578144 -156.29210869 263.44213079 -157.01538086 259.58984375 C-157.60297811 251.46872355 -157.07320771 243.36988799 -156.51391602 235.26074219 C-156.43488037 233.79677002 -156.43488037 233.79677002 -156.35424805 232.30322266 C-155.24082717 211.8637358 -150.28506983 191.46407791 -142.43579102 172.56542969 C-141.58550029 170.43970288 -140.8778319 168.32172035 -140.20141602 166.13574219 C-130.13017716 135.54502737 -109.50493926 110.21488335 -86.51391602 88.26074219 C-85.84360352 87.62007813 -85.17329102 86.97941406 -84.48266602 86.31933594 C-72.96192262 75.83444886 -59.82541614 67.25978502 -46.51391602 59.26074219 C-45.61543945 58.69613281 -44.71696289 58.13152344 -43.79125977 57.54980469 C-41.51391602 56.26074219 -41.51391602 56.26074219 -37.76391602 55.19824219 C-36.69141602 54.88886719 -35.61891602 54.57949219 -34.51391602 54.26074219 C-34.18391602 53.60074219 -33.85391602 52.94074219 -33.51391602 52.26074219 C-31.44750977 51.19042969 -31.44750977 51.19042969 -28.95141602 50.13574219 C-28.12512695 49.78253906 -27.29883789 49.42933594 -26.44750977 49.06542969 C-25.80942383 48.79988281 -25.17133789 48.53433594 -24.51391602 48.26074219 C-27.48391602 48.26074219 -30.45391602 48.26074219 -33.51391602 48.26074219 C-33.51391602 48.92074219 -33.51391602 49.58074219 -33.51391602 50.26074219 C-34.34793945 50.5146875 -35.18196289 50.76863281 -36.04125977 51.03027344 C-41.96622983 52.84237768 -47.86923111 54.67357094 -53.70922852 56.74511719 C-55.51391602 57.26074219 -55.51391602 57.26074219 -58.51391602 57.26074219 C-58.84391602 58.25074219 -59.17391602 59.24074219 -59.51391602 60.26074219 C-61.92797852 61.33105469 -61.92797852 61.33105469 -65.13891602 62.38574219 C-87.95801036 70.7652129 -108.08900362 88.85296346 -123.51391602 107.26074219 C-123.94414062 107.77330566 -124.37436523 108.28586914 -124.81762695 108.81396484 C-135.45229047 121.59593976 -143.32510587 135.40780534 -150.55981445 150.32617188 C-151.48805251 152.20830041 -152.4499833 154.06811839 -153.42797852 155.92480469 C-156.92232139 162.63096911 -159.65788284 169.13027021 -161.68969727 176.42089844 C-162.51391602 179.26074219 -162.51391602 179.26074219 -163.52563477 181.77636719 C-164.59799521 184.47210333 -165.32193539 187.13142974 -166.01391602 189.94824219 C-166.25110352 190.90085937 -166.48829102 191.85347656 -166.73266602 192.83496094 C-168.51546483 200.65253373 -169.91443205 208.48467659 -171.02172852 216.42480469 C-171.15207489 217.3428891 -171.28242126 218.26097351 -171.41671753 219.20687866 C-171.82678081 222.09946387 -172.232918 224.99258389 -172.63891602 227.88574219 C-172.91860289 229.8636437 -173.19854849 231.84150865 -173.47875977 233.81933594 C-174.16013285 238.63272104 -174.83798888 243.44658944 -175.51391602 248.26074219 C-181.00229226 240.02817782 -182.16341613 229.4177188 -183.47460938 219.79785156 C-184.05914028 215.61530474 -184.93937792 212.19078928 -186.51391602 208.26074219 C-187.32099331 202.8911269 -187.68281222 197.62557998 -187.71704102 192.19433594 C-187.72391937 191.44583878 -187.73079773 190.69734161 -187.73788452 189.92616272 C-187.75498376 187.51680587 -187.76134134 185.10765653 -187.76391602 182.69824219 C-187.76558777 181.87759277 -187.76725952 181.05694336 -187.76898193 180.21142578 C-187.77299114 147.34876561 -187.77299114 147.34876561 -182.51391602 135.26074219 C-181.69861945 132.59854931 -180.90772799 129.93613585 -180.13891602 127.26074219 C-179.68984201 125.73075178 -179.24062199 124.20080422 -178.79125977 122.67089844 C-178.02890475 120.0589503 -177.29281185 117.44570967 -176.58032227 114.81933594 C-170.81076527 94.33099797 -157.83409841 73.84447009 -143.51391602 58.26074219 C-142.85391602 58.26074219 -142.19391602 58.26074219 -141.51391602 58.26074219 C-141.25481445 57.67679688 -140.99571289 57.09285156 -140.72875977 56.49121094 C-133.50046556 43.21996981 -114.19519562 30.96266066 -100.51391602 25.26074219 C-98.84681255 23.76088609 -98.84681255 23.76088609 -97.51391602 22.26074219 C-94.42801302 20.36938228 -93.34070871 20.26074219 -89.51391602 20.26074219 C-89.51391602 19.60074219 -89.51391602 18.94074219 -89.51391602 18.26074219 C-77.15312414 12.10653437 -63.95370559 8.28772182 -50.51391602 5.26074219 C-49.37825195 5.00421875 -48.24258789 4.74769531 -47.07250977 4.48339844 C-31.45427845 1.15437989 -15.95157923 -0.07962774 0 0 Z "
        fill="#5FAC6B" transform="translate(515.513916015625,123.7392578125)" />
    <path
        d="M0 0 C5.28055795 -0.35800393 8.23491701 0.51453244 12.359375 3.83203125 C12.85695313 4.28964844 13.35453125 4.74726562 13.8671875 5.21875 C14.42664063 5.72792969 14.98609375 6.23710938 15.5625 6.76171875 C16.8671875 8.21875 16.8671875 8.21875 16.8671875 10.21875 C18.0015625 10.321875 19.1359375 10.425 20.3046875 10.53125 C34.72446076 12.14608265 49.38240501 14.77752198 62.8671875 20.21875 C63.8571875 20.610625 64.8471875 21.0025 65.8671875 21.40625 C66.5271875 21.674375 67.1871875 21.9425 67.8671875 22.21875 C67.8671875 22.87875 67.8671875 23.53875 67.8671875 24.21875 C68.54523438 24.30898437 69.22328125 24.39921875 69.921875 24.4921875 C73.59731163 25.3988602 76.69843243 27.03620662 79.9921875 28.84375 C80.64872314 29.19985352 81.30525879 29.55595703 81.98168945 29.92285156 C97.28646182 38.31729296 97.28646182 38.31729296 102.8671875 44.21875 C97.93981731 46.18969808 94.08697878 46.3987428 88.8671875 46.21875 C88.8671875 46.87875 88.8671875 47.53875 88.8671875 48.21875 C83.63565023 49.0148535 81.22528528 48.08256045 76.9296875 44.96875 C76.15753906 44.36546875 75.38539063 43.7621875 74.58984375 43.140625 C68.09267804 38.55439038 60.95264868 36.06988931 53.4296875 33.65625 C52.53958984 33.36556641 51.64949219 33.07488281 50.73242188 32.77539062 C48.96094916 32.19697696 47.18825134 31.62230097 45.41430664 31.05151367 C43.77768341 30.51643058 42.14603094 29.96575606 40.52124023 29.39575195 C35.32821388 27.57901057 30.23317062 26.40190067 24.8046875 25.53125 C24.03447266 25.40169922 23.26425781 25.27214844 22.47070312 25.13867188 C20.60393 24.82561054 18.73570419 24.52123089 16.8671875 24.21875 C16.58617187 24.82460937 16.30515625 25.43046875 16.015625 26.0546875 C13.74464029 30.33402604 10.32604667 33.39615063 5.8671875 35.21875 C0.89983126 35.92368834 -3.02510752 35.79311555 -7.5078125 33.46875 C-12.20688657 29.44097222 -12.20688657 29.44097222 -14.1328125 27.21875 C-14.1328125 26.55875 -14.1328125 25.89875 -14.1328125 25.21875 C-19.12830688 25.43383003 -24.12277449 25.66451614 -29.11694336 25.90844727 C-30.80881112 25.98902765 -32.5008726 26.06565815 -34.19311523 26.13793945 C-47.77394984 26.72210469 -60.56179363 28.36311692 -73.6328125 32.28125 C-74.715625 32.60222656 -75.7984375 32.92320313 -76.9140625 33.25390625 C-77.97625 33.57230469 -79.0384375 33.89070313 -80.1328125 34.21875 C-81.97359375 34.71181641 -81.97359375 34.71181641 -83.8515625 35.21484375 C-87.23159649 36.07732802 -87.23159649 36.07732802 -90.1328125 38.21875 C-89.09406695 39.4295954 -88.05162281 40.63726795 -87.0078125 41.84375 C-86.13769531 42.85308594 -86.13769531 42.85308594 -85.25 43.8828125 C-84.55132812 44.65367188 -83.85265625 45.42453125 -83.1328125 46.21875 C-82.33246582 47.23976807 -81.53211914 48.26078613 -80.70751953 49.31274414 C-77.12654347 52.85252223 -73.87116596 52.96779492 -68.98364258 53.07807922 C-67.93974365 53.06907089 -66.89584473 53.06006256 -65.8203125 53.05078125 C-64.73322998 53.05889328 -63.64614746 53.06700531 -62.52612305 53.07536316 C-60.23324206 53.0838086 -57.94026052 53.07699475 -55.64746094 53.0559082 C-52.14321693 53.031323 -48.64449106 53.07603342 -45.140625 53.12695312 C-42.90884954 53.12658266 -40.67707032 53.12216122 -38.4453125 53.11328125 C-37.40141357 53.13058792 -36.35751465 53.14789459 -35.28198242 53.16572571 C-29.84656934 53.14868361 -29.84656934 53.14868361 -25.21557617 50.65097046 C-23.61833485 48.80420272 -23.61833485 48.80420272 -22.37109375 46.8589325 C-19.79264434 43.44361179 -15.9258016 43.48090184 -11.96875 42.90234375 C-6.28937022 42.44369968 -3.22576377 43.95782674 1.140625 47.515625 C5.32415515 51.64236514 6.567205 54.66889879 7.2421875 60.40625 C6.59798132 66.9556795 3.84344842 71.5306938 -1.1328125 75.78125 C-6.69015857 78.46791399 -14.36211281 78.27992252 -20.21484375 76.6328125 C-22.29860763 75.09651408 -22.85824559 73.95508907 -24.11376953 71.73461914 C-26.35009471 68.57722128 -27.94697208 67.6366966 -31.75415039 66.97973633 C-33.61751935 66.79430145 -35.48574378 66.6540214 -37.35546875 66.55078125 C-38.35889816 66.48408234 -39.36232758 66.41738342 -40.39616394 66.34866333 C-43.66397972 66.17619523 -46.92353529 66.08934492 -50.1953125 66.03125 C-51.31812622 66.00394806 -52.44093994 65.97664612 -53.59777832 65.94851685 C-67.69509306 65.5018043 -67.69509306 65.5018043 -80.19677734 70.98144531 C-84.24290854 74.96818763 -87.50658385 79.56046342 -90.82437134 84.15066528 C-96.50588681 91.69310759 -101.66720206 96.16975011 -111.23046875 97.64306641 C-119.5857523 98.58198462 -127.98623951 98.61219551 -136.3828125 98.46875 C-137.44590385 98.45073397 -137.44590385 98.45073397 -138.5304718 98.43235397 C-147.41127453 98.25979837 -156.27191778 97.8454063 -165.1328125 97.21875 C-165.77532876 98.50357097 -166.41782088 99.78840401 -167.06030273 101.07324219 C-167.41809311 101.7887323 -167.77588348 102.50422241 -168.14451599 103.24139404 C-171.89617573 110.7476097 -174.29923708 118.00933278 -176.1328125 126.21875 C-176.7928125 126.21875 -177.4528125 126.21875 -178.1328125 126.21875 C-178.18179688 126.80140625 -178.23078125 127.3840625 -178.28125 127.984375 C-178.9021982 134.79339321 -179.94158349 141.48772784 -181.1328125 148.21875 C-180.49859375 148.50492188 -179.864375 148.79109375 -179.2109375 149.0859375 C-176.71720049 150.44530542 -176.16849126 151.62955309 -175.1328125 154.21875 C-174.4728125 154.21875 -173.8128125 154.21875 -173.1328125 154.21875 C-173.1328125 155.53875 -173.1328125 156.85875 -173.1328125 158.21875 C-172.4728125 158.21875 -171.8128125 158.21875 -171.1328125 158.21875 C-170.52171295 166.65531881 -171.61754305 171.04436753 -177.1328125 177.59375 C-180.89529414 180.65076633 -184.91510437 180.37919892 -189.6328125 180.40625 C-190.756875 180.42042969 -191.8809375 180.43460938 -193.0390625 180.44921875 C-197.12323282 180.14496869 -199.06690649 179.37511134 -201.8359375 176.37109375 C-206.76068132 169.31975601 -206.83120032 164.79707015 -205.5703125 156.53125 C-203.71048488 152.24556028 -201.04181108 149.7356288 -197.1328125 147.21875 C-196.4728125 147.21875 -195.8128125 147.21875 -195.1328125 147.21875 C-195.17019531 146.0946875 -195.20757812 144.970625 -195.24609375 143.8125 C-195.24288777 138.95651185 -194.36359613 134.4457733 -193.3203125 129.71875 C-193.15466797 128.91566406 -192.98902344 128.11257812 -192.81835938 127.28515625 C-191.69067411 122.03397277 -190.09737457 117.21557091 -188.1328125 112.21875 C-187.41282655 109.89657311 -186.76852212 107.56598551 -186.1328125 105.21875 C-185.4728125 105.21875 -184.8128125 105.21875 -184.1328125 105.21875 C-183.4728125 102.24875 -182.8128125 99.27875 -182.1328125 96.21875 C-181.4728125 96.21875 -180.8128125 96.21875 -180.1328125 96.21875 C-180.02710938 95.50589844 -179.92140625 94.79304688 -179.8125 94.05859375 C-174.48719292 71.80860384 -149.03136684 51.30301936 -131.1328125 39.21875 C-129.85664063 38.33509766 -129.85664063 38.33509766 -128.5546875 37.43359375 C-125.06928188 35.11644446 -123.42063472 34.21875 -119.1328125 34.21875 C-119.1328125 33.55875 -119.1328125 32.89875 -119.1328125 32.21875 C-111.97039611 28.17267343 -104.67547492 25.68409442 -96.83984375 23.3515625 C-94.04350423 22.49704358 -91.39139518 21.58176209 -88.6953125 20.46875 C-84.49735353 18.99578194 -80.5497767 18.51525917 -76.1328125 18.21875 C-76.1328125 17.55875 -76.1328125 16.89875 -76.1328125 16.21875 C-55.61997204 13.0401685 -35.89487388 11.63611255 -15.1328125 12.21875 C-14.92241333 11.03587402 -14.92241333 11.03587402 -14.70776367 9.82910156 C-13.81265933 5.76521381 -11.41684659 3.63937607 -8.1328125 1.21875 C-5.34598731 0.35173772 -2.87557372 0.29493064 0 0 Z "
        fill="#73B361" transform="translate(390.1328125,69.78125)" />
    <path
        d="M0 0 C5.07667042 1.03254314 9.99320985 2.26270347 14.9375 3.8125 C20.4572462 5.54149851 25.99627743 7.17845956 31.5625 8.75 C32.33650146 8.97276611 33.11050293 9.19553223 33.90795898 9.42504883 C37.43091181 10.41141366 40.31440386 11 44 11 C44.33 10.34 44.66 9.68 45 9 C45.66 9 46.32 9 47 9 C47 8.34 47 7.68 47 7 C52.93186685 3.25355778 58.51274902 3.13376546 65.24609375 4.43359375 C69.67514013 5.78156439 72.68893327 7.82099979 75.14453125 11.78515625 C77.29078268 17.34188941 77.19856308 23.20607992 74.85546875 28.66796875 C72.02511805 33.2458183 69.31512381 36.49571968 64 38 C58.25865609 38.50808353 53.24769884 38.615074 48 36 C45.9238575 34.15966628 44.63758847 32.29262385 43 30 C43 29.01 43 28.02 43 27 C42.33355469 26.90203125 41.66710937 26.8040625 40.98046875 26.703125 C33.9614757 25.56437927 27.59966786 23.62965489 21 21 C22.90271712 31.57065068 28.78684143 41.14983808 34.15234375 50.328125 C35 52 35 52 35 54 C35.99 54.33 36.98 54.66 38 55 C39.7265625 56.93359375 39.7265625 56.93359375 41.625 59.4375 C49.26045041 69.18311125 56.92094733 76.7777095 67 84 C77.1145444 91.42745008 86.04599396 99.40248478 94.234375 108.94921875 C96.87469272 112.01595947 99.59226695 115.01302716 102.30078125 118.01953125 C106 122.33103448 106 122.33103448 106 126 C107.155 126.020625 108.31 126.04125 109.5 126.0625 C115.02207166 126.72082527 118.32520508 130.04916414 122 134 C124.37310654 137.55965981 124.26915041 139.21962224 124.25 143.4375 C124.25773437 145.13712891 124.25773437 145.13712891 124.265625 146.87109375 C123.91868674 150.95782239 123.18900967 152.94227681 120.125 155.66796875 C119.42375 156.16941406 118.7225 156.67085937 118 157.1875 C116.948125 157.95126953 116.948125 157.95126953 115.875 158.73046875 C112.58941876 160.95508105 110.57753303 161.1355966 106.625 161.125 C105.66851562 161.12757813 104.71203125 161.13015625 103.7265625 161.1328125 C97.9013109 160.84906099 97.9013109 160.84906099 95.11328125 158.22265625 C94.51902344 157.50980469 93.92476563 156.79695312 93.3125 156.0625 C92.40951172 154.99708984 92.40951172 154.99708984 91.48828125 153.91015625 C88.73227866 150.37292458 88.86516577 147.94507249 88.875 143.5 C88.87242187 142.3346875 88.86984375 141.169375 88.8671875 139.96875 C89 137 89 137 90 135 C90.66 135 91.32 135 92 135 C92.67565506 132.34283494 92.67565506 132.34283494 92 129 C90.22888914 126.80977131 88.27469267 124.97445312 86.20703125 123.0625 C84.18527774 121.17314451 82.40862551 119.23640394 80.625 117.125 C72.24554216 107.45930484 63.05063788 99.79918831 52.6953125 92.33984375 C33.77570793 78.23676855 21.23481128 59.74748276 10.92529297 38.83984375 C9.98762814 36.9753999 8.99891373 35.14470178 8 33.3125 C3.01824117 23.30975589 -0.24030267 11.21412453 0 0 Z "
        fill="#43A19F" transform="translate(200,278)" />
    <path
        d="M0 0 C2.375 1.0625 2.375 1.0625 4 3 C4.47904581 6.28944791 4.77080109 8.81126789 2.90087891 11.69506836 C1.38331804 13.37731589 -0.20109418 14.91106643 -1.875 16.4375 C-2.43058594 16.97826172 -2.98617188 17.51902344 -3.55859375 18.07617188 C-7.67588496 22 -7.67588496 22 -10 22 C-10 24.97 -10 27.94 -10 31 C7.49 31 24.98 31 43 31 C43.99 28.525 43.99 28.525 45 26 C49.4767209 21.97095119 51.91227319 20.86042121 57.875 20.875 C59.44894531 20.87113281 59.44894531 20.87113281 61.0546875 20.8671875 C65.3749342 21.06199969 67.27291147 21.3615808 70.5625 24.25 C75.05610197 29.31970479 76.46035788 32.70535874 76.5625 39.5625 C76.62630859 41.51349609 76.62630859 41.51349609 76.69140625 43.50390625 C76 47 76 47 73.17578125 49.32421875 C71.60376953 50.15373047 71.60376953 50.15373047 70 51 C69.39414062 51.41765625 68.78828125 51.8353125 68.1640625 52.265625 C63.89983625 54.99299814 60.05572686 55.93107309 55 55 C50.71363349 53.63393848 47.09472833 52.12790192 43.9375 48.875 C43 47 43 47 43 45 C25.51 45 8.02 45 -10 45 C-10 55.56 -10 66.12 -10 77 C0.23 77 10.46 77 21 77 C21.495 75.02 21.495 75.02 22 73 C23.48828125 71.33203125 23.48828125 71.33203125 25.3125 69.8125 C25.90675781 69.30332031 26.50101562 68.79414063 27.11328125 68.26953125 C31.48746524 65.32623975 36.90727851 65.39680118 42 66 C46.70106619 67.5514453 50.40629827 70.62055001 53.125 74.734375 C55.16320772 80.01187712 55.12590754 86.91458031 53.1875 92.2265625 C51.84671487 94.22891923 50.54902224 95.3332472 48.5625 96.6875 C47.66724609 97.31205078 47.66724609 97.31205078 46.75390625 97.94921875 C41.68307629 100.98719928 35.70205436 100.5505952 30 100 C26.59110241 98.32545382 24.65239547 97.29164744 22.93359375 93.88867188 C20.19979676 91.21838734 18.05209968 91.52741382 14.33349609 91.49694824 C13.43969238 91.50826782 12.54588867 91.5195874 11.625 91.53125 C10.70412598 91.52420044 9.78325195 91.51715088 8.83447266 91.5098877 C5.88936697 91.48780315 2.9451647 91.49087441 0 91.5 C-3.87549365 91.51200822 -7.74962639 91.49841712 -11.625 91.46875 C-12.51880371 91.48006958 -13.41260742 91.49138916 -14.33349609 91.50305176 C-15.16445801 91.4962439 -15.99541992 91.48943604 -16.8515625 91.48242188 C-17.94718506 91.48719543 -17.94718506 91.48719543 -19.06494141 91.49206543 C-21 91 -21 91 -22.73005676 89.39863586 C-24.4255738 86.19618724 -24.41616752 83.75991347 -24.4675293 80.1394043 C-24.48081772 79.45756073 -24.49410614 78.77571716 -24.50779724 78.07321167 C-24.54642664 75.82342839 -24.56207827 73.57429187 -24.57421875 71.32421875 C-24.58894514 69.75486613 -24.60382474 68.18551494 -24.61885071 66.61616516 C-24.64582821 63.32683199 -24.65938663 60.03772456 -24.66577148 56.74829102 C-24.67663268 52.54429747 -24.73831294 48.34270936 -24.8124876 44.13942242 C-24.86099327 40.89730375 -24.87330266 37.65575955 -24.87583351 34.4133091 C-24.88304183 32.86433957 -24.90343097 31.31537066 -24.93753624 29.76675987 C-25.18370234 17.66321215 -25.18370234 17.66321215 -22.24560547 13.53491211 C-20.24648721 11.77559712 -18.26553093 10.38807992 -16 9 C-14.52303213 7.56054242 -13.05972118 6.10656922 -11.625 4.625 C-7.72608913 0.60182105 -5.74760403 -0.45980832 0 0 Z "
        fill="#59A776" transform="translate(260,175)" />
    <path
        d="M0 0 C0.84240234 -0.00773438 1.68480469 -0.01546875 2.55273438 -0.0234375 C8.03388342 -0.00655944 13.94364561 0.09300306 19.0625 2.25 C19.5575 3.735 19.5575 3.735 20.0625 5.25 C20.825625 5.37375 21.58875 5.4975 22.375 5.625 C25.0625 6.25 25.0625 6.25 28.0625 8.25 C27.54909616 12.04918838 26.8545132 13.68134786 24.0625 16.25 C23.7325 16.95125 23.4025 17.6525 23.0625 18.375 C22.0625 20.25 22.0625 20.25 19.0625 21.25 C18.36125 20.6725 17.66 20.095 16.9375 19.5 C10.51567513 14.47422402 3.04478925 13.35889538 -4.9375 14.25 C-11.10164669 15.3535811 -14.82853517 17.44736012 -18.74609375 22.3359375 C-23.59530336 30.12647097 -23.01591949 40.36956604 -21.125 49.125 C-20.733125 50.15625 -20.34125 51.1875 -19.9375 52.25 C-18.4525 52.745 -18.4525 52.745 -16.9375 53.25 C-16.40125 54.03375 -15.865 54.8175 -15.3125 55.625 C-11.19760517 60.17304165 -6.47550041 61.11882245 -0.4609375 61.4296875 C2.71988796 61.4366174 5.88468208 61.38261373 9.0625 61.25 C9.0625 60.59 9.0625 59.93 9.0625 59.25 C10.7125 58.59 12.3625 57.93 14.0625 57.25 C14.3925 53.62 14.7225 49.99 15.0625 46.25 C10.1125 46.25 5.1625 46.25 0.0625 46.25 C0.0625 41.96 0.0625 37.67 0.0625 33.25 C10.2925 33.25 20.5225 33.25 31.0625 33.25 C31.0625 43.81 31.0625 54.37 31.0625 65.25 C28.7525 66.24 26.4425 67.23 24.0625 68.25 C23.0725 68.91 22.0825 69.57 21.0625 70.25 C14.28142692 74.77071539 8.90626869 75.80708234 0.875 75.75 C-0.05465576 75.74427979 -0.98431152 75.73855957 -1.94213867 75.73266602 C-12.35230538 75.46308545 -20.58742893 72.47459921 -28.1875 65.20703125 C-37.96574197 54.27198833 -38.74470838 43.83148438 -38.13720703 29.70898438 C-37.53016449 22.23449475 -34.62351358 15.25847458 -28.9375 10.25 C-19.50383434 2.40344476 -12.07727399 -0.11037874 0 0 Z "
        fill="#3C424B" transform="translate(130.9375,513.75)" />
    <path
        d="M0 0 C5.97414109 4.37392473 12.37442884 9.4685768 14 17 C14.88375927 30.34872218 14.88375927 30.34872218 13 36 C12.34 36 11.68 36 11 36 C11 36.99 11 37.98 11 39 C10.34 39 9.68 39 9 39 C8.773125 39.74636719 8.54625 40.49273438 8.3125 41.26171875 C6.7163897 44.59169886 5.05123977 45.77686184 2 47.8125 C1.113125 48.41707031 0.22625 49.02164063 -0.6875 49.64453125 C-3 51 -3 51 -5 51 C-5 51.66 -5 52.32 -5 53 C-12.08511251 55.36170417 -21.3597961 55.23692219 -28.42578125 52.8359375 C-33.28104551 50.27361942 -36.94559664 47.64269311 -40 43 C-40.70125 42.38125 -41.4025 41.7625 -42.125 41.125 C-46.97557622 35.62768028 -46.35115829 28.3554834 -46.26953125 21.40234375 C-45.92484196 17.05126592 -44.8791222 13.91483792 -43 10 C-42.34 10 -41.68 10 -41 10 C-40.79375 9.278125 -40.5875 8.55625 -40.375 7.8125 C-37.94671641 2.84555629 -34.07275329 0.20105463 -29.0625 -1.8125 C-20.1649381 -4.44714185 -8.22916919 -4.78017916 0 0 Z "
        fill="#3C434B" transform="translate(579,535)" />
    <path
        d="M0 0 C2.24825803 1.58277365 4.12301685 3.32527887 5.953125 5.375 C6.943125 5.705 7.933125 6.035 8.953125 6.375 C13.43793317 13.39469974 13.69676816 21.29245224 12.953125 29.375 C11.953125 30.375 11.953125 30.375 8.25952148 30.48852539 C6.61441208 30.48836624 4.96929769 30.48266988 3.32421875 30.47265625 C2.02787254 30.47053383 2.02787254 30.47053383 0.70533752 30.46836853 C-2.06626792 30.46275239 -4.8377938 30.45019719 -7.609375 30.4375 C-9.4837228 30.43248708 -11.35807185 30.42792381 -13.23242188 30.42382812 C-17.83727044 30.41277772 -22.44205921 30.3955023 -27.046875 30.375 C-26.5828125 31.7671875 -26.5828125 31.7671875 -26.109375 33.1875 C-25.421875 35.25 -24.734375 37.3125 -24.046875 39.375 C-15.77875754 42.75294822 -4.96551013 40.65167661 2.953125 37.375 C5.515625 39.625 5.515625 39.625 7.953125 42.375 C7.87109375 44.34765625 7.87109375 44.34765625 6.953125 46.375 C5.0625 48.04296875 5.0625 48.04296875 2.703125 49.5625 C1.93484375 50.07167969 1.1665625 50.58085938 0.375 51.10546875 C-7.12556047 55.03721416 -18.16394264 54.55109921 -26.109375 52.1875 C-29.94940913 50.67150887 -32.48210106 48.66111661 -35.046875 45.375 C-35.211875 44.653125 -35.376875 43.93125 -35.546875 43.1875 C-35.711875 42.589375 -35.876875 41.99125 -36.046875 41.375 C-36.85125 41.065625 -37.655625 40.75625 -38.484375 40.4375 C-41.046875 39.375 -41.046875 39.375 -42.18359375 37.32421875 C-44.34747665 29.93176813 -44.41575489 19.56086467 -41.546875 12.3125 C-38.03358705 5.92920218 -32.22878813 -0.03820685 -25.50390625 -2.99609375 C-16.66079921 -5.25959174 -7.88923291 -4.59769865 0 0 Z "
        fill="#3D424A" transform="translate(251.046875,534.625)" />
    <path
        d="M0 0 C0 0.66 0 1.32 0 2 C1.0209375 2.061875 1.0209375 2.061875 2.0625 2.125 C6.18503653 3.35298961 9.09996171 5.84923793 12 9 C12 9.66 12 10.32 12 11 C12.66 11 13.32 11 14 11 C16.89126272 18.77887351 17 24.2759745 17 33 C3.8 33 -9.4 33 -23 33 C-20.7129568 39.54793629 -20.7129568 39.54793629 -16 43 C-8.03964336 44.07624797 -1.53632638 43.75369191 5 39 C5.66 39 6.32 39 7 39 C8.5078125 40.53125 8.5078125 40.53125 10.125 42.5 C10.66382813 43.1496875 11.20265625 43.799375 11.7578125 44.46875 C12.16773438 44.9740625 12.57765625 45.479375 13 46 C11.57247607 49.59950927 10.02291657 50.89823164 6.625 52.6875 C5.85414063 53.10386719 5.08328125 53.52023437 4.2890625 53.94921875 C-4.10614894 57.80299329 -14.85960219 56.85702643 -23.4921875 54.1640625 C-30.00919451 51.13903433 -34.78844105 45.32669784 -37.37890625 38.68359375 C-39.35480569 30.14621691 -39.32126795 19.82749247 -35 12 C-26.40391437 -0.78929814 -14.69295028 -3.36943597 0 0 Z "
        fill="#3C424B" transform="translate(308,532)" />
    <path
        d="M0 0 C5.19125699 3.13227742 8.531849 6.27340111 10.1161499 12.2649231 C10.8309918 16.07811415 10.74290025 19.87906647 10.6953125 23.74609375 C10.6924826 24.62403091 10.68965271 25.50196808 10.68673706 26.4065094 C10.67561598 29.18781645 10.65052672 31.96879164 10.625 34.75 C10.61495975 36.64517761 10.60583573 38.54036032 10.59765625 40.43554688 C10.57570315 45.06132417 10.5412296 49.68685598 10.5 54.3125 C5.55 54.3125 0.6 54.3125 -4.5 54.3125 C-4.53738281 51.84394531 -4.57476562 49.37539063 -4.61328125 46.83203125 C-4.65953688 44.43244739 -4.71075571 42.03301703 -4.76245117 39.63354492 C-4.79563655 37.97022892 -4.82368834 36.30680204 -4.84643555 34.64331055 C-4.88009999 32.24740501 -4.9324194 29.85250965 -4.98828125 27.45703125 C-4.99467117 26.7172554 -5.0010611 25.97747955 -5.00764465 25.21528625 C-5.13357804 20.75956376 -5.73555787 17.84581661 -8.5 14.3125 C-11.78560151 12.122099 -13.0863715 11.963832 -16.9375 11.875 C-18.35869141 11.81505859 -18.35869141 11.81505859 -19.80859375 11.75390625 C-22.64255652 12.09796817 -22.64255652 12.09796817 -24.63012695 14.31103516 C-27.10770169 18.28796476 -27.102169 21.29914076 -27.109375 25.89453125 C-27.12591125 26.70871017 -27.14244751 27.5228891 -27.15948486 28.36174011 C-27.20787788 30.9495708 -27.22931568 33.53681426 -27.25 36.125 C-27.27816708 37.88479503 -27.30809555 39.64456281 -27.33984375 41.40429688 C-27.41363409 45.70698288 -27.4632615 50.00934457 -27.5 54.3125 C-32.45 54.3125 -37.4 54.3125 -42.5 54.3125 C-42.5 36.1625 -42.5 18.0125 -42.5 -0.6875 C-37.88 -0.6875 -33.26 -0.6875 -28.5 -0.6875 C-28.5 0.9625 -28.5 2.6125 -28.5 4.3125 C-27.79875 3.69375 -27.0975 3.075 -26.375 2.4375 C-19.14878944 -2.90361215 -8.18302382 -3.84259864 0 0 Z "
        fill="#3A4049" transform="translate(376.5,533.6875)" />
    <path
        d="M0 0 C-0.64544429 3.48539917 -2.10134397 6.02819057 -4 9 C-5.43791516 8.85831863 -6.8753237 8.71148957 -8.3125 8.5625 C-9.11300781 8.48128906 -9.91351562 8.40007813 -10.73828125 8.31640625 C-13 8 -13 8 -16 7 C-17.89470816 6.9314505 -19.7916834 6.91519628 -21.6875 6.9375 C-22.68136719 6.94652344 -23.67523438 6.95554687 -24.69921875 6.96484375 C-25.45847656 6.97644531 -26.21773438 6.98804688 -27 7 C-27 8.65 -27 10.3 -27 12 C-20.83373752 15.37399268 -14.82207807 17.34464282 -8 19 C-8 19.66 -8 20.32 -8 21 C-6.906875 21.165 -5.81375 21.33 -4.6875 21.5 C-1 23 -1 23 0.1328125 24.6328125 C2.08604723 29.46849073 2.582933 33.83687913 2 39 C-0.62675981 44.35859002 -5.0516398 48.60749797 -10.75 50.6171875 C-21.29597257 52.41146756 -31.18222287 51.16511757 -41 47 C-41 46.34 -41 45.68 -41 45 C-41.99 44.67 -42.98 44.34 -44 44 C-43.38545304 40.00544473 -41.29353263 37.25533664 -39 34 C-35.02712922 34.56755297 -32.3546267 35.82402592 -29 38 C-26.11584117 39.44207941 -23.58278472 39.09394887 -20.375 39.0625 C-18.59222656 39.04896484 -18.59222656 39.04896484 -16.7734375 39.03515625 C-15.85820312 39.02355469 -14.94296875 39.01195312 -14 39 C-13.25042843 35.52852158 -13.25042843 35.52852158 -13 32 C-16.79819546 30.66549889 -20.59826446 29.59910314 -24.5 28.625 C-29.01159526 27.39178993 -32.36282114 26.04507997 -36 23 C-36.55816406 22.54109375 -37.11632812 22.0821875 -37.69140625 21.609375 C-41.44765071 18.01871904 -42.46207498 15.13515686 -42.6875 9.9375 C-42.49345773 6.06150566 -42.14656355 3.42633801 -39.6875 0.375 C-29.71275848 -8.43988786 -10.75818273 -7.17212182 0 0 Z "
        fill="#3D434C" transform="translate(524,537)" />
    <path
        d="M0 0 C2.75 1.875 2.75 1.875 4.77612305 4.94189453 C6.44599593 6.97866765 7.36041231 7.77366679 9.93301392 8.44281006 C12.66394967 8.66552046 15.34209139 8.70568278 18.08203125 8.6796875 C19.07377853 8.69339386 20.06552582 8.70710022 21.08732605 8.72122192 C24.24617853 8.75852857 27.40345844 8.75480645 30.5625 8.75 C32.70770687 8.76812623 34.85289292 8.78892868 36.99804688 8.8125 C42.24885204 8.86435661 47.49896229 8.88255924 52.75 8.875 C51.399239 12.92728301 48.91180298 14.42068797 45.66015625 17.05859375 C43.71341424 18.90979014 42.88497652 20.47780744 41.75 22.875 C38.77016751 24.36491624 36.05125234 23.98438404 32.73046875 23.98046875 C31.30141722 23.99392763 29.87237973 24.0089513 28.44335938 24.02539062 C26.19148202 24.04820128 23.94118641 24.06252042 21.68920898 24.05004883 C19.51431029 24.04120875 17.34254306 24.07017928 15.16796875 24.10546875 C13.21540161 24.11163208 13.21540161 24.11163208 11.22338867 24.11791992 C6.48134521 25.15152341 5.56242612 27.03392419 2.75 30.875 C2.09 30.875 1.43 30.875 0.75 30.875 C0.42 31.865 0.09 32.855 -0.25 33.875 C-14.24066598 34.63238944 -14.24066598 34.63238944 -20.25 29.875 C-24.80797932 25.41247574 -26.06003751 22.23053484 -26.5625 16 C-26.46621891 10.80082126 -24.22444652 7.7911106 -20.53125 4.20703125 C-14.29187851 -1.35817086 -8.05761708 -2.78917514 0 0 Z "
        fill="#6BAF6E" transform="translate(321.25,156.125)" />
    <path
        d="M0 0 C5.28 0 10.56 0 16 0 C16.66 2.31 17.32 4.62 18 7 C20.93581429 15.15361523 24.1854969 23.77824534 29 31 C29 32.32 29 33.64 29 35 C29.66 35 30.32 35 31 35 C31 34.01 31 33.02 31 32 C31.66 32 32.32 32 33 32 C33.10957031 31.45472656 33.21914063 30.90945313 33.33203125 30.34765625 C34.51009937 24.74464935 36.087035 19.3945613 38 14 C38.66 14 39.32 14 40 14 C40.33 11.69 40.66 9.38 41 7 C41.66 7 42.32 7 43 7 C43.33 5.02 43.66 3.04 44 1 C48.29 1 52.58 1 57 1 C53.76278724 13.94885103 49.95060377 26.55693282 43 38 C41.16771111 41.63502474 39.87831161 45.29284584 38.9375 49.25 C38 53 38 53 36 56 C32.9609375 56.29296875 32.9609375 56.29296875 29.375 56.1875 C28.18648438 56.16042969 26.99796875 56.13335938 25.7734375 56.10546875 C24.85820312 56.07066406 23.94296875 56.03585937 23 56 C21.660982 53.00250286 20.32976661 50.00161085 19 47 C18.2265625 45.2675 18.2265625 45.2675 17.4375 43.5 C16.37834166 40.92117968 15.5058706 38.46268851 14.6875 35.8125 C12.4623818 28.96239789 8.95929948 22.66164165 5.5703125 16.328125 C2.72156577 10.90033537 1.07258075 6.04545514 0 0 Z "
        fill="#3D434B" transform="translate(391,532)" />
    <path
        d="M0 0 C3.25107604 0.35431462 4.29975879 1.25204164 6.65234375 3.4765625 C7.67908203 4.435625 7.67908203 4.435625 8.7265625 5.4140625 C9.36207031 6.0328125 9.99757813 6.6515625 10.65234375 7.2890625 C11.58046875 8.1759375 12.50859375 9.0628125 13.46484375 9.9765625 C15.37466484 11.99551623 17.05481116 14.01888461 18.65234375 16.2890625 C14.33169748 25.20212545 8.31651003 34.65416653 -1.34765625 38.2890625 C-15.51687182 41.18727913 -31.0385446 39.37802182 -45.34765625 38.2890625 C-44.46755272 33.70149962 -41.78218224 31.03821263 -38.66015625 27.7265625 C-38.08434814 27.11176025 -37.50854004 26.49695801 -36.9152832 25.86352539 C-29.36700205 17.99347749 -18.02796038 6.41517751 -7.2265625 3.76953125 C-5.22367097 3.43926852 -5.22367097 3.43926852 -3.91015625 1.7265625 C-2.34765625 0.2890625 -2.34765625 0.2890625 0 0 Z "
        fill="#F8FAF8" transform="translate(281.34765625,113.7109375)" />
    <path
        d="M0 0 C0 4.95 0 9.9 0 15 C-4.39453125 15.04882812 -4.39453125 15.04882812 -8.7890625 15.09765625 C-12.61833492 16.17376565 -14.39963676 17.25442504 -16.83056641 20.38110352 C-19.57038042 26.51679975 -18.88854361 33.8275419 -18.875 40.4375 C-18.89314312 42.04365243 -18.91395089 43.64977711 -18.9375 45.25585938 C-18.98913587 49.17092629 -19.00444606 53.08461145 -19 57 C-21.31243792 57.02685412 -23.6249627 57.04632841 -25.9375 57.0625 C-27.22527344 57.07410156 -28.51304687 57.08570313 -29.83984375 57.09765625 C-33 57 -33 57 -34 56 C-34.0935919 54.28134591 -34.11744611 52.55884256 -34.11352539 50.83764648 C-34.11344986 49.73658066 -34.11337433 48.63551483 -34.11329651 47.50108337 C-34.10813522 46.3031868 -34.10297394 45.10529022 -34.09765625 43.87109375 C-34.0962413 42.65172623 -34.09482635 41.4323587 -34.09336853 40.17604065 C-34.08774967 36.2631693 -34.07519396 32.35035419 -34.0625 28.4375 C-34.05748743 25.79231853 -34.0529241 23.14713617 -34.04882812 20.50195312 C-34.03777411 14.00128026 -34.02049683 7.50064968 -34 1 C-29.05 1 -24.1 1 -19 1 C-19 3.31 -19 5.62 -19 8 C-18.34 8 -17.68 8 -17 8 C-16.6596875 7.13375 -16.6596875 7.13375 -16.3125 6.25 C-12.2194026 -0.7667384 -7.42060061 -0.39576537 0 0 Z "
        fill="#373C45" transform="translate(636,531)" />
    <path
        d="M0 0 C4.58984375 0.09765625 4.58984375 0.09765625 9.1796875 0.1953125 C9.1796875 4.8153125 9.1796875 9.4353125 9.1796875 14.1953125 C5.63151042 14.55338542 2.08333333 14.91145833 -1.46484375 15.26953125 C-4.99348642 15.86163438 -4.99348642 15.86163438 -6.64453125 18.77734375 C-7.03253906 19.57527344 -7.42054688 20.37320313 -7.8203125 21.1953125 C-8.4803125 21.1953125 -9.1403125 21.1953125 -9.8203125 21.1953125 C-9.8203125 32.7453125 -9.8203125 44.2953125 -9.8203125 56.1953125 C-14.7703125 56.1953125 -19.7203125 56.1953125 -24.8203125 56.1953125 C-24.8203125 38.0453125 -24.8203125 19.8953125 -24.8203125 1.1953125 C-19.8703125 1.1953125 -14.9203125 1.1953125 -9.8203125 1.1953125 C-9.8203125 3.1753125 -9.8203125 5.1553125 -9.8203125 7.1953125 C-9.0365625 6.4115625 -8.2528125 5.6278125 -7.4453125 4.8203125 C-2.8203125 0.1953125 -2.8203125 0.1953125 0 0 Z "
        fill="#41474F" transform="translate(196.8203125,531.8046875)" />
    <path d="M0 0 C4.95 0 9.9 0 15 0 C15 18.15 15 36.3 15 55 C10.05 55 5.1 55 0 55 C0 36.85 0 18.7 0 0 Z "
        fill="#414850" transform="translate(456,532)" />
    <path
        d="M0 0 C1.14662109 -0.00386719 1.14662109 -0.00386719 2.31640625 -0.0078125 C5.71352435 0.20489839 7.37833154 1.07593347 10 3.25 C14.40719851 8.44823414 14.91029519 14.21594827 14.75 20.828125 C14.28108508 24.27464963 13.0023997 25.83008974 10.4375 28.125 C9.591875 28.888125 8.74625 29.65125 7.875 30.4375 C3.00563126 32.82791738 -1.23955786 33.15873079 -6.5625 32.125 C-10.8044035 29.78515999 -13.81193424 26.66501869 -15.5625 22.125 C-15.86328125 19.28515625 -15.86328125 19.28515625 -15.875 16.1875 C-15.89175781 15.16785156 -15.90851562 14.14820313 -15.92578125 13.09765625 C-15.29651144 7.94846997 -12.45028603 4.42372754 -8.5625 1.125 C-5.67487545 0.18285131 -3.02613614 -0.01024073 0 0 Z "
        fill="#F3F3F4" transform="translate(563.5625,543.875)" />
    <path
        d="M0 0 C4.95 0 9.9 0 15 0 C15 22.77 15 45.54 15 69 C14.67 69 14.34 69 14 69 C12.80611597 21.21606175 12.80611597 21.21606175 13 2 C9.7 2.33 6.4 2.66 3 3 C2.83739624 12.11887363 2.71322408 21.23724395 2.6373148 30.35725403 C2.6008708 34.59269628 2.55148698 38.8271426 2.47192383 43.06201172 C2.39554134 47.15345966 2.35394333 51.24395336 2.3358593 55.33605957 C2.32298224 56.89260879 2.29783496 58.44910911 2.2598896 60.00524902 C1.83792924 70.13841518 1.83792924 70.13841518 6.390625 78.86132812 C7.56410738 79.94069528 8.76464847 80.99203128 10 82 C11.20462891 83.25296875 11.20462891 83.25296875 12.43359375 84.53125 C13.09488281 85.1809375 13.75617188 85.830625 14.4375 86.5 C15.11683594 87.1703125 15.79617188 87.840625 16.49609375 88.53125 C16.99238281 89.0159375 17.48867188 89.500625 18 90 C17.67 90.66 17.34 91.32 17 92 C16.5560791 91.55084229 16.1121582 91.10168457 15.65478516 90.63891602 C13.64746397 88.61084393 11.63629001 86.58663584 9.625 84.5625 C8.92632812 83.85544922 8.22765625 83.14839844 7.5078125 82.41992188 C6.8375 81.74638672 6.1671875 81.07285156 5.4765625 80.37890625 C4.549646 79.44413452 4.549646 79.44413452 3.60400391 78.49047852 C2.05339933 76.90951849 2.05339933 76.90951849 0 76 C0 50.92 0 25.84 0 0 Z "
        fill="#75B8AB" transform="translate(295,294)" />
    <path
        d="M0 0 C1.75570313 0.19335938 1.75570313 0.19335938 3.546875 0.390625 C4.43890625 0.50921875 5.3309375 0.6278125 6.25 0.75 C5.32934219 7.05719307 4.2522542 10.66921368 -0.75 14.75 C0.054375 14.729375 0.85875 14.70875 1.6875 14.6875 C4.25 14.75 4.25 14.75 5.25 15.75 C5.29080783 17.74958364 5.29254356 19.75045254 5.25 21.75 C1.32178453 24.36881031 -2.18443139 24.03987737 -6.75 23.75 C-7.74 23.09 -8.73 22.43 -9.75 21.75 C-9.75 20.76 -9.75 19.77 -9.75 18.75 C-6.45 19.08 -3.15 19.41 0.25 19.75 C0.58 19.09 0.91 18.43 1.25 17.75 C0.38375 17.87375 -0.4825 17.9975 -1.375 18.125 C-5.46376044 17.67069328 -6.91373084 16.59514627 -9.609375 13.6015625 C-11.74372832 10.13689307 -11.39330548 7.73849395 -10.75 3.75 C-7.58295449 -0.67162393 -5.21399049 -0.62567886 0 0 Z "
        fill="#707378" transform="translate(299.75,618.25)" />
    <path
        d="M0 0 C10.87058824 -0.47782805 10.87058824 -0.47782805 15.25 1.375 C17.8865743 5.32986146 17.76573203 9.37336648 17 14 C14.41431805 16.58568195 12.55402984 17.09533786 9 18 C6.03 18 3.06 18 0 18 C0 12.06 0 6.12 0 0 Z "
        fill="#6E7278" transform="translate(449,619)" />
    <path
        d="M0 0 C3.5 1.5625 3.5 1.5625 6 4 C6.78066525 8.29365887 6.51464184 10.21088251 4.125 13.875 C1.26113472 16.73886528 -0.42340179 17.20433297 -4.375 17.375 C-7.85342253 17.31898675 -8.72211316 17.21688729 -11.5625 15 C-13.56394783 10.82306541 -13.65951493 8.61660448 -13 4 C-9.49971887 -0.37535141 -5.3365998 -1.00906468 0 0 Z "
        fill="#686E73" transform="translate(552,619)" />
    <path
        d="M0 0 C3.15912871 2.25652051 4.78217064 4.47285349 6.625 7.875 C6.625 8.865 6.625 9.855 6.625 10.875 C-2.285 10.875 -11.195 10.875 -20.375 10.875 C-19.375 3.875 -19.375 3.875 -16.9375 0.9375 C-11.8324709 -2.78978631 -5.68475168 -1.89491723 0 0 Z "
        fill="#E9EAEB" transform="translate(243.375,544.125)" />
    <path
        d="M0 0 C3.27638802 2.23390092 4.86904915 4.40247535 6.75 7.875 C6.75 8.865 6.75 9.855 6.75 10.875 C-2.16 10.875 -11.07 10.875 -20.25 10.875 C-19.21700133 4.67700795 -18.79430209 3.66191841 -14.25 -0.125 C-9.23972375 -1.79509208 -4.91956683 -1.70292698 0 0 Z "
        fill="#EAEBEC" transform="translate(304.25,544.125)" />
    <path
        d="M0 0 C1.91635217 -0.05423638 3.83314925 -0.09289963 5.75 -0.125 C7.35101562 -0.15980469 7.35101562 -0.15980469 8.984375 -0.1953125 C11.92470106 -0.00487687 13.52361878 0.47329896 16 2 C16.125 5.375 16.125 5.375 16 9 C15.34 9.66 14.68 10.32 14 11 C14.32326553 14.59679066 14.32326553 14.59679066 15 18 C14.01 18 13.02 18 12 18 C11.67 17.34 11.34 16.68 11 16 C9.35636866 15.27840576 7.68949614 14.60648579 6 14 C6 15.65 6 17.3 6 19 C4.35 19.33 2.7 19.66 1 20 C-0.1482685 17.703463 -0.11561175 16.41686833 -0.09765625 13.8671875 C-0.09443359 13.06152344 -0.09121094 12.25585938 -0.08789062 11.42578125 C-0.07951172 10.58402344 -0.07113281 9.74226562 -0.0625 8.875 C-0.05798828 8.02550781 -0.05347656 7.17601562 -0.04882812 6.30078125 C-0.03702874 4.20049091 -0.01909306 2.1002367 0 0 Z "
        fill="#595D67" transform="translate(567,618)" />
    <path
        d="M0 0 C3.96 0 7.92 0 12 0 C12 0.33 12 0.66 12 1 C8.7 1 5.4 1 2 1 C2 18.16 2 35.32 2 53 C5.63 53 9.26 53 13 53 C12.98952637 52.04633545 12.97905273 51.0926709 12.96826172 50.11010742 C12.93205499 46.57108312 12.90909716 43.0320752 12.89013672 39.49291992 C12.88008065 37.96131639 12.866434 36.42973205 12.84912109 34.89819336 C12.82485502 32.69640364 12.81351312 30.49486781 12.8046875 28.29296875 C12.79436493 27.60849167 12.78404236 26.92401459 12.77340698 26.21879578 C12.77254618 22.56938339 12.91432334 21.12851498 15 18 C15 30.21 15 42.42 15 55 C10.05 55 5.1 55 0 55 C0 36.85 0 18.7 0 0 Z "
        fill="#5A5F67" transform="translate(334,533)" />
    <path
        d="M0 0 C3.01904633 0.10467496 4.42173501 0.48494704 7.25 1.8125 C9.82273213 5.21514573 9.45703381 7.24458661 8.97265625 11.3515625 C8.1875 13.375 8.1875 13.375 6.375 14.625 C2.72372343 15.87686625 0.05566016 15.74339621 -3.8125 15.375 C-5.875 13.9375 -5.875 13.9375 -6.8125 11.375 C-6.83437439 8.29617903 -6.57899203 5.36028477 -5.8125 2.375 C-3.8125 0.375 -3.8125 0.375 0 0 Z "
        fill="#414750" transform="translate(462.8125,509.625)" />
    <path
        d="M0 0 C4.62 0 9.24 0 14 0 C13.67 1.32 13.34 2.64 13 4 C10.03 4 7.06 4 4 4 C4 5.32 4 6.64 4 8 C6.97 8 9.94 8 13 8 C13 8.99 13 9.98 13 11 C10.03 11 7.06 11 4 11 C4 12.32 4 13.64 4 15 C7.3 15 10.6 15 14 15 C14 16.32 14 17.64 14 19 C11.85423363 19.02685938 9.70837355 19.04633088 7.5625 19.0625 C6.36753906 19.07410156 5.17257812 19.08570313 3.94140625 19.09765625 C1 19 1 19 0 18 C-0.08631874 16.65732587 -0.10706473 15.31025678 -0.09765625 13.96484375 C-0.09443359 13.15595703 -0.09121094 12.34707031 -0.08789062 11.51367188 C-0.07951172 10.66353516 -0.07113281 9.81339844 -0.0625 8.9375 C-0.05798828 8.08349609 -0.05347656 7.22949219 -0.04882812 6.34960938 C-0.03700373 4.23304337 -0.01906769 2.11651315 0 0 Z "
        fill="#7F8186" transform="translate(320,618)" />
    <path
        d="M0 0 C4.95 0 9.9 0 15 0 C15 2.31 15 4.62 15 7 C15.66 7 16.32 7 17 7 C17.268125 6.401875 17.53625 5.80375 17.8125 5.1875 C18.98493467 3.02775192 20.19369282 1.64209744 22 0 C22.66 0.33 23.32 0.66 24 1 C23.09827532 2.17825358 22.17798498 3.34231577 21.25 4.5 C20.73953125 5.1496875 20.2290625 5.799375 19.703125 6.46875 C18 8 18 8 14 8 C14 5.69 14 3.38 14 1 C10.04 1 6.08 1 2 1 C2 18.82 2 36.64 2 55 C6.29 55 10.58 55 15 55 C15 55.33 15 55.66 15 56 C12.68756208 56.02685412 10.3750373 56.04632841 8.0625 56.0625 C6.77472656 56.07410156 5.48695313 56.08570313 4.16015625 56.09765625 C1 56 1 56 0 55 C-0.0935919 53.28134591 -0.11744611 51.55884256 -0.11352539 49.83764648 C-0.11344986 48.73658066 -0.11337433 47.63551483 -0.11329651 46.50108337 C-0.10813522 45.3031868 -0.10297394 44.10529022 -0.09765625 42.87109375 C-0.0962413 41.65172623 -0.09482635 40.4323587 -0.09336853 39.17604065 C-0.08774967 35.2631693 -0.07519396 31.35035419 -0.0625 27.4375 C-0.05748743 24.79231853 -0.0529241 22.14713617 -0.04882812 19.50195312 C-0.03777411 13.00128026 -0.02049683 6.50064968 0 0 Z "
        fill="#84878F" transform="translate(602,532)" />
    <path
        d="M0 0 C4.13421225 1.03355306 4.68710582 1.34575296 7.1875 4.4375 C7.95126953 5.36369141 7.95126953 5.36369141 8.73046875 6.30859375 C10 8 10 8 11 10 C11.33 6.7 11.66 3.4 12 0 C12.99 0 13.98 0 15 0 C15 5.61 15 11.22 15 17 C12 17 12 17 10.46484375 15.50390625 C9.96082031 14.86324219 9.45679688 14.22257813 8.9375 13.5625 C6.8328667 10.84124807 6.8328667 10.84124807 4 9 C4 11.64 4 14.28 4 17 C2.68 17 1.36 17 0 17 C0 11.39 0 5.78 0 0 Z "
        fill="#676B71" transform="translate(176,619)" />
    <path
        d="M0 0 C1.32 0 2.64 0 4 0 C7.14819255 5.86215164 9.26375242 11.5811453 11 18 C9.68 18 8.36 18 7 18 C6.67 17.01 6.34 16.02 6 15 C3.36 15 0.72 15 -2 15 C-2.33 15.99 -2.66 16.98 -3 18 C-3.99 18 -4.98 18 -6 18 C-4.95518663 11.29119838 -3.30199356 5.9435884 0 0 Z "
        fill="#42484E" transform="translate(428,618)" />
    <path
        d="M0 0 C2.64 0 5.28 0 8 0 C8.66 1.32 9.32 2.64 10 4 C7.36 4 4.72 4 2 4 C2 4.99 2 5.98 2 7 C2.56589844 7.15855469 3.13179687 7.31710937 3.71484375 7.48046875 C5.92608658 8.18386937 7.94722385 8.91551449 10 10 C11.25 12.4375 11.25 12.4375 11 15 C9.5625 17.3125 9.5625 17.3125 7 19 C4.1466304 19.45586378 1.93454308 19.28398804 -1 19 C-1.66 18.34 -2.32 17.68 -3 17 C-3 16.01 -3 15.02 -3 14 C0.3 14.33 3.6 14.66 7 15 C7 14.01 7 13.02 7 12 C5.88625 11.8453125 5.88625 11.8453125 4.75 11.6875 C1.69891759 10.9247294 0.14596923 10.30492991 -2 8 C-2.25 4.8125 -2.25 4.8125 -2 2 C-1.34 2 -0.68 2 0 2 C0 1.34 0 0.68 0 0 Z "
        fill="#686B72" transform="translate(518,618)" />
    <path
        d="M0 0 C10.23 0 20.46 0 31 0 C31 10.56 31 21.12 31 32 C30.34 31.67 29.68 31.34 29 31 C29.33 21.1 29.66 11.2 30 1 C20.43 1 10.86 1 1 1 C1 4.3 1 7.6 1 11 C2.60681641 10.98259766 2.60681641 10.98259766 4.24609375 10.96484375 C5.64322743 10.95546701 7.04036299 10.94636669 8.4375 10.9375 C9.14455078 10.92912109 9.85160156 10.92074219 10.58007812 10.91210938 C12.38693559 10.90346412 14.19387603 10.94779989 16 11 C17 12 17 12 17.1328125 14.65234375 C17.13023437 15.73644531 17.12765625 16.82054687 17.125 17.9375 C17.12886719 19.55978516 17.12886719 19.55978516 17.1328125 21.21484375 C17 24 17 24 16 26 C13.67843403 26.40729228 11.3431213 26.74438677 9 27 C12 25 12 25 14 24 C14.4683265 21.41394668 14.4683265 21.41394668 14.625 18.4375 C14.74875 16.643125 14.8725 14.84875 15 13 C10.05 13 5.1 13 0 13 C0 8.71 0 4.42 0 0 Z "
        fill="#989CA3" transform="translate(131,547)" />
    <path
        d="M0 0 C3.96 0 7.92 0 12 0 C12 0.99 12 1.98 12 3 C9.03 3 6.06 3 3 3 C3 4.32 3 5.64 3 7 C5.97 7 8.94 7 12 7 C12 7.99 12 8.98 12 10 C9.03 10 6.06 10 3 10 C3 11.65 3 13.3 3 15 C5.97 15 8.94 15 12 15 C12 15.66 12 16.32 12 17 C8.04 17 4.08 17 0 17 C0 11.39 0 5.78 0 0 Z "
        fill="#62656B" transform="translate(227,619)" />
    <path
        d="M0 0 C3.96 0 7.92 0 12 0 C12 0.66 12 1.32 12 2 C9.03 2 6.06 2 3 2 C3 3.65 3 5.3 3 7 C5.97 7 8.94 7 12 7 C12 7.99 12 8.98 12 10 C9.03 10 6.06 10 3 10 C3 11.65 3 13.3 3 15 C6.3 15 9.6 15 13 15 C13 15.66 13 16.32 13 17 C8.71 17 4.42 17 0 17 C0 11.39 0 5.78 0 0 Z "
        fill="#54595E" transform="translate(373,619)" />
    <path
        d="M0 0 C0.66 1.32 1.32 2.64 2 4 C1.37351562 3.90460937 0.74703125 3.80921875 0.1015625 3.7109375 C-0.71570313 3.60007812 -1.53296875 3.48921875 -2.375 3.375 C-3.59316406 3.20097656 -3.59316406 3.20097656 -4.8359375 3.0234375 C-5.55007813 3.01570312 -6.26421875 3.00796875 -7 3 C-9.39564928 4.94967279 -9.39564928 4.94967279 -9.1875 8.5625 C-9.39287806 11.82963695 -9.39287806 11.82963695 -8 13 C-6.31391034 13.07205511 -4.62499341 13.08386068 -2.9375 13.0625 C-2.01839844 13.05347656 -1.09929687 13.04445313 -0.15234375 13.03515625 C0.55792969 13.02355469 1.26820313 13.01195312 2 13 C1.203125 14.93359375 1.203125 14.93359375 0 17 C-3.25 18.0625 -3.25 18.0625 -7 18 C-11.12405469 15.55611574 -12.69649188 14.08124769 -14 9.4375 C-14 4.57142857 -14 4.57142857 -12 2 C-8.39073335 -0.77635896 -4.34273654 -0.14475788 0 0 Z "
        fill="#60656A" transform="translate(359,619)" />
    <path
        d="M0 0 C0.99 0 1.98 0 3 0 C3 4.95 3 9.9 3 15 C5.97 15 8.94 15 12 15 C12 16.32 12 17.64 12 19 C7.71 19 3.42 19 -1 19 C-1.02683987 16.02077407 -1.04676037 13.04178705 -1.0625 10.0625 C-1.07087891 9.21236328 -1.07925781 8.36222656 -1.08789062 7.48632812 C-1.09111328 6.67744141 -1.09433594 5.86855469 -1.09765625 5.03515625 C-1.10289307 4.2862915 -1.10812988 3.53742676 -1.11352539 2.76586914 C-1 1 -1 1 0 0 Z "
        fill="#95999E" transform="translate(252,618)" />
    <path
        d="M0 0 C1.9375 1.0625 1.9375 1.0625 3 3 C2.55555556 9.44444444 2.55555556 9.44444444 1 11 C-2.24679295 11.28860382 -4.40727258 11.28076562 -7.375 9.875 C-9 8 -9 8 -9.4375 4.9375 C-9.293125 3.968125 -9.14875 2.99875 -9 2 C-5.53076119 -0.31282587 -4.07794425 -0.42478586 0 0 Z "
        fill="#E5F1EB" transform="translate(300,253)" />
    <path
        d="M0 0 C2 2 2 2 2.3125 4.9375 C2 8 2 8 0.9375 9.9375 C-2.15212727 11.63181173 -4.67217418 10.73951685 -8 10 C-8.33 9.67 -8.66 9.34 -9 9 C-8.94921875 6.96875 -8.94921875 6.96875 -8.6875 4.5 C-8.60886719 3.6853125 -8.53023437 2.870625 -8.44921875 2.03125 C-8.30097656 1.3609375 -8.15273438 0.690625 -8 0 C-5.09288879 -1.4535556 -3.10402897 -0.71133997 0 0 Z "
        fill="#E4E4E4" transform="translate(552,622)" />
    <path
        d="M0 0 C1.75570313 0.19335938 1.75570313 0.19335938 3.546875 0.390625 C4.43890625 0.50921875 5.3309375 0.6278125 6.25 0.75 C5.59 3.72 4.93 6.69 4.25 9.75 C3.26 9.42 2.27 9.09 1.25 8.75 C1.58 7.1 1.91 5.45 2.25 3.75 C-1.75254456 3.65818866 -1.75254456 3.65818866 -5.75 3.75 C-7.0178956 4.79490735 -7.0178956 4.79490735 -6.875 7.125 C-6.86343738 9.86093048 -6.86343738 9.86093048 -5.75 12.75 C-3.81669397 13.84166275 -3.81669397 13.84166275 -1.75 14.75 C-1.09 15.41 -0.43 16.07 0.25 16.75 C-3.99382132 16.14373981 -7.65404024 14.84595976 -10.75 11.75 C-11.33713753 4.58692219 -11.33713753 4.58692219 -9.15234375 1.47265625 C-5.87092784 -0.88035906 -3.95452793 -0.47454335 0 0 Z "
        fill="#5E6269" transform="translate(299.75,618.25)" />
    <path
        d="M0 0 C0.99 0.66 1.98 1.32 3 2 C3.39907251 5.12606798 3.46880951 7.14511207 1.9375 9.9375 C-1.21566824 11.66665678 -3.62508255 10.8590699 -7 10 C-9 7 -9 7 -8.625 3.8125 C-8.41875 2.884375 -8.2125 1.95625 -8 1 C-5.01413769 0.00471256 -3.10857 -0.23314275 0 0 Z "
        fill="#F0F7E9" transform="translate(394,82)" />
    <path
        d="M0 0 C3.0625 0.3125 3.0625 0.3125 4.9375 1.5 C6.46909584 3.96757108 6.49072025 5.45769831 6.0625 8.3125 C4.9375 10.125 4.9375 10.125 3.0625 11.3125 C0 11.625 0 11.625 -2.9375 11.3125 C-4.9375 9.3125 -4.9375 9.3125 -5.1875 5.8125 C-4.87458101 1.43163414 -4.40975115 0.46912246 0 0 Z "
        fill="#E7F2E9" transform="translate(312.9375,166.6875)" />
    <path
        d="M0 0 C6.38342541 0.60220994 6.38342541 0.60220994 8.9375 2.25 C10.41474475 4.68310899 10.41948576 6.20342824 10 9 C8.9375 10.8125 8.9375 10.8125 7 12 C3.3125 12.1875 3.3125 12.1875 0 12 C0 8.04 0 4.08 0 0 Z "
        fill="#E1E1E1" transform="translate(453,621)" />
    <path
        d="M0 0 C2.8125 -0.25 2.8125 -0.25 6 0 C8.67535978 2.31864514 8.97253 3.64975756 9.25 7.1875 C9 10 9 10 8 11 C2.26388889 11.27314815 2.26388889 11.27314815 0 11 C-2 9 -2 9 -2.25 6.625 C-1.99345272 3.93125358 -1.36770587 2.30800365 0 0 Z "
        fill="#E5F3F5" transform="translate(303,416)" />
    <path
        d="M0 0 C3.16259871 -0.40373601 5.14012639 -0.54458662 7.875 1.1875 C9.40659584 3.65507108 9.42822025 5.14519831 9 8 C7.875 9.8125 7.875 9.8125 6 11 C2.9375 11.3125 2.9375 11.3125 0 11 C-2 9 -2 9 -2.25 6.0625 C-2 3 -2 3 0 0 Z "
        fill="#EAF4EF" transform="translate(198,228)" />
    <path
        d="M0 0 C1.8125 1.125 1.8125 1.125 3 3 C3.3125 6.0625 3.3125 6.0625 3 9 C1 11 1 11 -2.5 11.3125 C-4.2325 11.1578125 -4.2325 11.1578125 -6 11 C-8.15502531 7.76746204 -8.46856135 6.74849077 -8 3 C-5.85607122 -0.27231235 -3.76836426 -0.56525464 0 0 Z "
        fill="#E9F4EC" transform="translate(321,207)" />
    <path
        d="M0 0 C0.33 0 0.66 0 1 0 C1.02685938 2.14576637 1.04633088 4.29162645 1.0625 6.4375 C1.07410156 7.63246094 1.08570313 8.82742188 1.09765625 10.05859375 C1 13 1 13 0 14 C-2.8843382 14.08865208 -5.74462158 14.11521296 -8.62890625 14.09765625 C-9.92525246 14.09553383 -9.92525246 14.09553383 -11.24778748 14.09336853 C-14.01939292 14.08775239 -16.7909188 14.07519719 -19.5625 14.0625 C-21.4368478 14.05748708 -23.31119685 14.05292381 -25.18554688 14.04882812 C-29.79039544 14.03777772 -34.39518421 14.0205023 -39 14 C-39.33 14.99 -39.66 15.98 -40 17 C-40.33 15.35 -40.66 13.7 -41 12 C-27.47 12 -13.94 12 0 12 C0 8.04 0 4.08 0 0 Z "
        fill="#70747B" transform="translate(263,551)" />
    <path
        d="M0 0 C3.125 0.25 3.125 0.25 5 1.4375 C6.53159584 3.90507108 6.55322025 5.39519831 6.125 8.25 C4.9375 10.0625 4.9375 10.0625 3.125 11.25 C0.28003228 11.67674516 -1.23852369 11.61066991 -3.75 10.1875 C-5.53810335 7.10798867 -4.62092606 4.60666727 -3.875 1.25 C-2.875 0.25 -2.875 0.25 0 0 Z "
        fill="#EFF7F8" transform="translate(377.875,456.75)" />
    <path
        d="M0 0 C3.0625 0.25 3.0625 0.25 6.0625 2.25 C6.4696827 5.43959781 6.57733719 7.41000247 4.875 10.1875 C3.0625 11.25 3.0625 11.25 0.5625 11.0625 C-1.9375 10.25 -1.9375 10.25 -4.9375 8.25 C-5.25 5.25 -5.25 5.25 -4.9375 2.25 C-2.9375 0.25 -2.9375 0.25 0 0 Z "
        fill="#EFF6EC" transform="translate(378.9375,124.75)" />
    <path
        d="M0 0 C2.14915785 3.22373677 2.38286803 4.26703674 2 8 C0 10 0 10 -3.5 10.25 C-7 10 -7 10 -9 8 C-9.125 4.875 -9.125 4.875 -9 2 C-5.89782379 0.16167336 -3.60591321 -0.47446226 0 0 Z "
        fill="#EDF6F3" transform="translate(262,294)" />
    <path
        d="M0 0 C0.99 0 1.98 0 3 0 C3.67119549 1.4562545 4.33681807 2.91507867 5 4.375 C5.556875 5.59316406 5.556875 5.59316406 6.125 6.8359375 C7 9 7 9 7 11 C7.99 11 8.98 11 10 11 C10.13277344 10.37351562 10.26554687 9.74703125 10.40234375 9.1015625 C10.57894531 8.28429687 10.75554687 7.46703125 10.9375 6.625 C11.11152344 5.81289063 11.28554688 5.00078125 11.46484375 4.1640625 C12 2 12 2 13 0 C13.99 0 14.98 0 16 0 C15.79503906 0.60328125 15.59007812 1.2065625 15.37890625 1.828125 C15.10949219 2.62734375 14.84007812 3.4265625 14.5625 4.25 C14.29566406 5.03890625 14.02882813 5.8278125 13.75390625 6.640625 C13.08045292 8.74821988 12.50849405 10.84753973 12 13 C11.34 13 10.68 13 10 13 C9.67 14.32 9.34 15.64 9 17 C8.01 16.67 7.02 16.34 6 16 C6 15.01 6 14.02 6 13 C5.34 13 4.68 13 4 13 C2.68 8.71 1.36 4.42 0 0 Z "
        fill="#41484F" transform="translate(475,619)" />
    <path d="M0 0 C1.32 0 2.64 0 4 0 C4 6.6 4 13.2 4 20 C2.68 19.67 1.36 19.34 0 19 C0 12.73 0 6.46 0 0 Z "
        fill="#7B8084" transform="translate(500,618)" />
    <path
        d="M0 0 C0.66 0 1.32 0 2 0 C3.62109375 1.64453125 3.62109375 1.64453125 5.4375 3.8125 C7.54463676 6.31102718 9.65241398 8.7242056 12 11 C10.43754389 14.83511953 7.89634216 17.10365784 5 20 C2.66424141 23.52747215 2.79180848 26.59042385 2.875 30.75 C2.89304687 31.92046875 2.91109375 33.0909375 2.9296875 34.296875 C2.95289063 35.18890625 2.97609375 36.0809375 3 37 C0.19227089 34.59972498 0.01794422 34.21533059 -0.3125 30.25 C-0.08194441 25.40833253 0.19025157 20.89333958 3.69140625 17.23046875 C5.41533935 15.74335878 7.16155735 14.34196482 9 13 C7.56053753 9.76484444 5.75526416 7.42295431 3.375 4.8125 C0 1.1 0 1.1 0 0 Z "
        fill="#6BB8CA" transform="translate(360,433)" />
    <path
        d="M0 0 C2.5 0.9375 2.5 0.9375 4 3 C4.32224406 6.02909419 4.22893734 8.96658025 4 12 C3.67 12 3.34 12 3 12 C2.5978125 10.329375 2.5978125 10.329375 2.1875 8.625 C1.34190981 4.78159049 1.34190981 4.78159049 -2 3 C-5.82748905 3.18232592 -5.82748905 3.18232592 -9 5 C-9.23075082 6.34747084 -9.41153063 7.70377565 -9.5625 9.0625 C-9.7790625 11.0115625 -9.7790625 11.0115625 -10 13 C-10.99 12.67 -11.98 12.34 -13 12 C-13.60377358 4.75471698 -13.60377358 4.75471698 -11 1.5 C-6.88248556 -0.55875722 -4.58746602 -0.50971845 0 0 Z "
        fill="#3C414B" transform="translate(552,619)" />
    <path
        d="M0 0 C0.66 0 1.32 0 2 0 C2.33 2.31 2.66 4.62 3 7 C5.31 7.33 7.62 7.66 10 8 C10 9.32 10 10.64 10 12 C10.66 12 11.32 12 12 12 C12.33 13.32 12.66 14.64 13 16 C12.01 16 11.02 16 10 16 C9.319375 15.0409375 9.319375 15.0409375 8.625 14.0625 C7.1337227 11.75235447 7.1337227 11.75235447 4.3125 11.25 C3.549375 11.1675 2.78625 11.085 2 11 C2 12.65 2 14.3 2 16 C1.34 16 0.68 16 0 16 C0 10.72 0 5.44 0 0 Z "
        fill="#434850" transform="translate(569,620)" />
    <path d="M0 0 C1.32 0 2.64 0 4 0 C4 5.94 4 11.88 4 18 C2.68 18 1.36 18 0 18 C0 12.06 0 6.12 0 0 Z " fill="#6A7076"
        transform="translate(160,619)" />
    <path
        d="M0 0 C-2.66909891 2.66909891 -4.74208973 2.68691704 -8.4375 3.375 C-14.92075023 4.68494902 -20.85085745 6.60866679 -27 9 C-28.03125 9.33 -29.0625 9.66 -30.125 10 C-33.53990337 11.18779248 -36.77140448 12.6689878 -40.046875 14.1953125 C-42 15 -42 15 -44 15 C-44 14.34 -44 13.68 -44 13 C-31.42484662 6.73906558 -14.22672473 -0.48704103 0 0 Z "
        fill="#A9CF83" transform="translate(470,129)" />
    <path
        d="M0 0 C4.29 0 8.58 0 13 0 C13 0.66 13 1.32 13 2 C11.35 2 9.7 2 8 2 C8 6.95 8 11.9 8 17 C7.01 17 6.02 17 5 17 C5 12.05 5 7.1 5 2 C3.35 2 1.7 2 0 2 C0 1.34 0 0.68 0 0 Z "
        fill="#454B54" transform="translate(202,619)" />
    <path
        d="M0 0 C3.96 0 7.92 0 12 0 C12 0.33 12 0.66 12 1 C8.7 1 5.4 1 2 1 C2 6.61 2 12.22 2 18 C2.66 18 3.32 18 4 18 C4 16.35 4 14.7 4 13 C5.65 13 7.3 13 9 13 C9.33 13.66 9.66 14.32 10 15 C8.68 14.67 7.36 14.34 6 14 C6 15.65 6 17.3 6 19 C4.35 19.33 2.7 19.66 1 20 C-0.1482685 17.703463 -0.11561175 16.41686833 -0.09765625 13.8671875 C-0.09443359 13.06152344 -0.09121094 12.25585938 -0.08789062 11.42578125 C-0.07951172 10.58402344 -0.07113281 9.74226562 -0.0625 8.875 C-0.05798828 8.02550781 -0.05347656 7.17601562 -0.04882812 6.30078125 C-0.03702874 4.20049091 -0.01909306 2.1002367 0 0 Z "
        fill="#BEBFC1" transform="translate(567,618)" />
    <path
        d="M0 0 C0.66 0 1.32 0 2 0 C2.22801811 3.35312796 2.42881968 6.70737072 2.625 10.0625 C2.68945312 11.00544922 2.75390625 11.94839844 2.8203125 12.91992188 C3.12879889 18.4533965 2.89759544 22.77799117 1 28 C-0.32 27.34 -1.64 26.68 -3 26 C-2.67 25.34 -2.34 24.68 -2 24 C-1.34 24.33 -0.68 24.66 0 25 C0 16.75 0 8.5 0 0 Z "
        fill="#60B1BD" transform="translate(370,397)" />
    <path
        d="M0 0 C0 3 0 3 -1.89599609 5.26831055 C-2.76305176 6.13238525 -3.63010742 6.99645996 -4.5234375 7.88671875 C-4.9848111 8.34859085 -5.44618469 8.81046295 -5.92153931 9.28633118 C-6.89820705 10.26065885 -7.87856859 11.23129576 -8.86230469 12.19848633 C-10.37095447 13.68351781 -11.8658202 15.18144453 -13.359375 16.68164062 C-20.7209538 24 -20.7209538 24 -23 24 C-21.63783245 20.95100103 -20.09928444 18.85205494 -17.734375 16.50390625 C-17.09113281 15.86259766 -16.44789063 15.22128906 -15.78515625 14.56054688 C-15.11355469 13.90119141 -14.44195312 13.24183594 -13.75 12.5625 C-13.09386719 11.90701172 -12.43773437 11.25152344 -11.76171875 10.57617188 C-7.9901975 6.83839186 -4.13440617 3.3319205 0 0 Z "
        fill="#7FBB7A" transform="translate(435,207)" />
    <path
        d="M0 0 C0.94875 0.04125 1.8975 0.0825 2.875 0.125 C3.625 2.375 3.625 2.375 3.875 5.125 C2.1875 7.5 2.1875 7.5 -0.125 9.125 C-2.34344626 8.93484746 -3.54022155 8.70977845 -5.125 7.125 C-5.3125 4.6875 -5.3125 4.6875 -5.125 2.125 C-3.125 0.125 -3.125 0.125 0 0 Z "
        fill="#E0E0E1" transform="translate(297.125,620.875)" />
    <path
        d="M0 0 C4.95 0 9.9 0 15 0 C14.55035228 5.30584305 13.98861466 8.51707801 11 13 C9.92850591 15.30783342 8.96917706 17.64628429 8 20 C7 18 7 18 7.70703125 15.3203125 C8.07183594 14.26585937 8.43664062 13.21140625 8.8125 12.125 C9.16957031 11.07570313 9.52664063 10.02640625 9.89453125 8.9453125 C11 6 11 6 13 2 C8.71 2 4.42 2 0 2 C0 1.34 0 0.68 0 0 Z "
        fill="#A7AAAE" transform="translate(435,531)" />
    <path
        d="M0 0 C0.99 0 1.98 0 3 0 C3 5.61 3 11.22 3 17 C2.01 17 1.02 17 0 17 C-2 14 -2 14 -2 11 C-1.34 11 -0.68 11 0 11 C0 7.37 0 3.74 0 0 Z "
        fill="#454B54" transform="translate(188,619)" />
    <path
        d="M0 0 C0.33 0 0.66 0 1 0 C1 4.62 1 9.24 1 14 C5.78655805 13.71110084 5.78655805 13.71110084 9.8125 11.4375 C10.204375 10.963125 10.59625 10.48875 11 10 C11.66 10 12.32 10 13 10 C13 8.35 13 6.7 13 5 C13.33 5 13.66 5 14 5 C14.60044272 11.24460432 14.60044272 11.24460432 12.0625 14.4375 C7.79922201 16.61264183 4.75340242 16.28378522 0 16 C0 10.72 0 5.44 0 0 Z "
        fill="#383F46" transform="translate(451,620)" />
    <path d="M0 0 C0.99 0 1.98 0 3 0 C3 5.94 3 11.88 3 18 C2.01 18 1.02 18 0 18 C0 12.06 0 6.12 0 0 Z " fill="#4D555B"
        transform="translate(274,618)" />
    <path
        d="M0 0 C0.66 0 1.32 0 2 0 C2 4.95 2 9.9 2 15 C4.97 15 7.94 15 11 15 C11 15.66 11 16.32 11 17 C7.37 17 3.74 17 0 17 C0 11.39 0 5.78 0 0 Z "
        fill="#353E47" transform="translate(252,619)" />
    <path
        d="M0 0 C3.96 0 7.92 0 12 0 C12 0.66 12 1.32 12 2 C8.7 2 5.4 2 2 2 C2 6.62 2 11.24 2 16 C1.34 16 0.68 16 0 16 C0 10.72 0 5.44 0 0 Z "
        fill="#3C424A" transform="translate(227,619)" />
    <path
        d="M0 0 C0.66 0 1.32 0 2 0 C1.625 2.9375 1.625 2.9375 1 6 C-2.12706959 7.5635348 -5.57982443 7.39958487 -9 7 C-9.99 6.34 -10.98 5.68 -12 5 C-12 4.01 -12 3.02 -12 2 C-11.319375 2.144375 -10.63875 2.28875 -9.9375 2.4375 C-6.63726918 3.06945909 -3.32855574 3.54313941 0 4 C0 2.68 0 1.36 0 0 Z "
        fill="#545A60" transform="translate(302,635)" />
    <path
        d="M0 0 C-3.60957611 3.2910841 -6.12637153 4.54663921 -11 5 C-11.33 5.99 -11.66 6.98 -12 8 C-13.65 8.33 -15.3 8.66 -17 9 C-16.67 8.34 -16.34 7.68 -16 7 C-15.34 7 -14.68 7 -14 7 C-14 5.68 -14 4.36 -14 3 C-13.01 3 -12.02 3 -11 3 C-11 2.34 -11 1.68 -11 1 C-7.26562152 0.12132271 -3.83225427 -0.08912219 0 0 Z "
        fill="#DCEBCF" transform="translate(493,171)" />
    <path
        d="M0 0 C2.33944736 0.28730055 4.6739143 0.61936779 7 1 C7.5625 2.9375 7.5625 2.9375 8 5 C7 6 7 6 5.15234375 6.09765625 C3.1015625 6.06510417 1.05078125 6.03255208 -1 6 C-1.042721 4.33388095 -1.04063832 2.66617115 -1 1 C-0.67 0.67 -0.34 0.34 0 0 Z "
        fill="#C8C9CB" transform="translate(572,621)" />
    <path
        d="M0 0 C1.32 0 2.64 0 4 0 C4.69710731 1.28650706 5.38242876 2.57940665 6.0625 3.875 C6.63677734 4.95394531 6.63677734 4.95394531 7.22265625 6.0546875 C7.47917969 6.69664062 7.73570312 7.33859375 8 8 C7.67 8.66 7.34 9.32 7 10 C6.34 8.68 5.68 7.36 5 6 C4.67 7.65 4.34 9.3 4 11 C2.68 11 1.36 11 0 11 C0.4979837 7.26512223 0.87491756 5.18762365 3 2 C2.01 2 1.02 2 0 2 C0 1.34 0 0.68 0 0 Z "
        fill="#8F9297" transform="translate(428,618)" />
    <path
        d="M0 0 C1.32 0.33 2.64 0.66 4 1 C4 1.99 4 2.98 4 4 C3.67 4.33 3.34 4.66 3 5 C2.76572222 7.01594582 2.58663876 9.038474 2.4375 11.0625 C2.31181641 12.71958984 2.31181641 12.71958984 2.18359375 14.41015625 C2.12300781 15.26480469 2.06242188 16.11945312 2 17 C1.34 17 0.68 17 0 17 C0 11.39 0 5.78 0 0 Z "
        fill="#4A4F56" transform="translate(176,619)" />
    <path
        d="M0 0 C1.32 0 2.64 0 4 0 C3.01 2.97 2.02 5.94 1 9 C2.32 9 3.64 9 5 9 C5.33 8.34 5.66 7.68 6 7 C6 7.99 6 8.98 6 10 C3.03 10 0.06 10 -3 10 C-2.39009109 6.44219804 -1.4216319 3.3171411 0 0 Z "
        fill="#6E7277" transform="translate(427,620)" />
    <path
        d="M0 0 C0.66 1.32 1.32 2.64 2 4 C1.38511719 3.89300781 0.77023437 3.78601563 0.13671875 3.67578125 C-1.07564453 3.49595703 -1.07564453 3.49595703 -2.3125 3.3125 C-3.11300781 3.18488281 -3.91351563 3.05726563 -4.73828125 2.92578125 C-7.0569747 2.78905501 -7.0569747 2.78905501 -8.75 4.28125 C-10.51925462 6.7139751 -10.67276673 9.0549006 -11 12 C-11.33 12 -11.66 12 -12 12 C-12.48 4.8 -12.48 4.8 -10.5 1.5 C-6.85991277 -0.68405234 -4.20345267 -0.28023018 0 0 Z "
        fill="#40454D" transform="translate(359,619)" />
    <path
        d="M0 0 C0.66 0.33 1.32 0.66 2 1 C-6.2095968 10.5344885 -6.2095968 10.5344885 -10 14 C-10.66 14 -11.32 14 -12 14 C-12 14.66 -12 15.32 -12 16 C-12.66 15.67 -13.32 15.34 -14 15 C-9.53648711 9.77674023 -4.9255107 4.79077028 0 0 Z "
        fill="#D5EAD6" transform="translate(409,212)" />
    <path
        d="M0 0 C0 3 0 3 -2.51953125 5.8828125 C-3.60942202 6.97137251 -4.70745897 8.0518229 -5.8125 9.125 C-6.35970703 9.67542969 -6.90691406 10.22585937 -7.47070312 10.79296875 C-9.93983449 13.22917837 -11.6683372 14.88944573 -15 16 C-14.67 15.01 -14.34 14.02 -14 13 C-13.34 13 -12.68 13 -12 13 C-11.62875 12.13955078 -11.62875 12.13955078 -11.25 11.26171875 C-9.80910669 8.65460242 -8.12508021 6.89460984 -6 4.8125 C-4.948125 3.77029297 -4.948125 3.77029297 -3.875 2.70703125 C-2 1 -2 1 0 0 Z "
        fill="#8CC381" transform="translate(386,169)" />
    <path
        d="M0 0 C-1.58667578 3.90285767 -4.13350481 6.33520982 -7.125 9.25 C-8.03507813 10.14203125 -8.94515625 11.0340625 -9.8828125 11.953125 C-10.58148438 12.62859375 -11.28015625 13.3040625 -12 14 C-12.99 13.67 -13.98 13.34 -15 13 C-12.88094537 10.82722286 -10.75527122 8.66173092 -8.625 6.5 C-8.02171875 5.87996094 -7.4184375 5.25992188 -6.796875 4.62109375 C-6.21679688 4.03457031 -5.63671875 3.44804687 -5.0390625 2.84375 C-4.50490723 2.29912109 -3.97075195 1.75449219 -3.42041016 1.19335938 C-2 0 -2 0 0 0 Z "
        fill="#75B784" transform="translate(254,176)" />
    <path
        d="M0 0 C2.97 0.33 5.94 0.66 9 1 C9 1.66 9 2.32 9 3 C9.66 3.33 10.32 3.66 11 4 C9.10511048 5.89488952 6.42860854 5.18019112 3.91015625 5.23046875 C2 5 2 5 0 3 C0 2.01 0 1.02 0 0 Z "
        fill="#777C81" transform="translate(515,632)" />
    <path
        d="M0 0 C2.64 0.33 5.28 0.66 8 1 C8 1.66 8 2.32 8 3 C7.34 3 6.68 3 6 3 C6 3.66 6 4.32 6 5 C6.66 5 7.32 5 8 5 C7.67 5.66 7.34 6.32 7 7 C4.36 6.01 1.72 5.02 -1 4 C-0.67 2.68 -0.34 1.36 0 0 Z "
        fill="#CCCCCD" transform="translate(520,621)" />
    <path
        d="M0 0 C0.33 0 0.66 0 1 0 C1.33 4.29 1.66 8.58 2 13 C4.97 13.33 7.94 13.66 11 14 C11 14.66 11 15.32 11 16 C7.37 16 3.74 16 0 16 C0 10.72 0 5.44 0 0 Z "
        fill="#3B4148" transform="translate(322,620)" />
    <path
        d="M0 0 C0.86625 0.804375 1.7325 1.60875 2.625 2.4375 C5.62876093 4.96924136 8.03203262 5.71657376 12 6 C11.67 6.99 11.34 7.98 11 9 C7.14354879 9.22036864 4.50776784 8.60355101 1 7 C1.33 6.01 1.66 5.02 2 4 C1.12516085 1.83284443 1.12516085 1.83284443 0 0 Z "
        fill="#CACACD" transform="translate(289,630)" />
    <path
        d="M0 0 C-1 3 -1 3 -4 5 C-8.1520599 4.67047144 -11.97733812 4.0529115 -16 3 C-14.08487728 2.49411853 -12.16783078 1.99551609 -10.25 1.5 C-8.64898437 1.08234375 -8.64898437 1.08234375 -7.015625 0.65625 C-4 0 -4 0 0 0 Z "
        fill="#92C369" transform="translate(499,168)" />
    <path
        d="M0 0 C3.3 0 6.6 0 10 0 C10 0.99 10 1.98 10 3 C7.03 3 4.06 3 1 3 C0.67 4.32 0.34 5.64 0 7 C0 4.69 0 2.38 0 0 Z "
        fill="#606368" transform="translate(323,626)" />
    <path
        d="M0 0 C0.33 0.66 0.66 1.32 1 2 C0.01 2 -0.98 2 -2 2 C-2 2.66 -2 3.32 -2 4 C-1.34 4.33 -0.68 4.66 0 5 C-2.97 5 -5.94 5 -9 5 C-9 3.68 -9 2.36 -9 1 C-4.545 0.505 -4.545 0.505 0 0 Z "
        fill="#E0DFE0" transform="translate(333,621)" />
    <path
        d="M0 0 C0.33 0 0.66 0 1 0 C1.2562212 7.68663594 1.2562212 7.68663594 -1 12 C-1.42151885 13.57158878 -1.7968834 15.15629082 -2.125 16.75 C-2.29257812 17.54921875 -2.46015625 18.3484375 -2.6328125 19.171875 C-2.81457031 20.07679688 -2.81457031 20.07679688 -3 21 C-4.26823485 17.34606463 -3.75715321 14.50929974 -3.0625 10.75 C-2.86785156 9.67234375 -2.67320312 8.5946875 -2.47265625 7.484375 C-2.31667969 6.66453125 -2.16070313 5.8446875 -2 5 C-1.34 5 -0.68 5 0 5 C0 3.35 0 1.7 0 0 Z "
        fill="#B1D49C" transform="translate(550,189)" />
    <path
        d="M0 0 C3.63 0 7.26 0 11 0 C11 0.66 11 1.32 11 2 C8.03 2 5.06 2 2 2 C2 3.65 2 5.3 2 7 C1.34 7 0.68 7 0 7 C0 4.69 0 2.38 0 0 Z "
        fill="#3E444C" transform="translate(374,619)" />
    <path
        d="M0 0 C0.33 0.99 0.66 1.98 1 3 C-1.97 5.97 -4.94 8.94 -8 12 C-8.99 11.67 -9.98 11.34 -11 11 C-7.33333333 7.33333333 -3.66666667 3.66666667 0 0 Z "
        fill="#DBEBDA" transform="translate(374,165)" />
    <path
        d="M0 0 C1.35439668 2.70879335 1.06501451 5.00933268 1 8 C2.98 8.66 4.96 9.32 7 10 C7 10.33 7 10.66 7 11 C4.23735711 11.59732819 1.83967231 12 -1 12 C-1.66 11.01 -2.32 10.02 -3 9 C-2.34 9 -1.68 9 -1 9 C-1.020625 7.700625 -1.04125 6.40125 -1.0625 5.0625 C-1.08399454 3.70834367 -1.07148199 2.35243917 -1 1 C-0.67 0.67 -0.34 0.34 0 0 Z "
        fill="#767A7E" transform="translate(543,623)" />
    <path
        d="M0 0 C0.66 0.33 1.32 0.66 2 1 C2.73075648 3.3140622 3.40138258 5.64828869 4 8 C2.68 8 1.36 8 0 8 C-0.33 7.01 -0.66 6.02 -1 5 C-3.64 4.67 -6.28 4.34 -9 4 C-9 3.67 -9 3.34 -9 3 C-6.03 3 -3.06 3 0 3 C0 2.01 0 1.02 0 0 Z "
        fill="#4F545A" transform="translate(435,628)" />
    <path
        d="M0 0 C1.17571451 3.67410785 1.07366746 7.16929183 1 11 C0.01 10.67 -0.98 10.34 -2 10 C-2.1953125 3.9453125 -2.1953125 3.9453125 -2 2 C-1.34 1.34 -0.68 0.68 0 0 Z "
        fill="#4F555E" transform="translate(541,621)" />
    <path
        d="M0 0 C0.66 0.33 1.32 0.66 2 1 C1.67 1.66 1.34 2.32 1 3 C0.34 3 -0.32 3 -1 3 C-1.2475 3.61875 -1.495 4.2375 -1.75 4.875 C-3.20628639 7.35068687 -4.37812506 7.95125002 -7 9 C-7 9.66 -7 10.32 -7 11 C-7.66 10.67 -8.32 10.34 -9 10 C-7.8758824 8.70756532 -6.75067408 7.41607925 -5.625 6.125 C-4.99851563 5.40570313 -4.37203125 4.68640625 -3.7265625 3.9453125 C-2.52573166 2.5923402 -1.2791655 1.2791655 0 0 Z "
        fill="#D3E9D3" transform="translate(250,134)" />
    <path
        d="M0 0 C1.32 0.33 2.64 0.66 4 1 C1.9375 3.5 1.9375 3.5 -1 6 C-4.8125 6.3125 -4.8125 6.3125 -8 6 C-8.33 5.34 -8.66 4.68 -9 4 C-7.02 4 -5.04 4 -3 4 C-2.67 3.34 -2.34 2.68 -2 2 C-1.34 2 -0.68 2 0 2 C0 1.34 0 0.68 0 0 Z "
        fill="#68B198" transform="translate(247,285)" />
    <path d="M0 0 C2.475 0.495 2.475 0.495 5 1 C4.67 2.65 4.34 4.3 4 6 C2.68 6.33 1.36 6.66 0 7 C0 4.69 0 2.38 0 0 Z "
        fill="#4E5359" transform="translate(524,628)" />
    <path
        d="M0 0 C0.66 0.33 1.32 0.66 2 1 C0.90344712 2.31886772 -0.20253423 3.62990057 -1.3125 4.9375 C-1.92738281 5.66839844 -2.54226562 6.39929688 -3.17578125 7.15234375 C-5 9 -5 9 -8 10 C-6.34908222 5.70761377 -3.26245434 3.1206085 0 0 Z "
        fill="#64696F" transform="translate(220,535)" />
    <path
        d="M0 0 C0.66 0.33 1.32 0.66 2 1 C0.88266271 2.50571657 -0.24410035 4.00444292 -1.375 5.5 C-2.00148438 6.3353125 -2.62796875 7.170625 -3.2734375 8.03125 C-3.84320313 8.6809375 -4.41296875 9.330625 -5 10 C-5.66 10 -6.32 10 -7 10 C-5.6062718 5.56541027 -3.39417765 3.12621626 0 0 Z "
        fill="#A1CC70" transform="translate(382,71)" />
    <path
        d="M0 0 C2.97 0 5.94 0 9 0 C9 0.33 9 0.66 9 1 C7.02 1.33 5.04 1.66 3 2 C5.31 2.33 7.62 2.66 10 3 C10 3.33 10 3.66 10 4 C6.7 4 3.4 4 0 4 C0 2.68 0 1.36 0 0 Z "
        fill="#E0E0E0" transform="translate(230,629)" />
    <path d="M0 0 C1.65 0 3.3 0 5 0 C4.34 2.64 3.68 5.28 3 8 C2.01 7.67 1.02 7.34 0 7 C0 4.69 0 2.38 0 0 Z "
        fill="#3C414B" transform="translate(301,620)" />
    <path
        d="M0 0 C0.33 0.99 0.66 1.98 1 3 C-1.95664519 4.4783226 -4.74229737 4.06032783 -8 4 C-8.33 3.34 -8.66 2.68 -9 2 C-6.03 1.34 -3.06 0.68 0 0 Z "
        fill="#41464C" transform="translate(553,632)" />
    <path
        d="M0 0 C0.33 0 0.66 0 1 0 C0.979375 0.78375 0.95875 1.5675 0.9375 2.375 C0.81315937 4.98114961 0.81315937 4.98114961 2 7 C-1 9 -1 9 -4 9 C-3.625 7.0625 -3.625 7.0625 -3 5 C-2.34 4.67 -1.68 4.34 -1 4 C-0.34786708 1.97536745 -0.34786708 1.97536745 0 0 Z "
        fill="#63686E" transform="translate(301,622)" />
    <path d="M0 0 C2.64 0 5.28 0 8 0 C8 0.99 8 1.98 8 3 C5.03 3 2.06 3 -1 3 C-0.67 2.01 -0.34 1.02 0 0 Z "
        fill="#D1D2D3" transform="translate(426,632)" />
    <path
        d="M0 0 C0.66 0.33 1.32 0.66 2 1 C2 1.66 2 2.32 2 3 C2.66 3 3.32 3 4 3 C3.34 4.65 2.68 6.3 2 8 C1.67 7.01 1.34 6.02 1 5 C0.34 5 -0.32 5 -1 5 C-0.67 3.35 -0.34 1.7 0 0 Z "
        fill="#4F545A" transform="translate(480,627)" />
    <path d="M0 0 C1.32 0 2.64 0 4 0 C3.34 1.98 2.68 3.96 2 6 C1.01 6 0.02 6 -1 6 C-0.67 4.02 -0.34 2.04 0 0 Z "
        fill="#454B53" transform="translate(427,620)" />
    <path
        d="M0 0 C4.31392226 0.4793247 6.16569547 1.7457985 9 5 C5.65626525 4.44271087 2.96687001 3.64826111 0 2 C0 1.34 0 0.68 0 0 Z "
        fill="#3D4147" transform="translate(291,630)" />
    <path d="M0 0 C2.31 0 4.62 0 7 0 C7.33 0.99 7.66 1.98 8 3 C5.03 2.67 2.06 2.34 -1 2 C-0.67 1.34 -0.34 0.68 0 0 Z "
        fill="#494D59" transform="translate(520,619)" />
    <path
        d="M0 0 C0.66 0.33 1.32 0.66 2 1 C-2.625 6.875 -2.625 6.875 -6 8 C-4.55746343 4.63408134 -2.66735273 2.48952921 0 0 Z "
        fill="#CCCED0" transform="translate(555,545)" />
    <path d="M0 0 C-1.50223584 4.20626034 -4.28550034 5.73900021 -8 8 C-6.48291727 4.46014029 -4.24676932 0 0 0 Z "
        fill="#78B894" transform="translate(193,218)" />
    <path
        d="M0 0 C0.99 1.485 0.99 1.485 2 3 C2.66 3 3.32 3 4 3 C4.66 2.01 5.32 1.02 6 0 C6 1.65 6 3.3 6 5 C4.35 5.33 2.7 5.66 1 6 C0.67 4.02 0.34 2.04 0 0 Z "
        fill="#B6B9BB" transform="translate(480,632)" />
    <path
        d="M0 0 C0.66 0.33 1.32 0.66 2 1 C-0.38957269 4.24299151 -2.2047869 6.50902342 -6 8 C-4.55746343 4.63408134 -2.66735273 2.48952921 0 0 Z "
        fill="#6C7277" transform="translate(280,536)" />
    <path
        d="M0 0 C-2.125 2.125 -2.125 2.125 -5 4 C-8.3125 3.25 -8.3125 3.25 -11 2 C-11 1.67 -11 1.34 -11 1 C-7.26562152 0.12132271 -3.83225427 -0.08912219 0 0 Z "
        fill="#C6DFB0" transform="translate(493,171)" />
    <path
        d="M0 0 C0.66 0.33 1.32 0.66 2 1 C-1.465 3.97 -1.465 3.97 -5 7 C-3.92643531 2.70574125 -3.4915227 2.25259529 0 0 Z "
        fill="#59B1C5" transform="translate(369,446)" />
</svg>