<?xml version="1.0" encoding="UTF-8"?>
<svg version="1.1" xmlns="http://www.w3.org/2000/svg" width="1266" height="338">
<path d="M0 0 C417.78 0 835.56 0 1266 0 C1266 111.54 1266 223.08 1266 338 C848.22 338 430.44 338 0 338 C0 226.46 0 114.92 0 0 Z " fill="#1F262F" transform="translate(0,0)"/>
<path d="M0 0 C1.53970768 0.01005603 3.07942176 0.01917721 4.61914062 0.02734375 C8.35039587 0.04913532 12.08140554 0.08351858 15.8125 0.125 C16.33026473 29.70529715 12.12068733 54.13012875 -8.51953125 76.671875 C-10.69496481 78.88066274 -12.91349526 81.01820149 -15.1875 83.125 C-15.80625 83.7128125 -16.425 84.300625 -17.0625 84.90625 C-20.79613347 88.30652333 -24.44737685 90.38550527 -29.1875 92.125 C-30.62802734 92.72828125 -30.62802734 92.72828125 -32.09765625 93.34375 C-41.3545333 97.13917992 -49.88108846 99.17226378 -59.89013672 99.14135742 C-60.88181854 99.13899582 -61.87350037 99.13663422 -62.89523315 99.13420105 C-64.02990524 99.12964653 -64.02990524 99.12964653 -65.1875 99.125 C-65.28891744 107.00859592 -65.35897331 114.89202362 -65.40722656 122.77612305 C-65.42508325 125.45827823 -65.45291436 128.1400546 -65.48925781 130.82202148 C-65.53777542 134.67703066 -65.56046994 138.53145998 -65.578125 142.38671875 C-65.59877014 143.58584396 -65.61941528 144.78496918 -65.64068604 146.02043152 C-65.74720003 152.4971706 -65.74720003 152.4971706 -63.18481445 158.27416992 C-62.52570068 158.88494385 -61.86658691 159.49571777 -61.1875 160.125 C-60.71721779 163.30601 -61.18346012 166.0776509 -62.1875 169.125 C-64.9605869 171.81652552 -66.88716845 172.07673243 -70.6875 172.6875 C-74.1875 172.125 -74.1875 172.125 -77.125 169.5625 C-79.59300817 166.12520809 -79.82178403 163.32713171 -79.1875 159.125 C-77.6875 157.1875 -77.6875 157.1875 -76.1875 156.125 C-77.5750818 152.98620619 -79.18273408 150.90245205 -81.63671875 148.515625 C-82.32056641 147.84273437 -83.00441406 147.16984375 -83.70898438 146.4765625 C-84.42376953 145.78304687 -85.13855469 145.08953125 -85.875 144.375 C-90.71780891 139.65337352 -95.35594291 134.91063307 -99.65551758 129.68261719 C-101.2116335 127.86438933 -101.2116335 127.86438933 -104.1875 127.125 C-105.22539581 125.48166496 -106.22317924 123.81256133 -107.1875 122.125 C-107.70739502 121.74432373 -108.22729004 121.36364746 -108.76293945 120.97143555 C-111.07378155 117.97625153 -110.55318055 114.58219348 -110.48046875 110.95703125 C-110.47622391 110.16221848 -110.47197906 109.3674057 -110.46760559 108.54850769 C-110.4508193 106.01115979 -110.41316824 103.47460762 -110.375 100.9375 C-110.35995305 99.21680835 -110.34626466 97.49610424 -110.33398438 95.77539062 C-110.30091607 91.55828738 -110.24913495 87.34177858 -110.1875 83.125 C-107.8775 83.125 -105.5675 83.125 -103.1875 83.125 C-103.29336426 83.98851074 -103.39922852 84.85202148 -103.50830078 85.74169922 C-105.55609403 105.02759819 -105.55609403 105.02759819 -98.01739502 122.15075684 C-92.58447715 128.22528355 -86.47964407 133.68117755 -80.12568665 138.77711487 C-78.78191684 139.85549809 -77.4799456 140.98560892 -76.1875 142.125 C-76.1875 142.785 -76.1875 143.445 -76.1875 144.125 C-75.5275 144.125 -74.8675 144.125 -74.1875 144.125 C-74.1875 139.505 -74.1875 134.885 -74.1875 130.125 C-75.8375 129.465 -77.4875 128.805 -79.1875 128.125 C-79.75203724 113.32157906 -77.16208881 99.2932401 -73.1875 85.125 C-72.95160156 84.27292969 -72.71570313 83.42085938 -72.47265625 82.54296875 C-65.76111317 60.50210241 -48.50499825 39.84366697 -28.18359375 28.8828125 C-24.89737678 27.19496439 -21.56261952 25.62790277 -18.1875 24.125 C-24.24338101 25.06470567 -29.24346363 26.9057672 -34.6875 29.625 C-35.31092285 29.93381104 -35.9343457 30.24262207 -36.57666016 30.56079102 C-39.99227918 32.18815899 -39.99227918 32.18815899 -42.1875 35.125 C-43.58926342 35.76298207 -45.00993116 36.35956487 -46.4375 36.9375 C-57.38214326 42.25257101 -65.70154633 52.49596475 -71.1875 63.125 C-71.6 63.79144531 -72.0125 64.45789063 -72.4375 65.14453125 C-76.34102453 71.52435415 -78.56964681 78.47939876 -80.953125 85.52734375 C-82.1875 89.125 -82.1875 89.125 -83.1875 91.125 C-83.8475 91.125 -84.5075 91.125 -85.1875 91.125 C-85.24284912 91.72973145 -85.29819824 92.33446289 -85.35522461 92.95751953 C-85.60953865 95.72189466 -85.86724082 98.48594407 -86.125 101.25 C-86.21201172 102.20132813 -86.29902344 103.15265625 -86.38867188 104.1328125 C-86.82945178 108.83446481 -87.31918195 113.47832502 -88.1875 118.125 C-88.8475 117.795 -89.5075 117.465 -90.1875 117.125 C-91.52100067 112.67999776 -92.47925731 108.7931169 -92.1875 104.125 C-92.8475 104.125 -93.5075 104.125 -94.1875 104.125 C-95.25951612 67.0563319 -95.25951612 67.0563319 -89.1875 53.125 C-88.88166992 52.41005371 -88.57583984 51.69510742 -88.26074219 50.95849609 C-80.79179231 34.10349199 -67.12046112 18.07312461 -50.1875 10.125 C-48.8675 10.125 -47.5475 10.125 -46.1875 10.125 C-46.1875 9.465 -46.1875 8.805 -46.1875 8.125 C-43.41979617 7.15676037 -40.64883261 6.20039683 -37.875 5.25 C-37.10865234 4.98058594 -36.34230469 4.71117188 -35.55273438 4.43359375 C-23.69750209 0.39986326 -12.40527035 -0.14214233 0 0 Z " fill="#459550" transform="translate(460.1875,112.875)"/>
<path d="M0 0 C3.70237797 0.31917051 5.08801878 0.67403953 7.625 3.3125 C7.625 3.9725 7.625 4.6325 7.625 5.3125 C9.36136719 5.38597656 9.36136719 5.38597656 11.1328125 5.4609375 C12.6718967 5.53601478 14.2109581 5.61156043 15.75 5.6875 C16.51054687 5.7184375 17.27109375 5.749375 18.0546875 5.78125 C22.57132158 6.014869 26.36652347 6.63904117 30.625 8.3125 C30.625 8.9725 30.625 9.6325 30.625 10.3125 C31.32367188 10.41820313 32.02234375 10.52390625 32.7421875 10.6328125 C36.0409806 11.41057673 38.72477523 12.66351459 41.75 14.1875 C42.78382813 14.70054688 43.81765625 15.21359375 44.8828125 15.7421875 C47.25023891 17.09789322 48.85379412 18.27255944 50.625 20.3125 C48.25301367 21.49849317 46.6470044 21.54714693 44 21.625 C42.77410156 21.68107422 42.77410156 21.68107422 41.5234375 21.73828125 C38.75513589 21.331617 37.43501734 20.77437623 35.0390625 19.46484375 C29.83358963 16.69862965 24.3669206 15.70513501 18.625 14.5625 C17.56410156 14.34207031 16.50320313 14.12164062 15.41015625 13.89453125 C12.81697822 13.35720607 10.22216522 12.83014366 7.625 12.3125 C7.295 13.3025 6.965 14.2925 6.625 15.3125 C3.85888354 17.44028189 2.48290531 17.30045808 -1.0625 17 C-4.375 16.3125 -4.375 16.3125 -5.375 15.3125 C-9.15941282 15.05586384 -12.95794481 15.12724914 -16.75 15.125 C-18.32201172 15.10663086 -18.32201172 15.10663086 -19.92578125 15.08789062 C-28.36459473 15.07224388 -36.21489253 16.21529815 -44.375 18.3125 C-42.10192336 21.99090889 -42.10192336 21.99090889 -39.375 25.3125 C-35.11167496 25.62217946 -30.83568498 25.59095976 -26.5625 25.625 C-24.75942383 25.66850586 -24.75942383 25.66850586 -22.91992188 25.71289062 C-21.18645508 25.72545898 -21.18645508 25.72545898 -19.41796875 25.73828125 C-17.82505005 25.76015503 -17.82505005 25.76015503 -16.19995117 25.7824707 C-12.69410009 25.19922264 -11.72633065 23.87818451 -9.375 21.3125 C-5.30687045 20.72077207 -3.10499792 20.93973511 0.5625 22.8125 C2.92238696 25.67296904 3.36161074 27.63616903 3.10546875 31.33984375 C2.24630844 34.86729057 0.56102134 36.31350675 -2.375 38.3125 C-6.03421222 38.81721893 -8.24249614 39.11621242 -11.3125 36.9375 C-12.375 35.3125 -12.375 35.3125 -12.375 33.3125 C-26.46389122 31.87202971 -26.46389122 31.87202971 -39.48193359 35.71777344 C-41.20547287 37.49971239 -42.70776303 39.32407264 -44.1875 41.3125 C-47.24024063 45.38214829 -49.59078583 47.90345815 -54.67626953 49.06933594 C-62.89685858 49.9243369 -71.13168845 49.77017606 -79.375 49.3125 C-80.01800443 50.5730078 -80.65805252 51.83502391 -81.296875 53.09765625 C-81.65362305 53.80027588 -82.01037109 54.50289551 -82.37792969 55.22680664 C-85.05390576 60.82447157 -86.48951252 67.1287531 -85.375 73.3125 C-84.39178153 74.32900452 -83.39206778 75.3298642 -82.375 76.3125 C-81.99066298 80.54020727 -81.94757583 83.75832753 -84.375 87.3125 C-87.32474764 88.35459231 -90.26132748 88.46735405 -93.375 88.3125 C-95.9375 87 -95.9375 87 -97.375 85.3125 C-97.375 84.6525 -97.375 83.9925 -97.375 83.3125 C-98.365 83.3125 -99.355 83.3125 -100.375 83.3125 C-100.75 80.6875 -100.75 80.6875 -100.375 77.3125 C-98.86234905 75.96426763 -97.34923923 74.61653965 -95.83203125 73.2734375 C-93.23775473 69.7819447 -93.2759448 65.63579704 -92.78515625 61.4140625 C-92.27927933 57.5886694 -91.12470722 54.7494249 -89.375 51.3125 C-88.97539062 50.41015625 -88.57578125 49.5078125 -88.1640625 48.578125 C-84.64377009 40.91516804 -80.26405225 35.29552649 -74.375 29.3125 C-73.83359375 28.68730469 -73.2921875 28.06210938 -72.734375 27.41796875 C-65.06498417 18.83832194 -53.25141609 13.4683513 -42.375 10.3125 C-41.11171875 9.94125 -39.8484375 9.57 -38.546875 9.1875 C-28.05409581 6.31734401 -18.21005557 5.85628713 -7.375 6.3125 C-7.08625 5.69375 -6.7975 5.075 -6.5 4.4375 C-4.67831223 0.99653421 -3.96774605 0.36738389 0 0 Z " fill="#649A3D" transform="translate(395.375,88.6875)"/>
<path d="M0 0 C0.91201172 -0.03673828 1.82402344 -0.07347656 2.76367188 -0.11132812 C9.77144556 -0.15653957 13.61084798 1.78707409 18.6875 6.5625 C17.93768723 9.89811571 17.10344674 12.05707375 14.6875 14.5625 C13.3675 14.5625 12.0475 14.5625 10.6875 14.5625 C10.1925 13.5725 10.1925 13.5725 9.6875 12.5625 C3.58329071 9.88260324 -1.82755915 9.77560206 -8.0625 11.75 C-12.50533595 14.22773543 -14.70759106 16.74777318 -16.3125 21.5625 C-16.78164411 28.70290634 -16.78164411 28.70290634 -15.3125 35.5625 C-10.67350318 39.89895355 -7.30778779 42.84741337 -0.875 42.8125 C0.07246094 42.81765625 1.01992188 42.8228125 1.99609375 42.828125 C4.7759577 42.55376978 6.41551334 42.18161693 8.6875 40.5625 C9.50620185 37.00043339 9.50620185 37.00043339 9.6875 33.5625 C6.0575 33.5625 2.4275 33.5625 -1.3125 33.5625 C-1.3125 30.2625 -1.3125 26.9625 -1.3125 23.5625 C5.9475 23.5625 13.2075 23.5625 20.6875 23.5625 C20.6875 30.8225 20.6875 38.0825 20.6875 45.5625 C11.6875 50.5625 11.6875 50.5625 8.6875 50.5625 C8.6875 51.2225 8.6875 51.8825 8.6875 52.5625 C-4.34992143 53.14481659 -13.6068795 52.46101028 -23.71875 43.34375 C-28.59817115 37.8902793 -28.54643036 31.01598541 -28.47265625 24.0390625 C-28.24878191 20.57720071 -27.55366894 17.80333 -26.3125 14.5625 C-25.6525 14.2325 -24.9925 13.9025 -24.3125 13.5625 C-23.9 12.82 -23.4875 12.0775 -23.0625 11.3125 C-20.92082592 7.94701216 -18.48006999 5.96985319 -15.3125 3.5625 C-14.63574219 3.03011719 -13.95898438 2.49773437 -13.26171875 1.94921875 C-8.88165769 -0.11028016 -4.78368618 0.0100147 0 0 Z " fill="#D5D6D6" transform="translate(534.3125,124.4375)"/>
<path d="M0 0 C0.886875 0.53625 1.77375 1.0725 2.6875 1.625 C6.80723246 5.85607659 7.78973547 10.9323988 8.375 16.6875 C7.68104809 22.81740852 4.49783811 27.83012925 0 32 C-5.64586704 36.0831717 -11.167197 36.88270661 -18 36 C-24.06949454 34.67674083 -28.88221603 31.64248775 -33 27 C-35.59998832 22.0261093 -35.56626505 16.50086046 -35 11 C-33.25821319 5.96817143 -30.20475506 2.21598843 -26 -1 C-18.37067444 -4.42541147 -7.01968369 -4.91377858 0 0 Z " fill="#DADBDB" transform="translate(849,141)"/>
<path d="M0 0 C4.28541213 3.15441677 7.00731055 6.3766732 9.6875 11 C9.6875 14.3 9.6875 17.6 9.6875 21 C0.1175 21 -9.4525 21 -19.3125 21 C-18.3225 22.65 -17.3325 24.3 -16.3125 26 C-15.9825 26.99 -15.6525 27.98 -15.3125 29 C-11.6825 29.33 -8.0525 29.66 -4.3125 30 C-4.3125 29.34 -4.3125 28.68 -4.3125 28 C-2.09273089 26.65228304 -0.81102224 25.95601274 1.8125 26.1875 C3.6875 27 3.6875 27 5.6875 30 C5.6875 30.99 5.6875 31.98 5.6875 33 C-0.60199812 37.25376685 -5.69398503 39.26975249 -13.3125 38 C-20.87626996 35.92606308 -25.53716857 31.74277528 -29.453125 25.05078125 C-31.49978795 20.16669922 -30.69164801 15.13744404 -29.0625 10.25 C-26.39356037 5.29339782 -23.16892865 0.19046276 -17.515625 -1.5546875 C-11.53788587 -2.76295392 -5.41335071 -3.10824376 0 0 Z " fill="#D7D7D8" transform="translate(660.3125,139)"/>
<path d="M0 0 C3.47838801 0.41740656 6.63463214 0.86784567 9.9375 2.0625 C13.92340362 3.28267458 16.83310471 3.34154879 21 3 C21.72316406 2.26330078 21.72316406 2.26330078 22.4609375 1.51171875 C24.47670077 -0.46823146 25.64979179 -0.46239179 28.4375 -0.5 C31.94598969 -0.37428864 32.75524971 -0.20296366 35.5625 2.125 C37.25419769 5.50839538 37.62195931 7.26824414 37 11 C35.5625 13.875 35.5625 13.875 33 16 C29.88554394 16.6571788 27.11726982 16.64093398 24 16 C22.62298702 14.71182656 21.29355827 13.37195574 20 12 C16.72850697 10.75693667 13.39163014 9.85438011 10 9 C10.495 9.7425 10.99 10.485 11.5 11.25 C13 14 13 14 13 18 C13.66 18 14.32 18 15 18 C16.03824648 19.39542748 17.00400643 20.84492943 17.9375 22.3125 C23.09440114 29.88669856 29.55166621 36.70896729 37.0625 42 C42.55708083 45.8758454 48.97337033 51.94674067 52 58 C53.99145391 59.01691264 55.99187074 60.01642648 58 61 C60.3920839 63.3920839 60.34576948 64.15138886 60.4375 67.4375 C60.32187355 71.66806791 60.32187355 71.66806791 58 74.0625 C53.89932919 75.34395963 51.3075508 75.54699058 47 75 C44.5 72.9375 44.5 72.9375 43 70 C42.75 66.4375 42.75 66.4375 43 63 C43 57.39872075 40.52633079 55.68029685 36.82421875 51.69921875 C33.92421112 48.92756554 30.85844716 46.54414503 27.625 44.1875 C13.1407277 33.51710865 4.78502373 19.28237983 0 2 C0 1.34 0 0.68 0 0 Z " fill="#228274" transform="translate(303,190)"/>
<path d="M0 0 C2.08783098 1.22932133 3.87116876 2.55367942 5.7109375 4.12890625 C6.31292969 4.62519531 6.91492188 5.12148437 7.53515625 5.6328125 C9.2109375 7.25390625 9.2109375 7.25390625 11.7109375 11.12890625 C11.7109375 14.75890625 11.7109375 18.38890625 11.7109375 22.12890625 C2.1409375 22.12890625 -7.4290625 22.12890625 -17.2890625 22.12890625 C-16.2990625 23.77890625 -15.3090625 25.42890625 -14.2890625 27.12890625 C-13.9590625 28.11890625 -13.6290625 29.10890625 -13.2890625 30.12890625 C-7.29172039 30.44333001 -3.39858615 30.58534872 1.7109375 27.12890625 C4.43256804 27.28900216 5.42817295 27.8764379 7.4609375 29.69140625 C7.8734375 30.16578125 8.2859375 30.64015625 8.7109375 31.12890625 C7.58721562 34.50007189 7.23931151 34.68772746 4.2734375 36.25390625 C3.65597656 36.58648437 3.03851562 36.9190625 2.40234375 37.26171875 C-3.18469321 40.12620421 -8.83386954 39.46181377 -14.9765625 38.62890625 C-20.60139903 36.08181046 -25.03974101 30.9128758 -27.2890625 25.12890625 C-27.97328461 18.74875722 -28.24133568 12.43977334 -24.2890625 7.12890625 C-17.38241254 0.22225629 -9.90523005 -3.76939642 0 0 Z " fill="#D9DADA" transform="translate(615.2890625,137.87109375)"/>
<path d="M0 0 C-0.48699617 4.38296556 -1.83395891 6.03183648 -5 9 C-5.33 9.99 -5.66 10.98 -6 12 C-2.08225095 11.94814481 1.83329005 11.85307131 5.75 11.75 C6.86117188 11.73582031 7.97234375 11.72164062 9.1171875 11.70703125 C10.18710937 11.67480469 11.25703125 11.64257812 12.359375 11.609375 C13.34389648 11.58842773 14.32841797 11.56748047 15.34277344 11.54589844 C18.67045394 10.86226249 19.70442687 9.42106604 22 7 C26.99614519 6.28626497 28.86229946 6.23379351 33.0625 9.0625 C35 12 35 12 35.0625 15.5625 C33.9058033 19.30475404 33.26473709 20.85214665 30 23 C25.73910491 23.45652447 22.64957865 23.33573034 19 21 C19 20.34 19 19.68 19 19 C10.75 19 2.5 19 -6 19 C-6 23.95 -6 28.9 -6 34 C-1.05 34 3.9 34 9 34 C9.66 32.68 10.32 31.36 11 30 C13 28 13 28 15.8125 27.625 C19.82556397 28.09712517 21.30702781 28.99925956 24 32 C25.35028198 36.289131 25.30213537 38.27750239 23.5625 42.4375 C20.8845705 45.1154295 20.52921269 45.4173735 17 45.5625 C14.32663602 45.48417879 13.27193308 45.22491063 11.18432617 43.49829102 C8.59710088 41.72364011 7.15856938 41.59569115 4.05078125 41.5234375 C3.12072266 41.4925 2.19066406 41.4615625 1.23242188 41.4296875 C-0.21293945 41.40261719 -0.21293945 41.40261719 -1.6875 41.375 C-3.60818025 41.32422194 -5.52876743 41.26974046 -7.44921875 41.2109375 C-8.29830811 41.19337402 -9.14739746 41.17581055 -10.0222168 41.15771484 C-12 41 -12 41 -13 40 C-13.34005936 35.24693121 -13.39965162 30.49173278 -13.45996094 25.7277832 C-13.48651031 24.12624105 -13.52737349 22.524868 -13.58300781 20.92407227 C-14.03741918 7.69550027 -14.03741918 7.69550027 -11.52709961 3.59277344 C-7.89749689 0.34146464 -4.95606664 -0.72527805 0 0 Z " fill="#3B8856" transform="translate(334,143)"/>
<path d="M0 0 C5.13410182 3.2671557 7.1219442 5.87966577 8.75 11.75 C8.97705078 14.81787109 8.97705078 14.81787109 8.9453125 18.0234375 C8.93886719 19.17714844 8.93242188 20.33085937 8.92578125 21.51953125 C8.90902344 22.70933594 8.89226563 23.89914063 8.875 25.125 C8.86597656 26.33800781 8.85695313 27.55101562 8.84765625 28.80078125 C8.82416682 31.78393929 8.78829821 34.76699532 8.75 37.75 C5.12 37.75 1.49 37.75 -2.25 37.75 C-2.29898438 36.07550781 -2.34796875 34.40101563 -2.3984375 32.67578125 C-2.47348238 30.47133791 -2.54902947 28.26691163 -2.625 26.0625 C-2.6559375 24.95970703 -2.686875 23.85691406 -2.71875 22.72070312 C-2.75742187 21.65400391 -2.79609375 20.58730469 -2.8359375 19.48828125 C-2.8673584 18.50899658 -2.8987793 17.52971191 -2.93115234 16.52075195 C-3.26429569 13.62577199 -4.04800587 11.39227833 -5.25 8.75 C-6.68583001 8.64163547 -8.1240202 8.56423833 -9.5625 8.5 C-10.76326172 8.43039063 -10.76326172 8.43039063 -11.98828125 8.359375 C-14.3630915 8.54104241 -14.3630915 8.54104241 -15.859375 10.40820312 C-17.58073255 13.30694991 -17.67603503 15.25057337 -17.76171875 18.609375 C-17.79716797 19.72441406 -17.83261719 20.83945313 -17.86914062 21.98828125 C-17.90297852 23.72658203 -17.90297852 23.72658203 -17.9375 25.5 C-17.97166016 26.67433594 -18.00582031 27.84867188 -18.04101562 29.05859375 C-18.12345173 31.95563389 -18.19261811 34.85237298 -18.25 37.75 C-21.55 37.75 -24.85 37.75 -28.25 37.75 C-28.25 25.21 -28.25 12.67 -28.25 -0.25 C-24.95 -0.25 -21.65 -0.25 -18.25 -0.25 C-18.25 0.74 -18.25 1.73 -18.25 2.75 C-17.26 2.09 -16.27 1.43 -15.25 0.75 C-10.02973921 -2.21342077 -5.6683433 -2.18013204 0 0 Z " fill="#DADADB" transform="translate(704.25,138.25)"/>
<path d="M0 0 C1.18432617 0.00290039 1.18432617 0.00290039 2.39257812 0.00585938 C7.04901573 0.11124396 10.10380361 0.66987194 13.9375 3.5625 C13.6075 5.2125 13.2775 6.8625 12.9375 8.5625 C9.65053767 9.36203138 8.22726808 9.65908936 4.9375 8.5625 C3.37631572 8.49509135 1.8124748 8.47735544 0.25 8.5 C-0.55824219 8.50902344 -1.36648438 8.51804688 -2.19921875 8.52734375 C-2.81410156 8.53894531 -3.42898438 8.55054688 -4.0625 8.5625 C-3.7325 10.2125 -3.4025 11.8625 -3.0625 13.5625 C-1.50789062 13.87380859 -1.50789062 13.87380859 0.078125 14.19140625 C12.46959641 16.90507775 12.46959641 16.90507775 14.9375 20.75 C16.14484665 25.35300912 16.47133754 29.01387834 14.9375 33.5625 C12.625 36 12.625 36 9.9375 37.5625 C9.02484375 38.09617187 9.02484375 38.09617187 8.09375 38.640625 C1.66177648 41.39052672 -5.95109791 39.68195319 -12.28515625 37.4140625 C-14.0625 36.5625 -14.0625 36.5625 -16.0625 34.5625 C-15.74384222 31.26970291 -14.51734649 29.69714912 -12.0625 27.5625 C-6.3125 29.4375 -6.3125 29.4375 -4.0625 30.5625 C-2.68907169 30.6314472 -1.31247898 30.64717708 0.0625 30.625 C1.980625 30.5940625 1.980625 30.5940625 3.9375 30.5625 C4.2675 29.2425 4.5975 27.9225 4.9375 26.5625 C4.36902344 26.38074219 3.80054688 26.19898438 3.21484375 26.01171875 C-12.22792248 20.98444093 -12.22792248 20.98444093 -15.0625 16.5625 C-15.88115061 12.42653476 -16.38339996 8.60052071 -14.0012207 4.92504883 C-9.85330572 0.08258589 -6.14149383 -0.28717403 0 0 Z " fill="#D6D6D6" transform="translate(794.0625,137.4375)"/>
<path d="M0 0 C3.63 0 7.26 0 11 0 C13.75587714 6.12417143 16.38822464 12.28786346 18.94921875 18.49609375 C19.58755696 20.01718963 20.26227263 21.52454526 21 23 C21.23783203 22.12601563 21.23783203 22.12601563 21.48046875 21.234375 C26.53846154 3.46153846 26.53846154 3.46153846 30 0 C31.68608966 -0.07205511 33.37500659 -0.08386068 35.0625 -0.0625 C35.98160156 -0.05347656 36.90070312 -0.04445312 37.84765625 -0.03515625 C38.55792969 -0.02355469 39.26820313 -0.01195312 40 0 C39.45605878 4.35152975 38.31663774 8.11732332 36.71875 12.16796875 C36.09438898 13.7594107 35.54060283 15.37819152 35 17 C34.01 17.495 34.01 17.495 33 18 C31.91995129 20.40663028 30.93646164 22.78831124 30 25.25 C29.73960937 25.91902344 29.47921875 26.58804688 29.2109375 27.27734375 C28.7030596 28.58294906 28.19776637 29.88956333 27.6953125 31.19726562 C26.81749285 33.47318566 25.91198261 35.73758161 25 38 C21.92716179 38.35455825 19.06350409 38.48761657 16 38 C12.17152625 34.17152625 11.17800007 29.51569381 9.7734375 24.43359375 C8.90878744 21.71300292 7.61363979 19.41667222 6.1171875 16.9921875 C3.27567888 11.92516164 0 5.86526174 0 0 Z " fill="#D4D5D5" transform="translate(716,138)"/>
<path d="M0 0 C0.02688151 1.64574566 0.04634123 3.29161413 0.0625 4.9375 C0.07410156 5.85402344 0.08570313 6.77054688 0.09765625 7.71484375 C0 10 0 10 -1 11 C-3.67058851 11.14115161 -6.32432238 11.04247107 -9 11 C-9.268125 11.639375 -9.53625 12.27875 -9.8125 12.9375 C-11 15 -11 15 -14 16 C-14 23.92 -14 31.84 -14 40 C-17.63 40 -21.26 40 -25 40 C-25 27.13 -25 14.26 -25 1 C-21.7 1 -18.4 1 -15 1 C-15 2.32 -15 3.64 -15 5 C-14.195625 4.175 -13.39125 3.35 -12.5625 2.5 C-8.654055 -0.82733327 -4.90510679 -0.49051068 0 0 Z " fill="#E4E4E4" transform="translate(587,137)"/>
<path d="M0 0 C3.3 0 6.6 0 10 0 C10 1.65 10 3.3 10 5 C10.66 5 11.32 5 12 5 C12.23460937 4.35546875 12.46921875 3.7109375 12.7109375 3.046875 C14 1 14 1 16.1640625 0.390625 C18.44270833 0.26041667 20.72135417 0.13020833 23 0 C23 2.97 23 5.94 23 9 C20.72135417 9.42317708 18.44270833 9.84635417 16.1640625 10.26953125 C13.64179359 10.87544942 13.64179359 10.87544942 12 14 C11.63250611 16.61289494 11.63250611 16.61289494 11.5859375 19.54296875 C11.52792969 21.15268555 11.52792969 21.15268555 11.46875 22.79492188 C11.42234375 24.47424805 11.42234375 24.47424805 11.375 26.1875 C11.31699219 27.88422852 11.31699219 27.88422852 11.2578125 29.61523438 C11.16347829 32.40988544 11.0806477 35.20492049 11 38 C7.37 38 3.74 38 0 38 C0 25.46 0 12.92 0 0 Z " fill="#D5D6D6" transform="translate(863,138)"/>
<path d="M0 0 C2.48135086 2.0136905 3.93892017 3.98000356 5 7 C5.31157604 11.90732266 5.3464992 15.56772374 3 20 C0.11662337 22.88337663 -2.56167789 22.77406911 -6.5234375 23.09375 C-9 23 -9 23 -11.9375 21.375 C-15.39911957 17.38889261 -17 15.52328275 -17 10.0625 C-16.35529462 6.59556391 -15.24660986 3.71067888 -12.796875 1.06640625 C-8.97627781 -1.20103513 -4.23838774 -0.84636535 0 0 Z " fill="#2E343B" transform="translate(841,146)"/>
<path d="M0 0 C3.3 0 6.6 0 10 0 C10 12.54 10 25.08 10 38 C6.7 38 3.4 38 0 38 C0 25.46 0 12.92 0 0 Z " fill="#DADBDB" transform="translate(761,138)"/>
<path d="M0 0 C3.5 0.5 3.5 0.5 5.39355469 1.99926758 C7.98830576 3.84789238 9.54310792 3.91985779 12.703125 4.01171875 C14.17265625 4.06489258 14.17265625 4.06489258 15.671875 4.11914062 C17.19554687 4.15297852 17.19554687 4.15297852 18.75 4.1875 C19.78125 4.22166016 20.8125 4.25582031 21.875 4.29101562 C24.41655812 4.37338093 26.95777626 4.44256834 29.5 4.5 C29.5 5.16 29.5 5.82 29.5 6.5 C28.84 6.5 28.18 6.5 27.5 6.5 C27.190625 7.139375 26.88125 7.77875 26.5625 8.4375 C25.5 10.5 25.5 10.5 24.5 11.5 C21.1623687 11.66971007 17.83179958 11.79724267 14.49023438 11.84179688 C10.92325334 11.98212641 8.95666427 12.09460202 6.23828125 14.5078125 C5.66464844 15.16523438 5.09101563 15.82265625 4.5 16.5 C1.7360982 17.28274563 -0.71027184 17.15741545 -3.5 16.5 C-6.49993115 13.95005852 -7.35480459 12.37117244 -8 8.5 C-7.12513561 3.25081368 -5.36682037 0.76668862 0 0 Z " fill="#5C9640" transform="translate(356.5,130.5)"/>
<path d="M0 0 C0.9075 0.639375 1.815 1.27875 2.75 1.9375 C3.86375 2.9584375 3.86375 2.9584375 5 4 C5 7 5 7 3.5390625 8.46484375 C2.59160156 9.19380859 2.59160156 9.19380859 1.625 9.9375 C-1.42322431 12.28952493 -2.16070807 13.32141615 -4 17 C-10.93 17 -17.86 17 -25 17 C-24.07689062 13.30756248 -23.45048444 11.74454257 -21 9 C-20.34 9 -19.68 9 -19 9 C-19 8.34 -19 7.68 -19 7 C-6.59980906 -4.68373546 -6.59980906 -4.68373546 0 0 Z " fill="#232E2C" transform="translate(346,114)"/>
<path d="M0 0 C0.92748521 3.13268007 1.10181483 5.88755549 1.05004883 9.14819336 C1.03706253 10.17283188 1.02407623 11.1974704 1.01069641 12.25315857 C0.99298691 13.35426468 0.9752774 14.45537079 0.95703125 15.58984375 C0.93464654 17.92381966 0.91319075 20.25780464 0.89257812 22.59179688 C0.85544916 26.27002348 0.81233448 29.94778994 0.75317383 33.62573242 C0.69872471 37.17633786 0.66960003 40.7264254 0.64453125 44.27734375 C0.62074905 45.37642563 0.59696686 46.47550751 0.57246399 47.6078949 C0.48262503 53.68926786 0.48262503 53.68926786 3.00048828 59.08569336 C3.99024658 60.03327515 3.99024658 60.03327515 5 61 C5.47028221 64.18101 5.00403988 66.9526509 4 70 C1.2269131 72.69152552 -0.69966845 72.95173243 -4.5 73.5625 C-8 73 -8 73 -10.9375 70.4375 C-13.40550817 67.00020809 -13.63428403 64.20213171 -13 60 C-11.5 58.0625 -11.5 58.0625 -10 57 C-11.4264578 53.7413364 -13.16704162 51.5975146 -15.6953125 49.109375 C-16.41074219 48.40039062 -17.12617188 47.69140625 -17.86328125 46.9609375 C-18.60964844 46.23132813 -19.35601562 45.50171875 -20.125 44.75 C-20.87910156 44.00492187 -21.63320313 43.25984375 -22.41015625 42.4921875 C-24.26900772 40.6568658 -26.13237005 38.8263809 -28 37 C-27.67 36.34 -27.34 35.68 -27 35 C-20.4 41.6 -13.8 48.2 -7 55 C-7.66 56.32 -8.32 57.64 -9 59 C-10.31001496 62.50104532 -10.31001496 62.50104532 -11 66 C-9.39031485 69.07799588 -9.39031485 69.07799588 -7.16015625 69.6171875 C-2.95310979 70.20710216 -2.95310979 70.20710216 1 69 C2.57810996 65.84378009 2.42565991 63.46608786 2 60 C1.3397583 59.47108154 0.6795166 58.94216309 -0.00073242 58.3972168 C-3.14078092 54.63214949 -2.51469101 50.83240028 -2.42578125 46.08203125 C-2.42249313 45.11021408 -2.41920502 44.13839691 -2.41581726 43.13713074 C-2.40006983 40.02846935 -2.3560496 36.92088277 -2.3125 33.8125 C-2.30100631 31.73894115 -2.29122184 29.66537207 -2.28320312 27.59179688 C-2.26976511 25.58853077 -2.25483834 23.585274 -2.23828125 21.58203125 C-2.23089432 20.65671097 -2.22350739 19.73139069 -2.21589661 18.7780304 C-2.0021991 4.0043982 -2.0021991 4.0043982 0 0 Z " fill="#1C676A" transform="translate(394,212)"/>
<path d="M0 0 C2.97 0 5.94 0 9 0 C9.02688151 1.64574566 9.04634123 3.29161413 9.0625 4.9375 C9.07410156 5.85402344 9.08570313 6.77054688 9.09765625 7.71484375 C9 10 9 10 8 11 C5.32941149 11.14115161 2.67567762 11.04247107 0 11 C-0.268125 11.639375 -0.53625 12.27875 -0.8125 12.9375 C-2 15 -2 15 -5 16 C-5 23.92 -5 31.84 -5 40 C-8.63 40 -12.26 40 -16 40 C-16 27.13 -16 14.26 -16 1 C-12.7 1 -9.4 1 -6 1 C-6 2.32 -6 3.64 -6 5 C-5.34 5.33 -4.68 5.66 -4 6 C-4.99 6 -5.98 6 -7 6 C-7 4.68 -7 3.36 -7 2 C-9.31 2 -11.62 2 -14 2 C-14 13.88 -14 25.76 -14 38 C-11.36 38 -8.72 38 -6 38 C-6.05498657 37.00202393 -6.05498657 37.00202393 -6.11108398 35.98388672 C-6.25724518 32.94806845 -6.34782439 29.91299005 -6.4375 26.875 C-6.49615234 25.82828125 -6.55480469 24.7815625 -6.61523438 23.703125 C-6.78358273 16.10339913 -6.78358273 16.10339913 -4.53149414 12.93212891 C-1.46503815 10.18681242 0.27675718 9.07889922 4.4375 8.625 C5.7059375 8.810625 5.7059375 8.810625 7 9 C7 6.36 7 3.72 7 1 C4.36 1.33 1.72 1.66 -1 2 C-0.67 1.34 -0.34 0.68 0 0 Z " fill="#A5A9AB" transform="translate(578,137)"/>
<path d="M0 0 C1.94140625 0.3828125 1.94140625 0.3828125 4.44140625 2.0078125 C6.41083394 5.12607301 6.62068026 6.76001777 5.94140625 10.3828125 C3.16054729 13.58501373 1.53866218 14.31072989 -2.68359375 14.8203125 C-6.05859375 14.3828125 -6.05859375 14.3828125 -7.99609375 13.3203125 C-9.67763106 10.25397976 -9.41910559 7.80767499 -9.05859375 4.3828125 C-7.24997024 -0.02570731 -4.5929287 -0.25375297 0 0 Z " fill="#B4B6B7" transform="translate(817.05859375,196.6171875)"/>
<path d="M0 0 C8.08587944 -0.35672998 8.08587944 -0.35672998 11.5625 1 C13.51831868 3.72113904 13.57120525 5.82619217 13.37109375 9.125 C13 11 13 11 11.5625 13 C7.65036006 14.52668876 4.18295601 14.18454218 0 14 C0 9.38 0 4.76 0 0 Z " fill="#D8D8D9" transform="translate(734,197)"/>
<path d="M0 0 C9.57 0 19.14 0 29 0 C28.67 0.66 28.34 1.32 28 2 C25.67843403 2.40729228 23.3431213 2.74438677 21 3 C21.33 3.66 21.66 4.32 22 5 C16.50766852 8.27202727 12.42798143 9.9483907 6 9 C2.21466986 6.10059819 1.16622754 4.66491015 0 0 Z " fill="#333941" transform="translate(598,160)"/>
<path d="M0 0 C2.31 0 4.62 0 7 0 C6.89413574 0.86351074 6.78827148 1.72702148 6.67919922 2.61669922 C4.64560831 21.91729847 4.64560831 21.91729847 12.17010498 39.07733154 C18.71586805 46.46890212 26.249278 52.90940587 34 59 C33.505 59.99 33.505 59.99 33 61 C29.1602499 57.25922234 25.33390103 53.50542067 21.51928711 49.73901367 C20.22014175 48.45996738 18.91742677 47.18453618 17.61108398 45.9128418 C15.73248346 44.08283193 13.86716093 42.24014751 12.00390625 40.39453125 C11.41847549 39.82974564 10.83304474 39.26496002 10.22987366 38.68305969 C5.91074964 34.36635001 5.10655921 31.85922413 4.88647461 25.95385742 C4.89432983 24.29640503 4.89432983 24.29640503 4.90234375 22.60546875 C4.90556641 21.40341797 4.90878906 20.20136719 4.91210938 18.96289062 C4.92048828 17.71701172 4.92886719 16.47113281 4.9375 15.1875 C4.94201172 13.92228516 4.94652344 12.65707031 4.95117188 11.35351562 C4.96293749 8.2356289 4.97937728 5.11783867 5 2 C4.01 2.66 3.02 3.32 2 4 C1.58145952 7.20425325 1.58145952 7.20425325 1.70703125 10.9765625 C1.71127609 11.66181 1.71552094 12.3470575 1.71989441 13.05307007 C1.73670247 15.24411129 1.77435595 17.43423632 1.8125 19.625 C1.82754421 21.10936173 1.84123307 22.59373785 1.85351562 24.078125 C1.8866121 27.71904833 1.93840793 31.35943478 2 35 C1.01 35.495 1.01 35.495 0 36 C0 24.12 0 12.24 0 0 Z " fill="#1E6563" transform="translate(350,196)"/>
<path d="M0 0 C1.53970768 0.01005603 3.07942176 0.01917721 4.61914062 0.02734375 C8.35039587 0.04913532 12.08140554 0.08351858 15.8125 0.125 C16.27105774 26.32275625 16.27105774 26.32275625 13.8125 35.125 C13.1525 35.785 12.4925 36.445 11.8125 37.125 C11.90337891 36.17415527 11.90337891 36.17415527 11.99609375 35.20410156 C12.2739926 32.26158029 12.5432711 29.31832672 12.8125 26.375 C12.90789062 25.37855469 13.00328125 24.38210937 13.1015625 23.35546875 C13.74246908 16.25971734 13.92661909 9.24793319 13.8125 2.125 C-5.15747068 1.69516683 -23.03363761 1.49516686 -40.68359375 9.13671875 C-43.1875 10.125 -43.1875 10.125 -46.1875 10.125 C-46.1875 9.465 -46.1875 8.805 -46.1875 8.125 C-43.41979617 7.15676037 -40.64883261 6.20039683 -37.875 5.25 C-37.10865234 4.98058594 -36.34230469 4.71117188 -35.55273438 4.43359375 C-23.69750209 0.39986326 -12.40527035 -0.14214233 0 0 Z " fill="#678E32" transform="translate(460.1875,112.875)"/>
<path d="M0 0 C3.22240098 1.05208987 4.49852114 2.77056714 6.09375 5.68359375 C6.09375 6.67359375 6.09375 7.66359375 6.09375 8.68359375 C-0.17625 8.68359375 -6.44625 8.68359375 -12.90625 8.68359375 C-11.90625 3.68359375 -11.90625 3.68359375 -9.90625 1.30859375 C-6.22786671 -0.68386386 -4.0606814 -0.65647683 0 0 Z " fill="#42474F" transform="translate(653.90625,145.31640625)"/>
<path d="M0 0 C2.4375 1.375 2.4375 1.375 4 3 C4 3.66 4 4.32 4 5 C4.66 5 5.32 5 6 5 C6 6.32 6 7.64 6 9 C-0.27 9 -6.54 9 -13 9 C-12 4 -12 4 -9.875 1.6875 C-6.25906679 -0.43489558 -4.13331855 -0.52605872 0 0 Z " fill="#44484F" transform="translate(611,145)"/>
<path d="M0 0 C3.3 0 6.6 0 10 0 C10.69857152 4.03619098 11.12440884 7.06456906 10 11 C10.33 11.99 10.66 12.98 11 14 C9.0625 13.625 9.0625 13.625 7 13 C6.67 12.34 6.34 11.68 6 11 C3.97536745 10.34786708 3.97536745 10.34786708 2 10 C2 11.32 2 12.64 2 14 C1.34 14 0.68 14 0 14 C0 9.38 0 4.76 0 0 Z " fill="#B3B5B6" transform="translate(832,197)"/>
<path d="M0 0 C1.0725 0.103125 2.145 0.20625 3.25 0.3125 C3.25 0.6425 3.25 0.9725 3.25 1.3125 C2.30125 1.580625 1.3525 1.84875 0.375 2.125 C-3.00267273 3.06236588 -3.00267273 3.06236588 -4.75 6.3125 C-3.63625 6.10625 -2.5225 5.9 -1.375 5.6875 C-0.17875 5.56375 1.0175 5.44 2.25 5.3125 C2.91 5.9725 3.57 6.6325 4.25 7.3125 C3.95764733 9.65132138 3.62400786 11.98534 3.25 14.3125 C3.58 14.9725 3.91 15.6325 4.25 16.3125 C1.3919611 16.55066991 -0.94811145 16.73492213 -3.75 16.3125 C-6.74993115 13.76255852 -7.60480459 12.18367244 -8.25 8.3125 C-7.34775117 2.899007 -5.5739825 0.46449854 0 0 Z " fill="#568F3F" transform="translate(356.75,130.6875)"/>
<path d="M0 0 C3.96 0 7.92 0 12 0 C12 0.99 12 1.98 12 3 C9.36 3 6.72 3 4 3 C4 3.66 4 4.32 4 5 C5.98 5 7.96 5 10 5 C10 5.99 10 6.98 10 8 C8.02 8 6.04 8 4 8 C4 8.99 4 9.98 4 11 C6.31 11 8.62 11 11 11 C11 11.99 11 12.98 11 14 C7.37 14 3.74 14 0 14 C0 9.38 0 4.76 0 0 Z " fill="#ABADAF" transform="translate(596,197)"/>
<path d="M0 0 C3.63 0 7.26 0 11 0 C11 0.99 11 1.98 11 3 C8.36 3 5.72 3 3 3 C3 3.66 3 4.32 3 5 C4.98 5 6.96 5 9 5 C9 6.32 9 7.64 9 9 C7.35 9 5.7 9 4 9 C4 9.66 4 10.32 4 11 C5.98 11 7.96 11 10 11 C10.33 11.99 10.66 12.98 11 14 C7.37 14 3.74 14 0 14 C0 9.38 0 4.76 0 0 Z " fill="#B9BBBC" transform="translate(634,197)"/>
<path d="M0 0 C1.32 0.33 2.64 0.66 4 1 C5.125 3 5.125 3 6 5 C6.66 5.33 7.32 5.66 8 6 C8.33 4.02 8.66 2.04 9 0 C9.99 0 10.98 0 12 0 C12 4.62 12 9.24 12 14 C11.01 14 10.02 14 9 14 C7.95107762 12.36368108 6.95093297 10.69514137 6 9 C5.34 8.67 4.68 8.34 4 8 C3.67 9.98 3.34 11.96 3 14 C2.01 14 1.02 14 0 14 C0 9.38 0 4.76 0 0 Z " fill="#ABAEAF" transform="translate(575,197)"/>
<path d="M0 0 C3.3 0 6.6 0 10 0 C10 0.66 10 1.32 10 2 C8.02 2 6.04 2 4 2 C4 2.99 4 3.98 4 5 C5.98 5 7.96 5 10 5 C10 5.99 10 6.98 10 8 C8.02 8 6.04 8 4 8 C4 8.99 4 9.98 4 11 C6.31 11 8.62 11 11 11 C11 11.99 11 12.98 11 14 C7.37 14 3.74 14 0 14 C0 9.38 0 4.76 0 0 Z " fill="#A8ABAC" transform="translate(675,197)"/>
<path d="M0 0 C1.86328125 0.265625 1.86328125 0.265625 4 1 C6.77549885 4.77115399 8.42139186 9.37113484 9 14 C7.68 13.67 6.36 13.34 5 13 C5 12.34 5 11.68 5 11 C-0.3086849 11.58174845 -0.3086849 11.58174845 -5 14 C-4.46515599 8.65155992 -2.53309233 4.64203897 0 0 Z " fill="#CCCDCD" transform="translate(717,197)"/>
<path d="M0 0 C2.46800047 1.15173355 4.04783565 2.04783565 6 4 C5.81597683 7.37375813 5.59820495 10.0239814 3.8125 12.9375 C1.19357381 14.47273259 -1.02914805 14.1980568 -4 14 C-4.33 11.03 -4.66 8.06 -5 5 C-3.35 5 -1.7 5 0 5 C0 3.35 0 1.7 0 0 Z " fill="#438C4C" transform="translate(363,151)"/>
<path d="M0 0 C0.33 0.99 0.66 1.98 1 3 C-3.455 3.495 -3.455 3.495 -8 4 C-7.34 6.31 -6.68 8.62 -6 11 C-4.68 11 -3.36 11 -2 11 C-2 9.68 -2 8.36 -2 7 C-0.68 7 0.64 7 2 7 C2.125 9.375 2.125 9.375 2 12 C0 14 0 14 -3.9375 14.3125 C-6.39176089 14.22787031 -7.78814617 14.10592691 -10 13 C-11.63102777 9.73794446 -11.51981506 6.56444611 -11 3 C-8.8254183 -1.34916341 -4.24620661 -0.20882983 0 0 Z " fill="#B2B4B6" transform="translate(664,197)"/>
<path d="M0 0 C3.0625 0.25 3.0625 0.25 6.0625 2.25 C6.375 5.25 6.375 5.25 6.0625 8.25 C4.0625 10.25 4.0625 10.25 1.125 10.5 C-1.9375 10.25 -1.9375 10.25 -4.9375 8.25 C-5.25 5.25 -5.25 5.25 -4.9375 2.25 C-2.9375 0.25 -2.9375 0.25 0 0 Z " fill="#D6D7D7" transform="translate(765.9375,122.75)"/>
<path d="M0 0 C2.05078125 0.03255208 4.1015625 0.06510417 6.15234375 0.09765625 C6.48234375 1.08765625 6.81234375 2.07765625 7.15234375 3.09765625 C4.84234375 3.09765625 2.53234375 3.09765625 0.15234375 3.09765625 C1.54551252 5.88399379 3.31214891 6.03258319 6.15234375 7.09765625 C7.15234375 8.09765625 7.15234375 8.09765625 7.27734375 10.59765625 C7.15234375 13.09765625 7.15234375 13.09765625 6.15234375 14.09765625 C3.48175524 14.23880786 0.82802137 14.14012732 -1.84765625 14.09765625 C-2.17765625 13.10765625 -2.50765625 12.11765625 -2.84765625 11.09765625 C-0.53765625 11.09765625 1.77234375 11.09765625 4.15234375 11.09765625 C4.15234375 10.43765625 4.15234375 9.77765625 4.15234375 9.09765625 C3.18296875 8.78828125 2.21359375 8.47890625 1.21484375 8.16015625 C-1.84765625 7.09765625 -1.84765625 7.09765625 -2.84765625 6.09765625 C-2.97265625 3.59765625 -2.97265625 3.59765625 -2.84765625 1.09765625 C-1.84765625 0.09765625 -1.84765625 0.09765625 0 0 Z " fill="#B7B8B9" transform="translate(791.84765625,196.90234375)"/>
<path d="M0 0 C1.875 0.25 1.875 0.25 4 1 C6.02755186 3.93995019 6 5.27704003 6 9 C6.66 9 7.32 9 8 9 C8.12375 8.2575 8.2475 7.515 8.375 6.75 C8.95486701 4.19858515 9.73708739 2.2732427 11 0 C11.66 0 12.32 0 13 0 C12.71572583 1.58467728 12.42225182 3.1677057 12.125 4.75 C11.96257813 5.63171875 11.80015625 6.5134375 11.6328125 7.421875 C11.03203736 9.86947744 10.22002883 11.80599857 9 14 C6.64453125 13.83984375 6.64453125 13.83984375 4 13 C2.63671875 10.56640625 2.63671875 10.56640625 1.6875 7.5625 C1.19830078 6.07943359 1.19830078 6.07943359 0.69921875 4.56640625 C0 2 0 2 0 0 Z " fill="#A8AAAD" transform="translate(755,197)"/>
<path d="M0 0 C0 3.63 0 7.26 0 11 C-1.5778125 11.0928125 -1.5778125 11.0928125 -3.1875 11.1875 C-7.91468759 12.19493342 -9.14805735 13.10748368 -12 17 C-12.74909094 20.76778229 -12.79042859 24.47943253 -12.8125 28.3125 C-12.83763672 29.33923828 -12.86277344 30.36597656 -12.88867188 31.42382812 C-12.94741085 33.949604 -12.98378712 36.47365228 -13 39 C-13.33 39 -13.66 39 -14 39 C-14.14553599 35.10456123 -14.23415059 31.20982349 -14.3125 27.3125 C-14.35439453 26.20970703 -14.39628906 25.10691406 -14.43945312 23.97070312 C-14.56284943 15.80186768 -14.56284943 15.80186768 -11.71875 11.75 C-8.28058169 9.53692615 -6.01213904 9.60665304 -2 10 C-2 7.03 -2 4.06 -2 1 C-4.64 1.33 -7.28 1.66 -10 2 C-9.67 1.34 -9.34 0.68 -9 0 C-5.35541013 -1.08352672 -3.82056178 -0.95514044 0 0 Z " fill="#373E46" transform="translate(888,137)"/>
<path d="M0 0 C0.66 0 1.32 0 2 0 C1.74438677 2.3431213 1.40729228 4.67843403 1 7 C0.01 7.495 0.01 7.495 -1 8 C-1.65213292 10.02463255 -1.65213292 10.02463255 -2 12 C-6.875 11.125 -6.875 11.125 -8 10 C-8.04080783 8.00041636 -8.04254356 5.99954746 -8 4 C-5.04335481 2.5216774 -2.25770263 2.93967217 1 3 C0.67 2.01 0.34 1.02 0 0 Z " fill="#353B43" transform="translate(664,197)"/>
<path d="M0 0 C-0.33 0.66 -0.66 1.32 -1 2 C-1.63502441 1.96334229 -2.27004883 1.92668457 -2.92431641 1.88891602 C-5.82404347 1.74268685 -8.72299535 1.6521584 -11.625 1.5625 C-12.62402344 1.50384766 -13.62304688 1.44519531 -14.65234375 1.38476562 C-20.17153541 1.16290311 -20.17153541 1.16290311 -24.97509766 3.50146484 C-26.48779593 5.26574194 -27.75372132 7.0417561 -29 9 C-31.125 11.5 -31.125 11.5 -33 13 C-35.1171875 12.59375 -35.1171875 12.59375 -37 12 C-27.45606803 -2.34792457 -16.14623719 -1.46102842 0 0 Z " fill="#30442E" transform="translate(383,122)"/>
<path d="M0 0 C-1.02480469 0.54269531 -2.04960937 1.08539063 -3.10546875 1.64453125 C-4.46618303 2.36711745 -5.82685804 3.08977762 -7.1875 3.8125 C-7.86103516 4.16892578 -8.53457031 4.52535156 -9.22851562 4.89257812 C-12.88162727 6.83496432 -16.47478512 8.83011045 -20 11 C-20 10.01 -20 9.02 -20 8 C-21.32 8.33 -22.64 8.66 -24 9 C-22.31554444 5.63108887 -18.51829196 4.85082817 -15.1875 3.4375 C-14.46240234 3.12103516 -13.73730469 2.80457031 -12.99023438 2.47851562 C-4.08146386 -1.36048795 -4.08146386 -1.36048795 0 0 Z " fill="#23352A" transform="translate(443,137)"/>
<path d="M0 0 C0.33 0 0.66 0 1 0 C0.55950094 4.55182357 0.05183559 8.87886692 -1.0625 13.3125 C-2.19333944 18.66910786 -2.22238137 23.98500167 -2.25 29.4375 C-2.26365601 30.77131714 -2.26365601 30.77131714 -2.27758789 32.13208008 C-2.27364014 32.97407959 -2.26969238 33.8160791 -2.265625 34.68359375 C-2.26336914 35.44212646 -2.26111328 36.20065918 -2.25878906 36.98217773 C-2.11163216 39.31392966 -2.11163216 39.31392966 0 42 C-1.65 41.34 -3.3 40.68 -5 40 C-5.52029279 26.35676684 -3.38497845 13.17884945 0 0 Z " fill="#1D665F" transform="translate(386,201)"/>
<path d="M0 0 C0.33 0.66 0.66 1.32 1 2 C0.01 2.495 0.01 2.495 -1 3 C13.85 3.495 13.85 3.495 29 4 C29 4.33 29 4.66 29 5 C27.6087793 5.03758423 27.6087793 5.03758423 26.18945312 5.07592773 C22.71539461 5.17163362 19.2414708 5.2708291 15.76757812 5.37231445 C14.27022126 5.41535863 12.77282487 5.45705201 11.27539062 5.49731445 C9.11055644 5.55576498 6.94591566 5.61923453 4.78125 5.68359375 C2.8331543 5.73858032 2.8331543 5.73858032 0.84570312 5.79467773 C-3.15303143 6.00817036 -7.0343126 6.457997 -11 7 C-10.01 6.34 -9.02 5.68 -8 5 C-8.99 4.01 -9.98 3.02 -11 2 C-10.06027344 1.90912109 -10.06027344 1.90912109 -9.1015625 1.81640625 C-7.87566406 1.69072266 -7.87566406 1.69072266 -6.625 1.5625 C-5.81289063 1.48128906 -5.00078125 1.40007812 -4.1640625 1.31640625 C-1.95727195 1.10909886 -1.95727195 1.10909886 0 0 Z " fill="#35492C" transform="translate(446,108)"/>
<path d="M0 0 C0.66 0.33 1.32 0.66 2 1 C1.27296875 1.65484375 0.5459375 2.3096875 -0.203125 2.984375 C-7.6966718 9.77304592 -14.90756492 16.79438776 -22 24 C-22 19.89092682 -19.86111382 18.21647003 -17.1875 15.375 C-16.69918701 14.8480957 -16.21087402 14.32119141 -15.70776367 13.77832031 C-10.87300021 8.67088206 -5.58349177 4.2767171 0 0 Z " fill="#4B813B" transform="translate(403,127)"/>
<path d="M0 0 C1 1 1 1 1.125 4 C1 7 1 7 0 8 C-3 8.125 -3 8.125 -6 8 C-7 7 -7 7 -7.0625 3.9375 C-7.041875 2.968125 -7.02125 1.99875 -7 1 C-4.51588385 -0.24205807 -2.74800896 -0.14092354 0 0 Z " fill="#2D333A" transform="translate(818,200)"/>
<path d="M0 0 C1.98 0 3.96 0 6 0 C6 4.95 6 9.9 6 15 C5.67 15 5.34 15 5 15 C5 10.38 5 5.76 5 1 C4.01 1.66 3.02 2.32 2 3 C1.58145952 6.20425325 1.58145952 6.20425325 1.70703125 9.9765625 C1.71127609 10.66181 1.71552094 11.3470575 1.71989441 12.05307007 C1.73670247 14.24411129 1.77435595 16.43423632 1.8125 18.625 C1.82754421 20.10936173 1.84123307 21.59373785 1.85351562 23.078125 C1.8866121 26.71904833 1.93840793 30.35943478 2 34 C1.01 34.495 1.01 34.495 0 35 C0 23.45 0 11.9 0 0 Z " fill="#257C69" transform="translate(350,197)"/>
<path d="M0 0 C2.9375 0.8125 2.9375 0.8125 6 2 C6.33 2.99 6.66 3.98 7 5 C5.0625 7.6875 5.0625 7.6875 3 10 C-0.74278215 8.5511811 -0.74278215 8.5511811 -1.875 6.125 C-2.02787435 3.52613603 -1.33454536 2.1980747 0 0 Z " fill="#186C76" transform="translate(388,271)"/>
<path d="M0 0 C2.97 0 5.94 0 9 0 C9.02688151 1.64574566 9.04634123 3.29161413 9.0625 4.9375 C9.07410156 5.85402344 9.08570313 6.77054688 9.09765625 7.71484375 C9 10 9 10 8 11 C5.32941149 11.14115161 2.67567762 11.04247107 0 11 C-0.28875 11.639375 -0.5775 12.27875 -0.875 12.9375 C-2 15 -2 15 -4 16 C-3.63802104 13.37565253 -3.17343943 12.17986311 -1.3125 10.25 C1.60427292 8.67336599 3.73290013 8.77724319 7 9 C7 6.36 7 3.72 7 1 C4.36 1.33 1.72 1.66 -1 2 C-0.67 1.34 -0.34 0.68 0 0 Z " fill="#656A6F" transform="translate(578,137)"/>
<path d="M0 0 C0.99 0 1.98 0 3 0 C3 3.96 3 7.92 3 12 C4.98 12 6.96 12 9 12 C9 12.66 9 13.32 9 14 C6.03 14 3.06 14 0 14 C0 9.38 0 4.76 0 0 Z " fill="#C1C3C4" transform="translate(616,197)"/>
<path d="M0 0 C1.99954746 -0.04254356 4.00041636 -0.04080783 6 0 C7 1 7 1 7.125 4 C7 7 7 7 6 8 C4.00041636 8.04080783 1.99954746 8.04254356 0 8 C0 5.36 0 2.72 0 0 Z " fill="#353B42" transform="translate(737,200)"/>
<path d="M0 0 C1.65 0.33 3.3 0.66 5 1 C5.625 3.375 5.625 3.375 6 6 C4 8 4 8 1.375 8.125 C0.59125 8.08375 -0.1925 8.0425 -1 8 C-1.66 6.68 -2.32 5.36 -3 4 C-2.01 2.68 -1.02 1.36 0 0 Z " fill="#33714E" transform="translate(303,165)"/>
<path d="M0 0 C0.66 0 1.32 0 2 0 C1.81059603 8.21324503 1.81059603 8.21324503 -1.125 11.0625 C-4.72461748 12.23628831 -7.23854202 12.54712116 -11 12 C-13.4375 9.5 -13.4375 9.5 -15 7 C-14.67 6.34 -14.34 5.68 -14 5 C-13.01 6.485 -13.01 6.485 -12 8 C-9.36387616 8.88430481 -6.77318222 9.08524126 -4 9 C-1.91666667 8.08333333 -1.91666667 8.08333333 -1 6 C-0.2730774 2.89160979 -0.2730774 2.89160979 0 0 Z " fill="#146D7A" transform="translate(397,273)"/>
<path d="M0 0 C2.97 0 5.94 0 9 0 C9 0.33 9 0.66 9 1 C6.36 1 3.72 1 1 1 C1 4.96 1 8.92 1 13 C1.66 12.34 2.32 11.68 3 11 C4.98821313 10.60235737 6.98944339 10.26224651 9 10 C9.33 8.35 9.66 6.7 10 5 C10.33 5 10.66 5 11 5 C11 6.65 11 8.3 11 10 C11.66 10.33 12.32 10.66 13 11 C11.0373772 13.04795423 9.5722693 13.94976638 6.73046875 14.19921875 C4.48602163 14.18861506 2.24229107 14.09892461 0 14 C0 9.38 0 4.76 0 0 Z " fill="#A1A4A6" transform="translate(734,197)"/>
<path d="M0 0 C1.54336509 3.08673018 0.51290281 5.98882896 -0.125 9.25 C-0.25825684 9.93368652 -0.39151367 10.61737305 -0.52880859 11.32177734 C-1.67878915 16.6275145 -3.24318781 19.24318781 -7 23 C-7.86542699 25.72113503 -7.86542699 25.72113503 -8 28 C-8.66 28 -9.32 28 -10 28 C-10.375 25.375 -10.375 25.375 -10 22 C-8.4906572 20.6547162 -6.98032815 19.31048763 -5.4609375 17.9765625 C-2.84005364 14.43066081 -2.83720494 10.21257956 -2.421875 5.92578125 C-2 3 -2 3 0 0 Z " fill="#376F48" transform="translate(305,144)"/>
<path d="M0 0 C2.31 0 4.62 0 7 0 C7 0.33 7 0.66 7 1 C5.35 1.33 3.7 1.66 2 2 C2 3.32 2 4.64 2 6 C2.763125 6.0825 3.52625 6.165 4.3125 6.25 C7.54715191 7.15269355 8.35099265 8.13593461 10 11 C10 11.66 10 12.32 10 13 C8.0625 12.625 8.0625 12.625 6 12 C5.67 11.34 5.34 10.68 5 10 C2.97536745 9.34786708 2.97536745 9.34786708 1 9 C0.67 9.99 0.34 10.98 0 12 C0 8.04 0 4.08 0 0 Z " fill="#D8D8D9" transform="translate(833,198)"/>
<path d="M0 0 C0.66 0.33 1.32 0.66 2 1 C-3.28 6.28 -8.56 11.56 -14 17 C-14.66 16.67 -15.32 16.34 -16 16 C-11.1163329 10.09563077 -5.8280757 4.96906227 0 0 Z " fill="#437F3F" transform="translate(421,149)"/>
<path d="M0 0 C0.99 0 1.98 0 3 0 C3 4.62 3 9.24 3 14 C2.01 14 1.02 14 0 14 C0 9.38 0 4.76 0 0 Z " fill="#BABBBD" transform="translate(777,197)"/>
<path d="M0 0 C0.99 0 1.98 0 3 0 C3 4.62 3 9.24 3 14 C2.01 14 1.02 14 0 14 C0 9.38 0 4.76 0 0 Z " fill="#BABCBD" transform="translate(563,197)"/>
<path d="M0 0 C1.32 0 2.64 0 4 0 C4.125 2.375 4.125 2.375 4 5 C2 7 2 7 0.0546875 7.1953125 C-1.96354167 7.13020833 -3.98177083 7.06510417 -6 7 C-6.33 5.35 -6.66 3.7 -7 2 C-5.515 2.99 -5.515 2.99 -4 4 C-2.68 4 -1.36 4 0 4 C0 2.68 0 1.36 0 0 Z " fill="#B9BBBD" transform="translate(662,204)"/>
<path d="M0 0 C1.875 0.25 1.875 0.25 4 1 C6.02755186 3.93995019 6 5.27704003 6 9 C6.66 9.33 7.32 9.66 8 10 C7.01 10 6.02 10 5 10 C4.67 10.99 4.34 11.98 4 13 C3.32942113 11.2097939 2.6636531 9.41778511 2 7.625 C1.62875 6.62726563 1.2575 5.62953125 0.875 4.6015625 C0 2 0 2 0 0 Z " fill="#8E9295" transform="translate(755,197)"/>
<path d="M0 0 C0 3.63 0 7.26 0 11 C-2.97 11 -5.94 11 -9 11 C-9 10.67 -9 10.34 -9 10 C-6.69 10 -4.38 10 -2 10 C-2 7.03 -2 4.06 -2 1 C-4.64 1.33 -7.28 1.66 -10 2 C-9.67 1.34 -9.34 0.68 -9 0 C-5.35541013 -1.08352672 -3.82056178 -0.95514044 0 0 Z " fill="#5A6165" transform="translate(888,137)"/>
<path d="M0 0 C1.08053255 4.32213022 0.74913297 6.8878611 0.0625 11.25 C-0.13214844 12.51328125 -0.32679688 13.7765625 -0.52734375 15.078125 C-0.76130859 16.52445313 -0.76130859 16.52445313 -1 18 C-1.66 17.67 -2.32 17.34 -3 17 C-5.38056989 9.35711773 -5.38056989 9.35711773 -4 5 C-3.67 5.99 -3.34 6.98 -3 8 C-2.34 8.33 -1.68 8.66 -1 9 C-0.67 6.03 -0.34 3.06 0 0 Z " fill="#1E7A6C" transform="translate(373,213)"/>
<path d="M0 0 C3.89985574 4.15984612 4.89169747 7.55084591 6 13 C4.68 12.67 3.36 12.34 2 12 C2.66 11.67 3.32 11.34 4 11 C3.34 9.35 2.68 7.7 2 6 C1.67 6.66 1.34 7.32 1 8 C-0.32 8 -1.64 8 -3 8 C-3 6.68 -3 5.36 -3 4 C-2.01 4 -1.02 4 0 4 C0 2.68 0 1.36 0 0 Z " fill="#898E91" transform="translate(720,198)"/>
<path d="M0 0 C-3.10121711 1.17461555 -6.20642241 2.33830456 -9.3125 3.5 C-10.19357422 3.83386719 -11.07464844 4.16773437 -11.98242188 4.51171875 C-12.82998047 4.82753906 -13.67753906 5.14335938 -14.55078125 5.46875 C-15.33106689 5.76201172 -16.11135254 6.05527344 -16.9152832 6.35742188 C-19 7 -19 7 -22 7 C-22 6.34 -22 5.68 -22 5 C-19.08919272 3.96189556 -16.17062342 2.94762359 -13.25 1.9375 C-12.425 1.64294922 -11.6 1.34839844 -10.75 1.04492188 C-9.95078125 0.77099609 -9.1515625 0.49707031 -8.328125 0.21484375 C-7.5949707 -0.04176025 -6.86181641 -0.29836426 -6.10644531 -0.56274414 C-3.72635182 -1.05680388 -2.28425328 -0.76066537 0 0 Z " fill="#5B7E32" transform="translate(436,116)"/>
<path d="M0 0 C1.98 0 3.96 0 6 0 C6.66 1.65 7.32 3.3 8 5 C7.34 5.66 6.68 6.32 6 7 C6 6.34 6 5.68 6 5 C4.35 5 2.7 5 1 5 C0.67 3.35 0.34 1.7 0 0 Z " fill="#6D7174" transform="translate(834,200)"/>
<path d="M0 0 C0.99 0 1.98 0 3 0 C3 1.65 3 3.3 3 5 C2.01 5 1.02 5 0 5 C0 6.32 0 7.64 0 9 C-1.32 9.33 -2.64 9.66 -4 10 C-3.52449439 8.51965236 -3.04448784 7.04074979 -2.5625 5.5625 C-2.29566406 4.73878906 -2.02882813 3.91507813 -1.75390625 3.06640625 C-1 1 -1 1 0 0 Z " fill="#C1C3C2" transform="translate(717,197)"/>
<path d="M0 0 C-1.70129086 0.84761822 -3.41143084 1.6774868 -5.125 2.5 C-6.55199219 3.19609375 -6.55199219 3.19609375 -8.0078125 3.90625 C-11.21196631 5.07748116 -13.61717313 5.20076124 -17 5 C-14.51737568 2.51737568 -12.38224713 1.92713025 -9.0625 0.8125 C-8.00160156 0.44769531 -6.94070313 0.08289063 -5.84765625 -0.29296875 C-3 -1 -3 -1 0 0 Z " fill="#334E2F" transform="translate(443,137)"/>
<path d="M0 0 C1.65 0.33 3.3 0.66 5 1 C4.67 2.65 4.34 4.3 4 6 C2.35 5.67 0.7 5.34 -1 5 C-0.67 3.35 -0.34 1.7 0 0 Z " fill="#1A2E2E" transform="translate(329,195)"/>
<path d="M0 0 C1.65 0.33 3.3 0.66 5 1 C4.67 2.65 4.34 4.3 4 6 C2.35 5.67 0.7 5.34 -1 5 C-0.67 3.35 -0.34 1.7 0 0 Z " fill="#2A3D2C" transform="translate(355,136)"/>
<path d="M0 0 C1.98 0 3.96 0 6 0 C6 1.32 6 2.64 6 4 C4.35 4 2.7 4 1 4 C1 4.66 1 5.32 1 6 C2.98 6 4.96 6 7 6 C7 6.33 7 6.66 7 7 C4.69 7 2.38 7 0 7 C0.185625 6.21625 0.37125 5.4325 0.5625 4.625 C1.25962266 2.02910225 1.25962266 2.02910225 0 0 Z " fill="#828589" transform="translate(637,202)"/>
<path d="M0 0 C1.32 0 2.64 0 4 0 C4 1.98 4 3.96 4 6 C2.35 6 0.7 6 -1 6 C-1.042721 4.33388095 -1.04063832 2.66617115 -1 1 C-0.67 0.67 -0.34 0.34 0 0 Z " fill="#1F342F" transform="translate(349,176)"/>
<path d="M0 0 C0.33 0.99 0.66 1.98 1 3 C1.66 3.33 2.32 3.66 3 4 C2 5 2 5 0.15234375 5.09765625 C-1.8984375 5.06510417 -3.94921875 5.03255208 -6 5 C-6.33 4.01 -6.66 3.02 -7 2 C-4.69 2 -2.38 2 0 2 C0 1.34 0 0.68 0 0 Z " fill="#AAACAE" transform="translate(796,206)"/>
<path d="M0 0 C1.134375 0.020625 2.26875 0.04125 3.4375 0.0625 C3.7675 1.0525 4.0975 2.0425 4.4375 3.0625 C3.07625 3.000625 3.07625 3.000625 1.6875 2.9375 C-1.4407046 3.05781556 -2.94864006 3.4539708 -5.5625 5.0625 C-4.43693182 0.07784091 -4.43693182 0.07784091 0 0 Z " fill="#6E952E" transform="translate(395.5625,88.9375)"/>
<path d="M0 0 C0 2.31 0 4.62 0 7 C-0.66 7 -1.32 7 -2 7 C-2.66 5.02 -3.32 3.04 -4 1 C-6.97 0.505 -6.97 0.505 -10 0 C-10 -0.33 -10 -0.66 -10 -1 C-5.92224809 -1.9267618 -3.57818963 -2.33958553 0 0 Z " fill="#BFBFC1" transform="translate(747,200)"/>
<path d="M0 0 C-0.33 1.32 -0.66 2.64 -1 4 C-1 3.01 -1 2.02 -1 1 C-5.59306496 2.4859916 -8.43569245 4.85014682 -12 8 C-11.67715014 4.98673462 -10.96634616 3.96538462 -8.8125 1.75 C-5.56588078 -0.27011863 -3.75257718 -0.34907695 0 0 Z " fill="#498447" transform="translate(334,143)"/>
<path d="M0 0 C0.33 0 0.66 0 1 0 C1.33 1.65 1.66 3.3 2 5 C3.65 5.33 5.3 5.66 7 6 C7.33 6.99 7.66 7.98 8 9 C4.6875 9.25 4.6875 9.25 1 9 C-0.9375 7 -0.9375 7 -2 5 C-1.34 5 -0.68 5 0 5 C0 3.35 0 1.7 0 0 Z " fill="#A5A8AA" transform="translate(810,202)"/>
<path d="M0 0 C0.33 0.66 0.66 1.32 1 2 C2.98 2 4.96 2 7 2 C7 2.99 7 3.98 7 5 C5.02 5 3.04 5 1 5 C0.67 5.99 0.34 6.98 0 8 C0 5.36 0 2.72 0 0 Z " fill="#9C9DA1" transform="translate(599,200)"/>
<path d="M0 0 C0 0.66 0 1.32 0 2 C-0.99 2 -1.98 2 -3 2 C-3.226875 2.5775 -3.45375 3.155 -3.6875 3.75 C-5.33038023 6.5663661 -7.39533227 8.08077114 -10 10 C-9.43867066 6.4628562 -8.30442253 5.00738321 -5.5625 2.75 C-4.94503906 2.22921875 -4.32757812 1.7084375 -3.69140625 1.171875 C-2 0 -2 0 0 0 Z " fill="#C3C5C6" transform="translate(521,128)"/>
<path d="M0 0 C1.65 0.33 3.3 0.66 5 1 C4.67 2.32 4.34 3.64 4 5 C2.35 4.67 0.7 4.34 -1 4 C-0.67 2.68 -0.34 1.36 0 0 Z " fill="#253827" transform="translate(388,116)"/>
<path d="M0 0 C0.66 0 1.32 0 2 0 C2 1.98 2 3.96 2 6 C3.98 6 5.96 6 8 6 C8 6.33 8 6.66 8 7 C5.03 7 2.06 7 -1 7 C-0.67 4.69 -0.34 2.38 0 0 Z " fill="#CFD0D0" transform="translate(677,203)"/>
<path d="M0 0 C1.98 0.495 1.98 0.495 4 1 C3.67 2.65 3.34 4.3 3 6 C1.68 5.67 0.36 5.34 -1 5 C-0.67 3.35 -0.34 1.7 0 0 Z " fill="#1D292A" transform="translate(303,166)"/>
<path d="M0 0 C0.66 0.33 1.32 0.66 2 1 C1.01 2.485 1.01 2.485 0 4 C1.65 3.34 3.3 2.68 5 2 C4.67 2.99 4.34 3.98 4 5 C1.125 5.625 1.125 5.625 -2 6 C-2.66 5.34 -3.32 4.68 -4 4 C-3.34 4 -2.68 4 -2 4 C-2.33 3.01 -2.66 2.02 -3 1 C-2.01 0.67 -1.02 0.34 0 0 Z " fill="#178489" transform="translate(356,259)"/>
<path d="M0 0 C2.475 0.495 2.475 0.495 5 1 C5 2.32 5 3.64 5 5 C3.35 5 1.7 5 0 5 C0 3.35 0 1.7 0 0 Z " fill="#182C2F" transform="translate(352,254)"/>
<path d="M0 0 C1.65 0 3.3 0 5 0 C4.67 1.65 4.34 3.3 4 5 C2.68 5 1.36 5 0 5 C0 3.35 0 1.7 0 0 Z " fill="#1F312E" transform="translate(358,156)"/>
<path d="M0 0 C0 3.10551666 -0.5393715 4.35261084 -2 7 C-3.65 7 -5.3 7 -7 7 C-7 6.34 -7 5.68 -7 5 C-7.99 4.67 -8.98 4.34 -10 4 C-8.906875 3.896875 -7.81375 3.79375 -6.6875 3.6875 C-3.14440371 3.02692273 -2.06756277 2.7972908 0 0 Z " fill="#2C4330" transform="translate(364,143)"/>
<path d="M0 0 C1.32 0 2.64 0 4 0 C4 1.65 4 3.3 4 5 C2.35 5 0.7 5 -1 5 C-0.67 3.35 -0.34 1.7 0 0 Z " fill="#2E3B30" transform="translate(394,95)"/>
<path d="M0 0 C0.66 0 1.32 0 2 0 C1.74438677 2.3431213 1.40729228 4.67843403 1 7 C0.01 7.495 0.01 7.495 -1 8 C-1.33 8.99 -1.66 9.98 -2 11 C-2.79953138 7.71303767 -3.09658936 6.28976808 -2 3 C-1.01 3 -0.02 3 1 3 C0.67 2.01 0.34 1.02 0 0 Z " fill="#4D5157" transform="translate(664,197)"/>
<path d="M0 0 C3 3.33333333 3 3.33333333 3 6 C1.0625 5.625 1.0625 5.625 -1 5 C-1.33 4.34 -1.66 3.68 -2 3 C-4.01669827 1.86649466 -4.01669827 1.86649466 -6 1 C-3 0 -3 0 0 0 Z " fill="#B7B9BB" transform="translate(840,205)"/>
<path d="M0 0 C0.94875 0.04125 1.8975 0.0825 2.875 0.125 C3.205 0.785 3.535 1.445 3.875 2.125 C2.8025 2.228125 1.73 2.33125 0.625 2.4375 C-2.98320872 3.09900493 -4.48895023 3.69983421 -7.125 6.125 C-4.34782609 0.17391304 -4.34782609 0.17391304 0 0 Z " fill="#2D7653" transform="translate(350.125,170.875)"/>
<path d="M0 0 C0.33 0.66 0.66 1.32 1 2 C2.98 2 4.96 2 7 2 C7 2.99 7 3.98 7 5 C5.02 5 3.04 5 1 5 C0.67 3.35 0.34 1.7 0 0 Z " fill="#929496" transform="translate(678,200)"/>
<path d="M0 0 C-1.49097658 3.7952131 -3.75700849 5.61042731 -7 8 C-7 5 -7 5 -4.625 2.3125 C-2 0 -2 0 0 0 Z " fill="#BFC0C1" transform="translate(598,140)"/>
<path d="M0 0 C1.32 0 2.64 0 4 0 C4 1.65 4 3.3 4 5 C2.68 5 1.36 5 0 5 C0 3.35 0 1.7 0 0 Z " fill="#162A30" transform="translate(388,273)"/>
<path d="M0 0 C0.99 0 1.98 0 3 0 C3 1.32 3 2.64 3 4 C2.34 4 1.68 4 1 4 C1 6.64 1 9.28 1 12 C0.67 12 0.34 12 0 12 C0 8.04 0 4.08 0 0 Z " fill="#DBDBDB" transform="translate(576,198)"/>
<path d="M0 0 C0.99 0 1.98 0 3 0 C3.66 2.31 4.32 4.62 5 7 C4.34 7.66 3.68 8.32 3 9 C2.01 6.03 1.02 3.06 0 0 Z " fill="#BCBDBF" transform="translate(755,197)"/>
<path d="M0 0 C-0.33 0.99 -0.66 1.98 -1 3 C-2.9375 3.75 -2.9375 3.75 -5 4 C-5.66 3.67 -6.32 3.34 -7 3 C-8.32860925 2.64830932 -9.66158328 2.31229724 -11 2 C-3.375 0 -3.375 0 0 0 Z " fill="#598E34" transform="translate(447,134)"/>
<path d="M0 0 C0.33 0 0.66 0 1 0 C1 2.31 1 4.62 1 7 C-0.32 7 -1.64 7 -3 7 C-3 5.68 -3 4.36 -3 3 C-2.01 3 -1.02 3 0 3 C0 2.01 0 1.02 0 0 Z " fill="#BFC1C3" transform="translate(763,204)"/>
<path d="M0 0 C1.98 0 3.96 0 6 0 C6 0.99 6 1.98 6 3 C4.02 3 2.04 3 0 3 C0 2.01 0 1.02 0 0 Z " fill="#363C40" transform="translate(679,205)"/>
<path d="M0 0 C2.0625 0.4375 2.0625 0.4375 4 1 C1.03 3.475 1.03 3.475 -2 6 C-1.125 1.125 -1.125 1.125 0 0 Z " fill="#474D53" transform="translate(877,148)"/>
<path d="M0 0 C0.66 0 1.32 0 2 0 C1.67 1.32 1.34 2.64 1 4 C-1.64 4 -4.28 4 -7 4 C-7 3.67 -7 3.34 -7 3 C-5.5459375 2.5359375 -5.5459375 2.5359375 -4.0625 2.0625 C-1.15934208 1.30476658 -1.15934208 1.30476658 0 0 Z " fill="#C3C6C7" transform="translate(819,206)"/>
<path d="M0 0 C0.33 0 0.66 0 1 0 C1 3.96 1 7.92 1 12 C0.01 11.67 -0.98 11.34 -2 11 C-2 10.34 -2 9.68 -2 9 C-1.34 9 -0.68 9 0 9 C0 6.03 0 3.06 0 0 Z " fill="#D7D8D8" transform="translate(585,198)"/>
</svg>
